<svg width="1699" height="960" viewBox="0 0 1699 960" fill="none" xmlns="http://www.w3.org/2000/svg">
<g filter="url(#filter0_f_1127_6941)">
<path fill-rule="evenodd" clip-rule="evenodd" d="M1027.76 1473L1017.09 1465L1006.42 1457.01L995.759 1449.01L985.147 1441.02L974.605 1433.02L964.161 1425.02L953.84 1417.03L943.668 1409.03L933.671 1401.04L923.874 1393.04L914.3 1385.04L904.974 1377.05L895.92 1369.05L887.159 1361.06L878.714 1353.06L870.606 1345.06L862.856 1337.07L855.481 1329.07L848.502 1321.08L841.935 1313.08L835.797 1305.08L830.103 1297.09L824.868 1289.09L820.104 1281.09L815.823 1273.1L812.037 1265.1L808.754 1257.11L805.983 1249.11L803.73 1241.11L802.002 1233.12L800.803 1225.12L800.135 1217.13L800 1209.13L800.399 1201.13L801.331 1193.14L802.793 1185.14L804.781 1177.15L807.292 1169.15L810.317 1161.15L813.851 1153.16L817.884 1145.16L822.405 1137.17L827.404 1129.17L832.869 1121.17L838.784 1113.18L845.137 1105.18L851.91 1097.19L859.088 1089.19L866.651 1081.19L874.581 1073.2L882.858 1065.2L891.462 1057.21L900.371 1049.21L909.563 1041.21L919.015 1033.22L928.702 1025.22L938.602 1017.23L948.689 1009.23L958.938 1001.23L969.323 993.237L979.819 985.241L990.399 977.245L1001.04 969.249L1011.7 961.253L1022.38 953.257L1033.03 945.261L1043.63 937.265L1054.16 929.269L1064.58 921.273L1074.88 913.277L1085.03 905.281L1094.99 897.285L1104.75 889.289L1114.29 881.292L1123.57 873.296L1132.57 865.3L1141.28 857.304L1149.67 849.308L1157.72 841.312L1165.41 833.316L1172.72 825.32L1179.63 817.324L1186.13 809.328L1192.19 801.332L1197.81 793.336L1202.97 785.34L1207.65 777.344L1211.85 769.348L1215.55 761.352L1218.75 753.356L1221.43 745.36L1223.6 737.364L1225.24 729.368L1226.35 721.372L1226.93 713.375L1226.97 705.379L1226.48 697.383L1225.46 689.387L1223.91 681.391L1221.83 673.395L1219.24 665.399L1216.12 657.403L1212.51 649.407L1208.39 641.411L1203.79 633.415L1198.71 625.419L1193.17 617.423L1187.18 609.427L1180.75 601.431L1173.91 593.435L1166.67 585.439L1159.04 577.443L1151.05 569.447L1142.72 561.451L1134.06 553.455L1125.1 545.458L1115.87 537.462L1106.37 529.466L1096.65 521.47L1086.71 513.474L1076.6 505.478L1066.32 497.482L1055.92 489.486L1045.41 481.49L1034.82 473.494L1024.17 465.498L1013.5 457.502L1002.83 449.506L992.184 441.51L981.593 433.514L971.081 425.518L960.675 417.522L950.402 409.526L940.286 401.53L930.353 393.534L920.628 385.538L911.135 377.542L901.898 369.545L892.94 361.549L884.283 353.553L875.949 345.557L867.959 337.561L860.333 329.565L853.089 321.569L846.247 313.573L839.823 305.577L833.832 297.581L828.291 289.585L823.213 281.589L818.61 273.593L814.494 265.597L810.876 257.601L807.765 249.605L805.167 241.609L803.09 233.613L801.54 225.617L800.518 217.62L800.03 209.625L800.075 201.628L800.653 193.632L801.763 185.636L803.403 177.64L805.568 169.644L808.252 161.648L811.449 153.652L815.152 145.656L819.35 137.66L824.034 129.664L829.191 121.668L834.808 113.672L840.873 105.676L847.369 97.6798L854.28 89.6838L861.589 81.6877L869.278 73.6917L877.327 65.6957L885.716 57.6996L894.425 49.7035L903.432 41.7075L912.714 33.7114L922.247 25.7155L932.009 17.7194L941.975 9.72327L952.119 1.72729L962.416 -6.2688L972.842 -14.2649L983.369 -22.2609L993.971 -30.257L1004.62 -38.2529L1015.3 -46.249L1025.96 -54.2451L1036.6 -62.2411L1047.18 -70.2372L1057.68 -78.2332L1068.06 -86.2292L1078.31 -94.2253L1088.4 -102.221L1098.3 -110.217L1107.99 -118.214L1117.44 -126.209L1126.63 -134.206L1135.54 -142.202L1144.14 -150.198L1152.42 -158.194L1160.35 -166.19L1167.91 -174.186L1175.09 -182.182L1181.86 -190.178L1188.22 -198.174L1194.13 -206.17L1199.6 -214.166L1204.59 -222.162L1209.12 -230.158L1213.15 -238.154L1216.68 -246.15L1219.71 -254.146L1222.22 -262.142L1224.21 -270.138L1225.67 -278.134L1226.6 -286.13L1227 -294.126L1226.87 -302.123L1226.2 -310.119L1225 -318.115L1223.27 -326.111L1221.02 -334.107L1218.25 -342.103L1214.96 -350.099L1211.18 -358.095L1206.9 -366.091L1202.13 -374.087L1196.9 -382.083L1191.2 -390.079L1185.06 -398.075L1178.5 -406.071L1171.52 -414.067L1164.14 -422.063L1156.39 -430.059L1148.29 -438.055L1139.84 -446.051L1131.08 -454.047L1122.03 -462.043L1112.7 -470.04L1103.13 -478.036L1093.33 -486.032L1083.33 -494.028L1073.16 -502.024L1062.84 -510.02L1052.39 -518.016L1041.85 -526.012L1031.24 -534.008L1020.58 -542.004L1009.91 -550" fill="url(#paint0_linear_1127_6941)"/>
</g>
<defs>
<filter id="filter0_f_1127_6941" x="0" y="-1350" width="2027" height="3623" filterUnits="userSpaceOnUse" color-interpolation-filters="sRGB">
<feFlood flood-opacity="0" result="BackgroundImageFix"/>
<feBlend mode="normal" in="SourceGraphic" in2="BackgroundImageFix" result="shape"/>
<feGaussianBlur stdDeviation="400" result="effect1_foregroundBlur_1127_6941"/>
</filter>
<linearGradient id="paint0_linear_1127_6941" x1="1318.86" y1="2700.49" x2="1769.38" y2="2666.78" gradientUnits="userSpaceOnUse">
<stop stop-color="#336CBC"/>
<stop offset="1" stop-color="#FAFCBF"/>
</linearGradient>
</defs>
</svg>
