<svg width="44" height="48" viewBox="0 0 44 48" fill="none" xmlns="http://www.w3.org/2000/svg">
<path d="M40.2016 11.2C40.7016 11.7 41.3016 11.7 41.7016 11.3C42.1016 10.9 42.1016 10.3 41.7016 9.9L40.1016 8.3C39.7016 7.9 39.1016 7.9 38.7016 8.3C38.3016 8.7 38.3016 9.3 38.7016 9.7L38.8016 9.8L37.2016 11.4C34.0016 8.2 29.8016 6 25.0016 5.4V2H26.3016C26.9016 2 27.3016 1.6 27.3016 1C27.3016 0.4 26.9016 0 26.3016 0H17.8016C17.2016 0 16.8016 0.4 16.8016 1C16.8016 1.6 17.2016 2 17.8016 2H19.0016V5.4C14.3016 6.1 10.0016 8.3 6.80156 11.5L5.10156 9.8L5.20156 9.7C5.60156 9.3 5.60156 8.7 5.20156 8.3C4.80156 7.9 4.20156 7.9 3.80156 8.3L2.20156 9.9C1.80156 10.3 1.80156 10.9 2.20156 11.3C2.60156 11.7 3.20156 11.7 3.60156 11.3L3.70156 11.2L5.50156 13C2.40156 16.7 0.601562 21.5 0.601562 26.6C0.601562 38.4 10.2016 48 22.0016 48C33.8016 48 43.4016 38.4 43.4016 26.6C43.4016 21.4 41.5016 16.7 38.5016 12.9L40.2016 11.2ZM21.0016 2H23.0016V5.2C22.7016 5.2 22.4016 5.2 22.0016 5.2C21.7016 5.2 21.4016 5.2 21.0016 5.2V2ZM41.4016 26.6C41.4016 37.3 32.7016 46 22.0016 46C11.3016 46 2.60156 37.3 2.60156 26.6C2.60156 15.9 11.3016 7.2 22.0016 7.2C32.7016 7.2 41.4016 15.9 41.4016 26.6Z" fill="#7899D4"/>
<path d="M22.0023 12C14.0023 12 7.40234 18.5 7.40234 26.6C7.40234 34.6 13.9023 41.2 22.0023 41.2C30.1023 41.2 36.6023 34.7 36.6023 26.6C36.6023 18.6 30.0023 12 22.0023 12ZM31.2023 27.6H34.5023C34.0023 33.7 29.1023 38.6 23.0023 39.1V35.8C23.0023 35.2 22.6023 34.8 22.0023 34.8C21.4023 34.8 21.0023 35.2 21.0023 35.8V39.1C14.9023 38.6 10.0023 33.7 9.50234 27.6H12.8023C13.4023 27.6 13.8023 27.2 13.8023 26.6C13.8023 26 13.4023 25.6 12.8023 25.6H9.50234C10.0023 19.5 14.9023 14.6 21.0023 14.1V17.4C21.0023 18 21.4023 18.4 22.0023 18.4C22.6023 18.4 23.0023 18 23.0023 17.4V14.1C29.1023 14.6 34.0023 19.5 34.5023 25.6H31.2023C30.6023 25.6 30.2023 26 30.2023 26.6C30.2023 27.2 30.7023 27.6 31.2023 27.6Z" fill="#7899D4"/>
<path d="M23 26.2V22.7C23 22.1 22.6 21.7 22 21.7C21.4 21.7 21 22.1 21 22.7V26.7C21 27 21.1 27.2 21.3 27.4L24.5 30.6C24.7 30.8 25 30.9 25.2 30.9C25.4 30.9 25.7 30.8 25.9 30.6C26.3 30.2 26.3 29.6 25.9 29.2L23 26.2Z" fill="#7899D4"/>
</svg>
