<svg width="50" height="50" viewBox="0 0 50 50" fill="none" xmlns="http://www.w3.org/2000/svg">
<path d="M49.2188 18.575V12.6742L46.3055 11.9281C46.0773 11.1898 45.782 10.4766 45.4258 9.8L46.9578 7.21406L42.7852 3.04141L40.1992 4.57344C39.5234 4.21719 38.8102 3.92188 38.0711 3.69375L37.325 0.78125H31.4242L30.6781 3.69453C29.9398 3.92266 29.2266 4.21797 28.55 4.57422L25.9641 3.04219L25.1016 3.90625H13.2812V3.125C13.2812 1.83281 12.2297 0.78125 10.9375 0.78125H7.8125C6.52031 0.78125 5.46875 1.83281 5.46875 3.125V3.90625H0.78125V49.2188H36.7188V30.4688H37.325L38.0711 27.5555C38.8094 27.3273 39.5227 27.032 40.1992 26.6758L42.7852 28.2078L46.9578 24.0352L45.4258 21.4492C45.782 20.7734 46.0773 20.0602 46.3055 19.3211L49.2188 18.575ZM11.7188 24.2188H10.1562V11.7188H11.7188V24.2188ZM7.03125 11.7188H8.59375V24.2188H7.03125V11.7188ZM11.0406 25.7812L9.375 28.2789L7.70937 25.7812H11.0406ZM11.7188 10.1562H7.03125V8.59375H11.7188V10.1562ZM9.375 31.0961L11.8766 27.3438H13.2812V33.5938H5.46875V27.3438H6.87344L9.375 31.0961ZM7.8125 2.34375H10.9375C11.3687 2.34375 11.7188 2.69375 11.7188 3.125V7.03125H7.03125V3.125C7.03125 2.69375 7.38125 2.34375 7.8125 2.34375ZM35.1562 47.6562H2.34375V5.46875H5.46875V25.2367L5.83203 25.7812H3.90625V35.1562H14.8438V25.7812H12.918L13.2812 25.2367V5.46875H23.5391L21.793 7.21484L23.325 9.80078C22.9688 10.4766 22.6734 11.1898 22.4453 11.9289L19.5312 12.675V18.5758L22.4445 19.3219C22.6727 20.0602 22.968 20.7734 23.3242 21.45L21.7922 24.0359L25.9648 28.2086L28.5508 26.6766C29.2266 27.0328 29.9398 27.3281 30.6789 27.5562L31.425 30.4688H35.1562V47.6562ZM45.043 18.0312L44.9242 18.4711C44.6773 19.3891 44.3156 20.2641 43.8492 21.0734L43.6211 21.4688L44.9953 23.7875L42.5375 26.2453L40.2188 24.8711L39.8234 25.0992C39.0141 25.5656 38.1391 25.9273 37.2211 26.1742L36.7812 26.293L36.1125 28.9062H32.6383L31.9695 26.293L31.5297 26.1742C30.6117 25.9273 29.7367 25.5656 28.9273 25.0992L28.532 24.8711L26.2133 26.2453L23.7555 23.7875L25.1297 21.4688L24.9016 21.0734C24.4352 20.2641 24.0734 19.3891 23.8266 18.4711L23.7078 18.0312L21.0938 17.3625V13.8883L23.707 13.2195L23.8258 12.7797C24.0727 11.8617 24.4344 10.9867 24.9008 10.1773L25.1289 9.78203L23.7547 7.46328L26.2125 5.00547L28.5312 6.37969L28.9266 6.15156C29.7359 5.68516 30.6109 5.32344 31.5289 5.07656L31.9687 4.95781L32.6375 2.34375H36.1117L36.7805 4.95703L37.2203 5.07578C38.1383 5.32266 39.0133 5.68438 39.8227 6.15078L40.218 6.37891L42.5367 5.00469L44.9945 7.4625L43.6203 9.78125L43.8484 10.1766C44.3148 10.9859 44.6766 11.8609 44.9234 12.7789L45.0422 13.2188L47.6562 13.8875V17.3617L45.043 18.0312Z" fill="#7899D4"/>
<path d="M34.375 6.25C29.2055 6.25 25 10.4555 25 15.625C25 20.7945 29.2055 25 34.375 25C39.5445 25 43.75 20.7945 43.75 15.625C43.75 10.4555 39.5445 6.25 34.375 6.25ZM34.375 23.4375C30.0672 23.4375 26.5625 19.9328 26.5625 15.625C26.5625 11.3172 30.0672 7.8125 34.375 7.8125C38.6828 7.8125 42.1875 11.3172 42.1875 15.625C42.1875 19.9328 38.6828 23.4375 34.375 23.4375Z" fill="#7899D4"/>
<path d="M34.375 9.375C30.9289 9.375 28.125 12.1789 28.125 15.625C28.125 19.0711 30.9289 21.875 34.375 21.875C37.8211 21.875 40.625 19.0711 40.625 15.625C40.625 12.1789 37.8211 9.375 34.375 9.375ZM34.375 20.3125C31.7898 20.3125 29.6875 18.2102 29.6875 15.625C29.6875 13.0398 31.7898 10.9375 34.375 10.9375C36.9602 10.9375 39.0625 13.0398 39.0625 15.625C39.0625 18.2102 36.9602 20.3125 34.375 20.3125Z" fill="#7899D4"/>
<path d="M15.0727 35.3852L13.7391 36.7188H3.90625V46.0938H14.8438V37.8234L16.1773 36.4899L15.0727 35.3852ZM13.2812 44.5313H5.46875V38.2813H12.1766L8.59375 41.8641L7.58359 40.8539L6.47891 41.9586L8.59375 44.0734L13.2812 39.3859V44.5313Z" fill="#7899D4"/>
<path d="M33.5938 44.5312H32.0312V46.0938H33.5938V44.5312Z" fill="#7899D4"/>
<path d="M30.4688 44.5312H16.4062V46.0938H30.4688V44.5312Z" fill="#7899D4"/>
<path d="M33.5938 41.4062H16.4062V42.9688H33.5938V41.4062Z" fill="#7899D4"/>
<path d="M33.5938 38.2812H16.4062V39.8438H33.5938V38.2812Z" fill="#7899D4"/>
<path d="M30.4688 33.5938H16.4062V35.1562H30.4688V33.5938Z" fill="#7899D4"/>
<path d="M30.4688 30.4688H16.4062V32.0312H30.4688V30.4688Z" fill="#7899D4"/>
<path d="M22.6562 27.3438H16.4062V28.9062H22.6562V27.3438Z" fill="#7899D4"/>
</svg>
