<svg width="51" height="50" viewBox="0 0 51 50" fill="none" xmlns="http://www.w3.org/2000/svg">
<path d="M35.5985 26.8C40.0985 19.1 34.3985 9.5 25.5985 9.5C16.7985 9.5 11.0985 19 15.6985 26.9C15.6985 26.9 18.2985 30.7 19.5985 33.2C19.8985 33.9 20.0985 34.6 20.0985 35.3L20.0985 41.7C20.0985 42.9 20.8985 44 21.8985 44.4L21.8985 46C21.8985 47.7 23.1985 49 24.8985 49L26.2985 49C27.9985 49 29.2985 47.7 29.2985 46L29.2985 44.5C30.3985 44.1 31.0985 43 31.0985 41.8L31.0985 35.4C31.0985 34.7 31.2985 34 31.5985 33.4C32.8985 30.7 35.4985 26.9 35.5985 26.8ZM27.2985 46C27.2985 46.6 26.8985 47 26.2985 47L24.8985 47C24.2985 47 23.8985 46.6 23.8985 46L23.8985 44.7L27.2985 44.7L27.2985 46ZM29.1985 41.7C29.1985 42.2 28.7985 42.7 28.1985 42.7L22.9985 42.7C22.4985 42.7 21.9985 42.3 21.9985 41.7L21.9985 40.5L25.5985 40.5C26.1985 40.5 26.5985 40.1 26.5985 39.5C26.5985 38.9 26.1985 38.5 25.5985 38.5L21.9985 38.5L21.9985 36.3L29.0985 36.3L29.0985 41.7L29.1985 41.7ZM29.7985 32.4C29.4985 33 29.2985 33.6 29.1985 34.3L21.8985 34.3C21.7985 33.6 21.5985 32.9 21.2985 32.3C19.9985 29.7 17.3985 25.9 17.2985 25.8C13.5985 19.5 18.1985 11.5 25.5985 11.5C32.8985 11.5 37.4985 19.5 33.8985 25.7C33.7985 25.9 31.0985 29.7 29.7985 32.4Z" fill="#7899D4"/>
<path d="M25.5977 6.2C26.1977 6.2 26.5977 5.8 26.5977 5.2L26.5977 2C26.5977 1.4 26.1977 1 25.5977 1C24.9977 1 24.5977 1.4 24.5977 2L24.5977 5.2C24.5977 5.8 25.0977 6.2 25.5977 6.2Z" fill="#7899D4"/>
<path d="M38.3 11L40.5 8.7C40.9 8.3 40.9 7.7 40.5 7.3C40.1 6.9 39.5 6.9 39.1 7.3L36.8 9.6C36.4 10 36.4 10.6 36.8 11C37.2 11.4 37.9 11.4 38.3 11Z" fill="#7899D4"/>
<path d="M42.3984 21.3C41.7984 21.3 41.3984 21.7 41.3984 22.3C41.3984 22.9 41.7984 23.3 42.3984 23.3L45.5984 23.3C46.1984 23.3 46.5984 22.9 46.5984 22.3C46.5984 21.7 46.1984 21.3 45.5984 21.3L42.3984 21.3Z" fill="#7899D4"/>
<path d="M8.59844 21L5.39844 21C4.79844 21 4.39844 21.4 4.39844 22C4.39844 22.6 4.79844 23 5.39844 23L8.59844 23C9.19844 23 9.59844 22.6 9.59844 22C9.59844 21.5 9.09844 21 8.59844 21Z" fill="#7899D4"/>
<path d="M14.2969 9.39999L11.9969 7.09999C11.5969 6.69999 10.9969 6.69999 10.5969 7.09999C10.1969 7.49999 10.1969 8.09999 10.5969 8.49999L12.8969 10.8C13.2969 11.2 13.8969 11.2 14.2969 10.8C14.6969 10.4 14.6969 9.79999 14.2969 9.39999Z" fill="#7899D4"/>
</svg>
