<svg width="33" height="33" viewBox="0 0 33 33" fill="none" xmlns="http://www.w3.org/2000/svg">
<path d="M16.5 0C7.38455 0 0 7.38561 0 16.5C0 25.6144 7.38561 33 16.5 33C25.6155 33 33 25.6144 33 16.5C33 7.38561 25.6144 0 16.5 0ZM24.6042 11.3041L21.896 24.0655C21.6959 24.9704 21.1573 25.1896 20.4057 24.7638L16.2807 21.7236L14.2911 23.6397C14.0718 23.859 13.8855 24.0453 13.4597 24.0453L13.7525 19.8468L21.3968 12.9403C21.73 12.6475 21.3233 12.4815 20.8837 12.7742L11.4361 18.7216L7.36432 17.4506C6.47971 17.1717 6.45948 16.566 7.55061 16.1402L23.4587 10.0054C24.1975 9.73926 24.8426 10.1853 24.6031 11.303L24.6042 11.3041Z" fill="#7899D4"/>
</svg>
