<svg width="34" height="34" viewBox="0 0 34 34" fill="none" xmlns="http://www.w3.org/2000/svg">
<path d="M16.9999 0.15789C20.331 0.15789 23.5872 1.14566 26.3569 2.9963C29.1266 4.84693 31.2853 7.47731 32.56 10.5548C33.8348 13.6323 34.1683 17.0187 33.5184 20.2857C32.8686 23.5528 31.2645 26.5538 28.9091 28.9092C26.5537 31.2646 23.5527 32.8686 20.2857 33.5185C17.0186 34.1683 13.6322 33.8348 10.5547 32.5601C7.47725 31.2853 4.84688 29.1266 2.99624 26.357C1.14561 23.5873 0.157837 20.331 0.157837 17C0.157837 12.5332 1.93227 8.24934 5.09078 5.09083C8.24928 1.93232 12.5331 0.15789 16.9999 0.15789ZM14.6589 13.7979L10.2863 6.22736L9.8231 6.49473C9.11493 6.94609 8.57162 7.61426 8.27418 8.3996C7.97674 9.18494 7.9411 10.0454 8.17257 10.8526C8.66405 14.178 9.80195 17.375 11.522 20.2632C13.1558 23.1791 15.3409 25.7496 17.9557 27.8316C18.538 28.4546 19.3079 28.8702 20.1483 29.015C20.9886 29.1599 21.8533 29.0259 22.6105 28.6337L23.0736 28.3663L18.7031 20.7958L18.2378 21.0632C17.7346 21.3546 17.3143 21.7698 17.0168 22.2695C15.0909 19.961 13.5755 17.3391 12.5368 14.5179C13.1187 14.5112 13.6891 14.3554 14.1936 14.0653L14.6589 13.7979ZM20.7978 19.5853L20.1599 19.9537L24.5326 27.5221L25.1726 27.1537C25.3944 27.0243 25.556 26.8125 25.6223 26.5645C25.6886 26.3164 25.654 26.0522 25.5263 25.8295L22.1242 19.9389C21.9948 19.7166 21.7826 19.5545 21.534 19.4882C21.2855 19.4219 21.0207 19.4568 20.7978 19.5853ZM12.3831 5.01684L11.7452 5.38526L16.1178 12.9537L16.7557 12.5853C16.9781 12.4559 17.1402 12.2437 17.2065 11.9951C17.2727 11.7466 17.2379 11.4818 17.1094 11.2589L13.7073 5.37052C13.578 5.14815 13.3658 4.98608 13.1172 4.91979C12.8686 4.85351 12.606 4.8884 12.3831 5.01684Z" fill="#7899D4"/>
</svg>
