<svg width="34" height="34" viewBox="0 0 34 34" fill="none" xmlns="http://www.w3.org/2000/svg">
<path d="M33.8422 17C33.8422 20.3311 32.8544 23.5873 31.0038 26.357C29.1531 29.1266 26.5228 31.2853 23.4453 32.5601C20.3678 33.8348 16.9814 34.1684 13.7143 33.5185C10.4473 32.8686 7.44632 31.2646 5.09091 28.9092C2.73549 26.5538 1.13144 23.5528 0.481583 20.2857C-0.168273 17.0187 0.165256 13.6323 1.44 10.5548C2.71473 7.47732 4.87343 4.84694 7.6431 2.9963C10.4128 1.14567 13.669 0.157898 17.0001 0.157898C21.4669 0.157898 25.7507 1.93233 28.9092 5.09084C32.0677 8.24934 33.8422 12.5332 33.8422 17ZM13.1432 17.539L5.06955 11.5853V22.7137L13.1432 17.539ZM7.15586 11.0316L15.0359 16.8421C15.6128 17.2196 16.2874 17.4207 16.9769 17.4207C17.6664 17.4207 18.341 17.2196 18.918 16.8421L26.798 11.0316H7.15586ZM26.1664 22.9768L19.3032 18.5747C18.5776 18.9245 17.7824 19.1061 16.9769 19.1061C16.1714 19.1061 15.3762 18.9245 14.6506 18.5747L7.78112 22.9768H26.1664ZM28.8843 11.5874L20.8106 17.539L28.8843 22.7179V11.5874Z" fill="#7899D4"/>
</svg>
