<svg width="40" height="41" viewBox="0 0 40 41" fill="none" xmlns="http://www.w3.org/2000/svg">
<path d="M30.375 38.2276C25.3125 38.2276 18.125 34.6026 11.5 28.3526C2.50002 19.7276 -1.31248 10.1026 2.68752 5.85259C2.87502 5.66509 3.12502 5.47759 3.37502 5.35259L8.43752 2.47759C9.75002 1.72759 11.375 2.10259 12.25 3.35259L15.9375 8.60259C16.375 9.22759 16.5625 9.97759 16.375 10.7276C16.25 11.4151 15.8125 12.0401 15.1875 12.4776L13 13.9151C14.6875 16.3526 19.25 22.4151 26.5 26.7276C26.5625 26.7901 26.625 26.7276 26.625 26.7276L28.1875 24.6026C29.0625 23.4151 30.75 23.1026 32.0625 23.9151L37.5625 27.4151C38.875 28.2276 39.25 29.9151 38.4375 31.2276L35.4375 36.0401C35.25 36.2901 35.0625 36.5401 34.875 36.7276C33.75 37.7276 32.1875 38.2276 30.375 38.2276ZM9.87502 4.91509L4.75002 7.79009C2.37502 10.3526 5.31252 18.5401 13.5 26.2901C21.8125 34.1651 30.375 36.9776 33.125 34.6026L36.125 29.7901L30.625 26.2901C30.5625 26.2901 30.5 26.2901 30.5 26.2901L28.9375 28.4151C28.0625 29.6026 26.375 29.9151 25.125 29.1651C17.3125 24.4776 12.4375 17.9776 10.6875 15.4151C10.25 14.7901 10.125 14.0401 10.25 13.3526C10.375 12.6026 10.8125 11.9776 11.4375 11.6026L13.625 10.1651L10 4.97759C9.93752 4.97759 9.87502 4.91509 9.87502 4.91509Z" fill="#7899D4"/>
</svg>
