<svg width="40" height="40" viewBox="0 0 40 40" fill="none" xmlns="http://www.w3.org/2000/svg">
<path d="M12.8125 22.875H10.875C10.5 22.875 10.25 23.125 10.25 23.5V25.375C10.25 25.75 10.5 26 10.875 26H12.8125C13.1875 26 13.4375 25.75 13.4375 25.375V23.5C13.4375 23.1875 13.125 22.875 12.8125 22.875Z" fill="#7899D4"/>
<path d="M20.9375 22.875H19C18.625 22.875 18.375 23.125 18.375 23.5V25.375C18.375 25.75 18.625 26 19 26H20.9375C21.3125 26 21.5625 25.75 21.5625 25.375V23.5C21.5625 23.1875 21.3125 22.875 20.9375 22.875Z" fill="#7899D4"/>
<path d="M29.125 22.875H27.1875C26.8125 22.875 26.5625 23.125 26.5625 23.5V25.375C26.5625 25.75 26.8125 26 27.1875 26H29.125C29.5 26 29.75 25.75 29.75 25.375V23.5C29.75 23.1875 29.5 22.875 29.125 22.875Z" fill="#7899D4"/>
<path d="M12.8125 30.9375H10.875C10.5 30.9375 10.25 31.1875 10.25 31.5625V33.4375C10.25 33.8125 10.5 34.0625 10.875 34.0625H12.8125C13.1875 34.0625 13.4375 33.8125 13.4375 33.4375V31.5625C13.4375 31.25 13.125 30.9375 12.8125 30.9375Z" fill="#7899D4"/>
<path d="M20.9375 30.9375H19C18.625 30.9375 18.375 31.1875 18.375 31.5625V33.4375C18.375 33.8125 18.625 34.0625 19 34.0625H20.9375C21.3125 34.0625 21.5625 33.8125 21.5625 33.4375V31.5625C21.5625 31.25 21.3125 30.9375 20.9375 30.9375Z" fill="#7899D4"/>
<path d="M29.125 30.9375H27.1875C26.8125 30.9375 26.5625 31.1875 26.5625 31.5625V33.4375C26.5625 33.8125 26.8125 34.0625 27.1875 34.0625H29.125C29.5 34.0625 29.75 33.8125 29.75 33.4375V31.5625C29.75 31.25 29.5 30.9375 29.125 30.9375Z" fill="#7899D4"/>
<path d="M35 9.625H21.4375V8.4375C22.875 7.875 23.875 6.5 23.875 4.875C23.875 2.75 22.125 1.0625 20 1.0625C17.875 1.0625 16.125 2.75 16.125 4.875C16.125 6.5 17.125 7.875 18.5625 8.4375V9.625H5C2.875 9.625 1.0625 11.375 1.0625 13.5625V35C1.0625 37.125 2.8125 38.9375 5 38.9375H35C37.125 38.9375 38.9375 37.1875 38.9375 35V13.5C38.9375 11.375 37.125 9.625 35 9.625ZM20 3.875C20.5625 3.875 21.0625 4.3125 21.0625 4.875C21.0625 5.4375 20.625 5.875 20 5.875C19.375 5.875 18.9375 5.4375 18.9375 4.875C18.9375 4.3125 19.4375 3.875 20 3.875ZM5 12.4375H35C35.625 12.4375 36.125 12.9375 36.125 13.5625V17.4375H3.9375V13.5625C3.9375 12.875 4.375 12.4375 5 12.4375ZM35 36.125H5C4.375 36.125 3.875 35.625 3.875 35V20.1875H36.0625V35C36.125 35.625 35.625 36.125 35 36.125Z" fill="#7899D4"/>
</svg>
