<svg width="50" height="50" viewBox="0 0 50 50" fill="none" xmlns="http://www.w3.org/2000/svg">
<path d="M18.5 1C13.3 1 9 5.2 9 10.4C9 15.6 13.2 21.8 18.5 21.8C23.8 21.8 28 15.6 28 10.4C28.1 5.2 23.8 1 18.5 1ZM18.5 19.8C14.5 19.8 11 14.6 11 10.4C11 6.3 14.4 3 18.5 3C22.6 3 26 6.3 26 10.4C26.1 14.6 22.6 19.8 18.5 19.8Z" fill="#7899D4"/>
<path d="M1 48C1 48.6 1.4 49 2 49H35.1C35.7 49 36.1 48.6 36.1 48V45.8C36.5 45.8 36.9 45.9 37.3 45.9C43.8 45.9 49 40.6 49 34.2C49 27.8 43.7 22.5 37.3 22.5C35 22.5 32.8 23.2 31 24.4C29.8 23.9 28.6 23.6 27.3 23.6H9.8C5 23.6 1 27.5 1 32.3V48ZM37.3 24.4C42.7 24.4 47 28.8 47 34.1C47 39.4 42.6 43.8 37.3 43.8C31.9 43.8 27.6 39.4 27.6 34.1C27.6 28.8 31.9 24.4 37.3 24.4ZM23.5 25.5C23.3 25.7 22.1 28.7 18.6 28.7C15.1 28.7 13.9 25.7 13.7 25.5H23.5ZM19 30.7L21.8 39.4L18.6 43.3L15.4 39.4L18.2 30.7H18.6C18.6 30.7 18.8 30.7 19 30.7ZM3 32.1C3 28.4 6 25.4 9.8 25.4H11.4C11.4 25.9 11.6 26 12.4 27.3C13.3 28.7 14.6 29.7 16.1 30.2L13.2 39.2C13.1 39.5 13.2 39.9 13.4 40.1L17.7 45.4C17.9 45.6 18.2 45.8 18.5 45.8C18.8 45.8 19.1 45.7 19.3 45.4L23.6 40.1C23.8 39.8 23.9 39.5 23.8 39.2L20.9 30.2C24 29.1 24.9 26.6 25.5 25.9C25.6 25.7 25.6 25.6 25.6 25.4C26.8 25.4 27.7 25.3 29.1 25.7C26.9 27.8 25.5 30.8 25.5 34.1C25.5 39.4 29.1 43.9 34 45.4V47H3V32.1Z" fill="#7899D4"/>
<path d="M30.1008 35L34.3008 39.2C34.5008 39.4 34.8008 39.5 35.0008 39.5C35.2008 39.5 35.5008 39.4 35.7008 39.2L44.5008 30.4C44.9008 30 44.9008 29.4 44.5008 29C44.1008 28.6 43.5008 28.6 43.1008 29L35.0008 37.1L31.5008 33.6C31.1008 33.2 30.5008 33.2 30.1008 33.6C29.7008 34 29.7008 34.6 30.1008 35Z" fill="#7899D4"/>
</svg>
