<svg width="50" height="50" viewBox="0 0 50 50" fill="none" xmlns="http://www.w3.org/2000/svg">
<path d="M49.025 37.4023C48.6282 37.4023 48.2633 37.1525 48.1178 36.784C47.9684 36.4055 48.0742 35.9604 48.3811 35.6918C48.6924 35.4193 49.1545 35.3733 49.513 35.5803C49.8712 35.7871 50.0628 36.2108 49.9821 36.6162C49.8923 37.0667 49.4851 37.4023 49.025 37.4023Z" fill="#7899D4"/>
<path d="M48.6303 39.9168C48.1225 39.7348 47.5635 39.9984 47.3811 40.506C46.8387 42.0172 45.9866 43.3872 44.8815 44.5385C44.2798 42.7537 42.8115 41.3641 40.9795 40.8722C42.1346 39.7463 42.8528 38.1742 42.8528 36.4376C42.8528 33.0217 40.0738 30.2427 36.6579 30.2427C33.2421 30.2427 30.4631 33.0217 30.4631 36.4376C30.4631 38.1742 31.1813 39.7462 32.3364 40.8721C30.5038 41.3641 29.0353 42.7544 28.4339 44.5399C26.4049 42.4324 25.2683 39.6396 25.2683 36.657C25.2683 30.3763 30.3776 25.2663 36.6579 25.2663C41.3214 25.2663 45.4666 28.0592 47.2183 32.3813C47.4209 32.8812 47.9904 33.1223 48.4901 32.9196C48.99 32.7171 49.231 32.1477 49.0284 31.6479C48.0421 29.2143 46.3727 27.1397 44.2005 25.6484C43.267 25.0075 42.266 24.4935 41.2187 24.1125V17.756C43.9334 17.2907 46.0059 14.9203 46.0059 12.075C46.0059 8.89678 43.4202 6.31123 40.2421 6.31123C37.3967 6.31123 35.0263 8.38369 34.5611 11.0984H26.4968C25.4261 4.80596 19.9352 0 13.3429 0C5.98555 0 0 5.98603 0 13.3439C0 17.5148 1.89707 21.369 5.20469 23.9183C5.20625 23.9194 5.20771 23.9205 5.20928 23.9217C6.30898 24.7684 7.51006 25.4281 8.78145 25.8905V32.2438C6.0667 32.7091 3.99424 35.0795 3.99424 37.9248C3.99424 41.103 6.57988 43.6886 9.75801 43.6886C12.6034 43.6886 14.9738 41.6161 15.439 38.9014H23.5015C24.054 42.1903 25.8153 45.1472 28.5198 47.2314C28.5218 47.2329 28.5237 47.2344 28.5257 47.2358C30.8751 49.0442 33.687 50 36.6579 50C39.6301 50 42.4431 49.0435 44.7931 47.2337C44.794 47.2329 44.795 47.2322 44.796 47.2314C46.8272 45.666 48.3568 43.5686 49.2194 41.1659C49.4017 40.6583 49.1379 40.099 48.6303 39.9168ZM40.242 8.26445C42.3433 8.26445 44.0526 9.97393 44.0526 12.0751C44.0526 14.1763 42.3432 15.8857 40.242 15.8857C38.1408 15.8857 36.4313 14.1763 36.4313 12.0751C36.4313 9.97393 38.1408 8.26445 40.242 8.26445ZM1.95312 13.3439C1.95312 7.06299 7.0626 1.95312 13.3429 1.95312C19.6231 1.95312 24.7325 7.06299 24.7325 13.3439C24.7325 16.3264 23.5959 19.1193 21.5669 21.2269C20.9655 19.4413 19.4969 18.051 17.6643 17.559C18.8193 16.4331 19.5377 14.861 19.5377 13.1244C19.5377 9.7085 16.7587 6.92949 13.3428 6.92949C9.92686 6.92949 7.14785 9.7085 7.14785 13.1244C7.14785 14.861 7.86621 16.4331 9.02129 17.559C7.18867 18.0509 5.72002 19.4413 5.11865 21.2269C3.08975 19.1192 1.95312 16.3264 1.95312 13.3439ZM13.3429 17.3661C11.004 17.3661 9.10107 15.4633 9.10107 13.1243C9.10107 10.7854 11.0039 8.88252 13.3429 8.88252C15.6818 8.88252 17.5847 10.7854 17.5847 13.1243C17.5847 15.4633 15.6817 17.3661 13.3429 17.3661ZM10.489 19.3193H16.1968C18.1198 19.3193 19.7061 20.7895 19.8903 22.6649C17.9684 24.02 15.7152 24.7336 13.3429 24.7336C10.9705 24.7336 8.71738 24.02 6.79541 22.6649C6.97959 20.7895 8.56582 19.3193 10.489 19.3193ZM9.75801 41.7355C7.65674 41.7355 5.94736 40.0261 5.94736 37.9249C5.94736 35.8237 7.65684 34.1143 9.75801 34.1143C11.8592 34.1143 13.5687 35.8237 13.5687 37.9249C13.5687 40.0261 11.8592 41.7355 9.75801 41.7355ZM15.439 36.9483C15.0281 34.5512 13.1317 32.6548 10.7346 32.2439V26.4343C11.5845 26.6017 12.4565 26.6867 13.3428 26.6867C16.3139 26.6867 19.1258 25.731 21.475 23.9227C21.477 23.9212 21.4789 23.9197 21.4809 23.9183C24.7886 21.369 26.6855 17.5148 26.6855 13.3439C26.6855 13.2463 26.6845 13.1489 26.6823 13.0518H34.5609C34.9718 15.4489 36.8682 17.3453 39.2653 17.7562V23.5679C38.4134 23.3992 37.5409 23.3134 36.6578 23.3134C29.3006 23.3134 23.315 29.2994 23.315 36.6572C23.315 36.7545 23.3161 36.8516 23.3182 36.9483H15.439ZM36.6579 32.196C38.9968 32.196 40.8997 34.0988 40.8997 36.4378C40.8997 38.7768 38.9969 40.6796 36.6579 40.6796C34.3189 40.6796 32.4162 38.7768 32.4162 36.4378C32.4162 34.0988 34.319 32.196 36.6579 32.196ZM36.6579 48.0469C34.2856 48.0469 32.0325 47.3333 30.1104 45.9781C30.2948 44.1026 31.881 42.6325 33.804 42.6325H39.5118C41.435 42.6325 43.0211 44.1026 43.2055 45.9781C41.2834 47.3333 39.0303 48.0469 36.6579 48.0469Z" fill="#7899D4"/>
</svg>
