<svg width="40" height="41" viewBox="0 0 40 41" fill="none" xmlns="http://www.w3.org/2000/svg">
<path d="M23.9709 21.4771C23.5415 21.2199 22.9827 20.9331 22.477 21.1404C22.0888 21.2994 21.8414 21.9065 21.5897 22.2169C21.4609 22.3759 21.3068 22.4012 21.1082 22.3211C19.6517 21.7409 18.5352 20.7681 17.7312 19.4283C17.5952 19.2199 17.6193 19.056 17.7839 18.8629C18.0268 18.5772 18.3317 18.2526 18.3975 17.867C18.4633 17.4815 18.2824 17.0313 18.1228 16.688C17.9193 16.2493 17.6917 15.6241 17.2525 15.3762C16.8483 15.1481 16.3169 15.2759 15.9572 15.5687C15.3364 16.0743 15.0369 16.8662 15.0457 17.6515C15.0479 17.8747 15.0759 18.0974 15.128 18.3123C15.253 18.8306 15.4927 19.3137 15.7619 19.7738C15.9648 20.1204 16.1858 20.4571 16.4238 20.7807C17.2031 21.8391 18.1727 22.7587 19.2947 23.4464C19.8557 23.7897 20.4595 24.0913 21.0852 24.2981C21.7866 24.53 22.4118 24.7713 23.1697 24.6271C23.9626 24.4763 24.7446 23.9855 25.0594 23.2216C25.1527 22.9951 25.1993 22.7434 25.1472 22.5043C25.0397 22.0102 24.3706 21.7162 23.9709 21.4771Z" fill="#7899D4"/>
<path d="M20.092 9.59375C14.3393 9.59375 9.65932 14.2738 9.65932 20.0264C9.65932 21.7857 10.1107 23.5197 10.9678 25.0662L9.45312 30.7163L15.1323 29.1951C16.659 30.0231 18.3646 30.4591 20.0915 30.4591C25.8441 30.4591 30.5241 25.7791 30.5241 20.0264C30.5247 14.2738 25.8447 9.59375 20.092 9.59375ZM20.092 28.4871C18.5795 28.4871 17.0857 28.0736 15.7728 27.291L15.4153 27.0777L12.2428 27.9277L13.0879 24.7728L12.8685 24.4125C12.0591 23.0832 11.6314 21.5663 11.6314 20.0259C11.6314 15.3607 15.4268 11.5652 20.092 11.5652C24.7572 11.5652 28.5527 15.3607 28.5527 20.0259C28.5527 24.6911 24.7572 28.4871 20.092 28.4871Z" fill="#7899D4"/>
<path d="M20 40.165C8.97176 40.165 0 31.1933 0 20.165C0 9.1368 8.97176 0.165039 20 0.165039C31.0277 0.165039 40 9.1368 40 20.165C40 31.1933 31.0282 40.165 20 40.165ZM20 1.70384C9.82013 1.70384 1.53825 9.98572 1.53825 20.1656C1.53825 30.3455 9.82013 38.6268 20 38.6268C30.1799 38.6268 38.4618 30.3449 38.4618 20.1656C38.4618 9.98572 30.1799 1.70384 20 1.70384Z" fill="#7899D4"/>
</svg>
