<svg width="50" height="50" viewBox="0 0 50 50" fill="none" xmlns="http://www.w3.org/2000/svg">
<path d="M26 31.5C28.2 30.8 29.1 28.5 28.2 26.5C27.6 25.2 26.3 24.4 24.9 24.4C22.7 23.9 23.4 21.2 25.1 21.2H25.3C25.7 21.2 26.1 21.4 26.4 21.8C26.8 22.2 27.4 22.2 27.8 21.9C28.2 21.5 28.2 20.9 27.9 20.5C27.4 19.9 26.8 19.6 26.1 19.4C26 19 26.5 17.1 25.1 17.1C24.5 17.1 24.1 17.5 24.1 18.1V19.5C23.6 19.7 23.2 19.9 22.8 20.3C21.5 21.5 21 23.7 22.6 25.4C24.2 27.2 25.8 25.9 26.5 27.5C27 28.6 26.4 29.8 25 29.8C24.5 29.8 24.1 29.6 23.8 29.3C23.4 28.9 22.8 28.9 22.4 29.2C21.4 30.1 22.8 31.3 24.1 31.7C24.2 32.1 23.7 34 25.1 34C26.4 33.9 25.9 32 26 31.5Z" fill="#7899D4"/>
<path d="M3.5 25.5C3.5 24.9 3.1 24.5 2.5 24.5C1.9 24.5 1.5 24.9 1.5 25.5C1.5 38.4 12 49 25 49C38 49 48.5 38.4 48.5 25.5C48.5 12.6 38 2 25 2C18.9 2 13.1 4.3 8.7 8.5V2C8.7 1.5 8.2 1 7.7 1C7.1 1 6.7 1.5 6.7 2L6.8 11C6.8 11.5 7.3 12 7.8 12L16.8 11.9C17.4 11.9 17.8 11.4 17.8 10.9C17.8 10.4 17.3 9.9 16.8 9.9L10.1 10C14.1 6.2 19.4 4 25 4C36.9 4 46.5 13.7 46.5 25.5C46.5 37.3 36.9 47 25 47C13.1 47 3.5 37.3 3.5 25.5Z" fill="#7899D4"/>
<path d="M38.9001 25.5C38.9001 17.8 32.7001 11.6 25.0001 11.6C17.3001 11.6 11.1001 17.8 11.1001 25.5C11.1001 33.2 17.3001 39.4 25.0001 39.4C32.7001 39.4 38.9001 33.1 38.9001 25.5ZM13.1001 25.5C13.1001 19 18.4001 13.6 25.0001 13.6C31.6001 13.6 36.9001 18.9 36.9001 25.5C36.9001 32.1 31.5001 37.4 25.0001 37.4C18.5001 37.4 13.1001 32 13.1001 25.5Z" fill="#7899D4"/>
</svg>
