<svg width="50" height="50" viewBox="0 0 50 50" fill="none" xmlns="http://www.w3.org/2000/svg">
<g clip-path="url(#clip0_908_721)">
<path d="M48.0769 25C48.0769 12.255 37.7451 1.92308 25 1.92308C12.255 1.92308 1.9231 12.255 1.9231 25C1.9231 37.745 12.255 48.0769 25 48.0769C37.7451 48.0769 48.0769 37.745 48.0769 25Z" stroke="#7899D4" stroke-width="3"/>
<path d="M30.6411 18.7446C30.6411 21.6527 28.2526 24.0277 25.2733 24.0277C22.2939 24.0277 19.9055 21.6527 19.9055 18.7446C19.9055 15.8365 22.2939 13.4615 25.2733 13.4615C28.2526 13.4615 30.6411 15.8365 30.6411 18.7446ZM25.2733 28.6271C26.7406 28.6271 28.1164 28.2918 29.3556 27.735H29.6134C32.6888 27.735 35.162 30.1936 35.162 33.1965V34.8023C35.162 35.7365 34.3898 36.517 33.411 36.517H17.1356C16.1567 36.517 15.3845 35.7365 15.3845 34.8023V33.1965C15.3845 30.1936 17.8578 27.735 20.9332 27.735H21.1918C22.4338 28.2912 23.8046 28.6271 25.2733 28.6271Z" stroke="#7899D4" stroke-width="2"/>
</g>
<defs>
<clipPath id="clip0_908_721">
<rect width="50" height="50" fill="white"/>
</clipPath>
</defs>
</svg>
