<svg width="51" height="50" viewBox="0 0 51 50" fill="none" xmlns="http://www.w3.org/2000/svg">
<path d="M26.5007 31.5C28.7007 30.8 29.6007 28.5 28.7007 26.5C28.1007 25.2 26.8007 24.4 25.4007 24.4C23.2007 23.9 23.9007 21.2 25.6007 21.2H25.8007C26.2007 21.2 26.6007 21.4 26.9007 21.8C27.3007 22.2 27.9007 22.2 28.3007 21.9C28.7007 21.5 28.7007 20.9 28.4007 20.5C27.9007 19.9 27.3007 19.6 26.6007 19.4C26.5007 19 27.0007 17.1 25.6007 17.1C25.0007 17.1 24.6007 17.5 24.6007 18.1V19.5C24.1007 19.7 23.7007 19.9 23.3007 20.3C22.0007 21.5 21.5007 23.7 23.1007 25.4C24.7007 27.2 26.3007 25.9 27.0007 27.5C27.5007 28.6 26.9007 29.8 25.5007 29.8C25.0007 29.8 24.6007 29.6 24.3007 29.3C23.9007 28.9 23.3007 28.9 22.9007 29.2C21.9007 30.1 23.3007 31.3 24.6007 31.7C24.7007 32.1 24.2007 34 25.6007 34C26.9007 33.9 26.4007 32 26.5007 31.5Z" fill="#7899D4"/>
<path d="M4 25.5C4 24.9 3.6 24.5 3 24.5C2.4 24.5 2 24.9 2 25.5C2 38.4 12.5 49 25.5 49C38.5 49 49 38.4 49 25.5C49 12.6 38.5 2 25.5 2C19.4 2 13.6 4.3 9.2 8.5V2C9.2 1.5 8.7 1 8.2 1C7.6 1 7.2 1.5 7.2 2L7.3 11C7.3 11.5 7.8 12 8.3 12L17.3 11.9C17.9 11.9 18.3 11.4 18.3 10.9C18.3 10.4 17.8 9.9 17.3 9.9L10.6 10C14.6 6.2 19.9 4 25.5 4C37.4 4 47 13.7 47 25.5C47 37.3 37.4 47 25.5 47C13.6 47 4 37.3 4 25.5Z" fill="#7899D4"/>
<path d="M39.4016 25.5C39.4016 17.8 33.2016 11.6 25.5016 11.6C17.8016 11.6 11.6016 17.8 11.6016 25.5C11.6016 33.2 17.8016 39.4 25.5016 39.4C33.2016 39.4 39.4016 33.1 39.4016 25.5ZM13.6016 25.5C13.6016 19 18.9016 13.6 25.5016 13.6C32.1016 13.6 37.4016 18.9 37.4016 25.5C37.4016 32.1 32.0016 37.4 25.5016 37.4C19.0016 37.4 13.6016 32 13.6016 25.5Z" fill="#7899D4"/>
</svg>
