<svg width="41" height="40" viewBox="0 0 41 40" fill="none" xmlns="http://www.w3.org/2000/svg">
<path d="M19.7589 29.1347C17.3809 28.9316 15.382 27.9626 13.7623 26.2276C12.1425 24.4926 11.3327 22.4167 11.3327 20.0001C11.3327 17.4537 12.2239 15.2894 14.0064 13.5072C15.7887 11.7247 17.953 10.8334 20.4993 10.8334C22.916 10.8334 24.9918 11.6406 26.7269 13.2551C28.4619 14.8692 29.4309 16.8655 29.6339 19.2438L26.9835 18.4584C26.6232 16.9584 25.8473 15.7292 24.6556 14.7709C23.4642 13.8126 22.0788 13.3334 20.4993 13.3334C18.666 13.3334 17.0966 13.9862 15.791 15.2917C14.4855 16.5973 13.8327 18.1667 13.8327 20.0001C13.8327 21.5834 14.3145 22.9723 15.2781 24.1667C16.2417 25.3612 17.4682 26.139 18.9577 26.5001L19.7589 29.1347ZM21.7589 35.7659C21.5489 35.8109 21.3391 35.8334 21.1293 35.8334H20.4993C18.3091 35.8334 16.2507 35.4179 14.3243 34.5868C12.398 33.7556 10.7223 32.6277 9.29727 31.203C7.87227 29.7783 6.74421 28.1029 5.9131 26.1767C5.08171 24.2506 4.66602 22.1927 4.66602 20.003C4.66602 17.813 5.08157 15.7545 5.91268 13.8276C6.74379 11.9006 7.87171 10.2245 9.29643 8.79925C10.7212 7.37397 12.3966 6.2455 14.3227 5.41383C16.2488 4.58244 18.3067 4.16675 20.4964 4.16675C22.6864 4.16675 24.7449 4.58244 26.6719 5.41383C28.5988 6.24494 30.2749 7.373 31.7002 8.798C33.1255 10.223 34.2539 11.8987 35.0856 13.8251C35.917 15.7515 36.3327 17.8098 36.3327 20.0001V20.6217C36.3327 20.829 36.3102 21.0363 36.2652 21.2438L33.8327 20.5001V20.0001C33.8327 16.2779 32.541 13.1251 29.9577 10.5417C27.3743 7.95841 24.2216 6.66675 20.4993 6.66675C16.7771 6.66675 13.6243 7.95841 11.041 10.5417C8.45768 13.1251 7.16602 16.2779 7.16602 20.0001C7.16602 23.7223 8.45768 26.8751 11.041 29.4584C13.6243 32.0417 16.7771 33.3334 20.4993 33.3334H20.9993L21.7589 35.7659ZM34.0664 36.0738L26.5089 28.5001L24.6981 33.9742L20.4993 20.0001L34.4735 24.1988L28.9993 26.0097L36.5731 33.5672L34.0664 36.0738Z" fill="#FFFCE1"/>
</svg>
