<svg width="48" height="50" viewBox="0 0 48 50" fill="none" xmlns="http://www.w3.org/2000/svg">
<path d="M23.3065 28.3876C23.0861 28.3876 22.8707 28.313 22.6965 28.1736L21.0111 26.8253C20.5899 26.4884 20.5216 25.8738 20.8586 25.4526C21.1954 25.0315 21.8101 24.9631 22.2312 25.3001L23.0994 25.9945L25.5373 22.4731C25.8444 22.0298 26.4526 21.9193 26.8961 22.2262C27.3395 22.5332 27.4501 23.1415 27.143 23.5849L24.1094 27.9668C23.9553 28.1893 23.7158 28.338 23.4479 28.3771C23.4007 28.3842 23.3535 28.3876 23.3065 28.3876Z" fill="#7899D4"/>
<path d="M47.9918 15.6626V15.5528C47.9918 13.0367 46.2918 10.9103 43.9802 10.2615C45.0742 9.17314 45.7524 7.66709 45.7524 6.00566C45.7524 2.69414 43.0583 0 39.7468 0C36.4353 0 33.741 2.69414 33.741 6.00566C33.741 6.59434 33.8262 7.16357 33.9848 7.70156C30.971 5.96143 27.5332 5.0291 24.0018 5.0291C20.4686 5.0291 17.0321 5.96113 14.0188 7.70127C14.1773 7.16338 14.2624 6.59434 14.2624 6.00566C14.2625 2.69414 11.5684 0 8.25674 0C4.94512 0 2.25107 2.69414 2.25107 6.00566C2.25107 7.66709 2.9293 9.17314 4.02334 10.2615C1.71162 10.9103 0.0117188 13.0367 0.0117188 15.5528V15.6626C0.0117188 15.9655 0.152246 16.2513 0.392187 16.4361C1.79424 17.5166 3.36709 18.2826 5.0415 18.7107C4.37051 20.7326 4.03086 22.8436 4.03086 25.0001C4.03086 27.3138 4.42178 29.575 5.19346 31.73C3.43301 32.7782 2.25107 34.7007 2.25107 36.8941C2.25107 38.5557 2.9293 40.0617 4.02344 41.1501C1.71172 41.7987 0.0117188 43.9253 0.0117188 46.4414V46.5512C0.0117188 46.8541 0.152246 47.1398 0.392187 47.3247C2.66377 49.0748 5.3833 50 8.25674 50C11.1302 50 13.8496 49.0748 16.1212 47.3246C16.3611 47.1397 16.5017 46.854 16.5017 46.5511V46.4413C16.5017 45.1236 16.0354 43.9128 15.2593 42.9651C17.9595 44.2851 20.9247 44.9709 24.0017 44.9709C27.0796 44.9709 30.0441 44.2854 32.7436 42.9657C31.9677 43.9133 31.5017 45.1239 31.5017 46.4413V46.5511C31.5017 46.854 31.6422 47.1397 31.8821 47.3246C34.1538 49.0748 36.8733 50 39.7468 50C42.6203 50 45.3397 49.0748 47.6113 47.3246C47.8513 47.1397 47.9918 46.854 47.9918 46.5511V46.4413C47.9918 43.9252 46.2918 41.7986 43.9801 41.15C45.0742 40.0616 45.7524 38.5556 45.7524 36.894C45.7524 34.7007 44.5705 32.7781 42.8101 31.7299C43.5817 29.5749 43.9727 27.3137 43.9727 25C43.9727 22.8452 43.6329 20.7331 42.962 18.7106C44.6364 18.2825 46.2093 17.5165 47.6113 16.436C47.8513 16.2513 47.9918 15.9654 47.9918 15.6626ZM39.7468 1.95312C41.9813 1.95312 43.7993 3.77109 43.7993 6.00566C43.7993 8.24023 41.9813 10.0582 39.7468 10.0582C37.5122 10.0582 35.6941 8.24023 35.6941 6.00566C35.6941 3.77109 37.5122 1.95312 39.7468 1.95312ZM8.25674 1.95312C10.4913 1.95312 12.3093 3.77109 12.3093 6.00566C12.3093 8.24023 10.4913 10.0582 8.25674 10.0582C6.02217 10.0582 4.2042 8.24023 4.2042 6.00566C4.2042 3.77109 6.02227 1.95312 8.25674 1.95312ZM5.50625 12.0113H11.0071C12.8352 12.0113 14.344 13.4034 14.5294 15.1831C12.6868 16.4771 10.5286 17.1585 8.25674 17.1585C5.98486 17.1585 3.82656 16.4771 1.98398 15.1831C2.16943 13.4034 3.67832 12.0113 5.50625 12.0113ZM8.25674 32.8415C10.4913 32.8415 12.3093 34.6595 12.3093 36.894C12.3093 39.1286 10.4913 40.9466 8.25674 40.9466C6.02217 40.9466 4.2042 39.1286 4.2042 36.894C4.2042 34.6595 6.02227 32.8415 8.25674 32.8415ZM8.25674 48.0469C5.98477 48.0469 3.82656 47.3655 1.98398 46.0716C2.16934 44.2918 3.67832 42.8998 5.50625 42.8998H11.0071C12.8352 42.8998 14.344 44.2919 14.5294 46.0716C12.6869 47.3655 10.5287 48.0469 8.25674 48.0469ZM46.0195 46.0716C44.177 47.3655 42.0187 48.0469 39.7468 48.0469C37.4749 48.0469 35.3167 47.3655 33.4741 46.0716C33.6595 44.2918 35.1685 42.8998 36.9964 42.8998H42.4973C44.3252 42.8998 45.8341 44.2919 46.0195 46.0716ZM39.7468 40.9466C37.5122 40.9466 35.6942 39.1286 35.6942 36.894C35.6942 34.6595 37.5122 32.8415 39.7468 32.8415C41.9813 32.8415 43.7993 34.6595 43.7993 36.894C43.7993 39.1286 41.9813 40.9466 39.7468 40.9466ZM42.0195 25C42.0195 27.0689 41.6735 29.0906 40.9904 31.0179C40.5891 30.933 40.1729 30.8884 39.7467 30.8884C36.4352 30.8884 33.741 33.5825 33.741 36.894C33.741 37.904 33.9916 38.8564 34.4339 39.6927C31.3775 41.8703 27.7847 43.0178 24.0018 43.0178C20.2205 43.0178 16.6264 41.87 13.5696 39.6926C14.0118 38.8564 14.2624 37.9039 14.2624 36.894C14.2624 33.5825 11.5683 30.8884 8.25674 30.8884C7.83047 30.8884 7.41445 30.933 7.01299 31.0179C6.32998 29.0906 5.98398 27.0689 5.98398 25C5.98398 22.9557 6.32178 20.9574 6.98887 19.0509C7.40742 19.0913 7.83037 19.1116 8.25674 19.1116C11.1303 19.1116 13.8497 18.1864 16.1212 16.4361C16.3611 16.2513 16.5017 15.9655 16.5017 15.6626V15.5528C16.5017 13.3228 15.1662 11.3987 13.253 10.5385C16.3484 8.23545 20.1101 6.98223 24.0018 6.98223C27.8915 6.98223 31.655 8.23584 34.7504 10.5384C32.8372 11.3986 31.5018 13.3227 31.5018 15.5527V15.6625C31.5018 15.9654 31.6423 16.2512 31.8822 16.436C34.1537 18.1864 36.8731 19.1115 39.7467 19.1115C40.1729 19.1115 40.5959 19.0912 41.0145 19.0508C41.6815 20.9578 42.0195 22.9572 42.0195 25ZM39.7468 17.1585C37.4748 17.1585 35.3167 16.4771 33.4741 15.1831C33.6595 13.4033 35.1685 12.0113 36.9964 12.0113H42.4973C44.3253 12.0113 45.8342 13.4034 46.0195 15.1831C44.177 16.4772 42.0187 17.1585 39.7468 17.1585Z" fill="#7899D4"/>
<path d="M24.0021 35.2716C18.3384 35.2716 13.7305 30.6637 13.7305 25C13.7305 19.3362 18.3384 14.7283 24.0021 14.7283C27.6986 14.7283 31.1265 16.7289 32.9481 19.9494C33.2137 20.4189 33.0483 21.0147 32.579 21.2802C32.1095 21.5458 31.5139 21.3804 31.2481 20.9111C29.7725 18.3021 26.9959 16.6814 24.0021 16.6814C19.4152 16.6814 15.6836 20.413 15.6836 25C15.6836 29.5869 19.4152 33.3185 24.0021 33.3185C27.0965 33.3185 29.9171 31.617 31.3635 28.8781C31.6152 28.401 32.2062 28.2187 32.683 28.4705C33.16 28.7223 33.3425 29.313 33.0906 29.7901C31.3052 33.1712 27.8227 35.2716 24.0021 35.2716Z" fill="#7899D4"/>
<path d="M33.295 25.879C32.8809 25.879 32.5044 25.6069 32.3711 25.2159C32.2392 24.8286 32.3702 24.3838 32.6944 24.1328C33.0014 23.8951 33.4293 23.861 33.769 24.0492C34.1254 24.2466 34.3256 24.659 34.2587 25.0614C34.1815 25.5262 33.7663 25.879 33.295 25.879Z" fill="#7899D4"/>
</svg>
