<svg width="50" height="50" viewBox="0 0 50 50" fill="none" xmlns="http://www.w3.org/2000/svg">
<path d="M34.295 25.8789C33.8809 25.8789 33.5044 25.6068 33.3711 25.2158C33.2392 24.8285 33.3702 24.3838 33.6944 24.1327C34.0014 23.895 34.4293 23.8609 34.769 24.0491C35.1254 24.2466 35.3256 24.659 35.2587 25.0613C35.1815 25.5262 34.7663 25.8789 34.295 25.8789Z" fill="#7899D4"/>
<path d="M25 35.2717C19.3362 35.2717 14.7283 30.6638 14.7283 25C14.7283 19.3362 19.3362 14.7283 25 14.7283C28.6964 14.7283 32.1243 16.7289 33.9459 19.9494C34.2115 20.4189 34.0461 21.0147 33.5768 21.2803C33.1073 21.5458 32.5117 21.3805 32.2459 20.9111C30.7703 18.3021 27.9937 16.6814 25 16.6814C20.413 16.6814 16.6814 20.4131 16.6814 25C16.6814 29.5869 20.413 33.3186 25 33.3186C28.0943 33.3186 30.9149 31.6171 32.3613 28.8781C32.613 28.4011 33.204 28.2187 33.6808 28.4705C34.1578 28.7224 34.3403 29.3131 34.0884 29.7901C32.303 33.1713 28.8205 35.2717 25 35.2717Z" fill="#7899D4"/>
<path d="M48.9901 15.6626V15.5528C48.9901 13.0367 47.2901 10.9103 44.9785 10.2615C46.0725 9.17314 46.7507 7.66709 46.7507 6.00566C46.7507 2.69414 44.0566 0 40.7451 0C37.4335 0 34.7393 2.69414 34.7393 6.00566C34.7393 6.59434 34.8245 7.16357 34.9831 7.70156C31.9693 5.96143 28.5315 5.0291 25 5.0291C21.4668 5.0291 18.0304 5.96113 15.017 7.70127C15.1756 7.16338 15.2607 6.59434 15.2607 6.00566C15.2608 2.69414 12.5667 0 9.25503 0C5.94341 0 3.24937 2.69414 3.24937 6.00566C3.24937 7.66709 3.92759 9.17314 5.02163 10.2615C2.70991 10.9103 1.01001 13.0367 1.01001 15.5528V15.6626C1.01001 15.9655 1.15054 16.2513 1.39048 16.4361C2.79253 17.5166 4.36538 18.2826 6.0398 18.7107C5.3688 20.7326 5.02915 22.8436 5.02915 25.0001C5.02915 27.3138 5.42007 29.575 6.19175 31.73C4.4313 32.7782 3.24937 34.7007 3.24937 36.8941C3.24937 38.5557 3.92759 40.0617 5.02173 41.1501C2.71001 41.7987 1.01001 43.9253 1.01001 46.4414V46.5512C1.01001 46.8541 1.15054 47.1398 1.39048 47.3247C3.66206 49.0748 6.38159 50 9.25503 50C12.1285 50 14.8479 49.0748 17.1195 47.3246C17.3594 47.1397 17.5 46.854 17.5 46.5511V46.4413C17.5 45.1236 17.0337 43.9128 16.2576 42.9651C18.9578 44.2851 21.923 44.9709 25 44.9709C28.0779 44.9709 31.0424 44.2854 33.7418 42.9657C32.966 43.9133 32.5 45.1239 32.5 46.4413V46.5511C32.5 46.854 32.6405 47.1397 32.8804 47.3246C35.1521 49.0748 37.8716 50 40.7451 50C43.6186 50 46.338 49.0748 48.6096 47.3246C48.8496 47.1397 48.9901 46.854 48.9901 46.5511V46.4413C48.9901 43.9252 47.2901 41.7986 44.9784 41.15C46.0725 40.0616 46.7507 38.5556 46.7507 36.894C46.7507 34.7007 45.5688 32.7781 43.8083 31.7299C44.58 29.5749 44.9709 27.3137 44.9709 25C44.9709 22.8452 44.6312 20.7331 43.9603 18.7106C45.6347 18.2825 47.2076 17.5165 48.6096 16.436C48.8496 16.2513 48.9901 15.9654 48.9901 15.6626ZM40.7451 1.95312C42.9796 1.95312 44.7976 3.77109 44.7976 6.00566C44.7976 8.24023 42.9796 10.0582 40.7451 10.0582C38.5105 10.0582 36.6924 8.24023 36.6924 6.00566C36.6924 3.77109 38.5105 1.95312 40.7451 1.95312ZM9.25503 1.95312C11.4896 1.95312 13.3076 3.77109 13.3076 6.00566C13.3076 8.24023 11.4896 10.0582 9.25503 10.0582C7.02046 10.0582 5.20249 8.24023 5.20249 6.00566C5.20249 3.77109 7.02056 1.95312 9.25503 1.95312ZM6.50454 12.0113H12.0054C13.8334 12.0113 15.3423 13.4034 15.5277 15.1831C13.6851 16.4771 11.5269 17.1585 9.25503 17.1585C6.98315 17.1585 4.82485 16.4771 2.98228 15.1831C3.16772 13.4034 4.67661 12.0113 6.50454 12.0113ZM9.25503 32.8415C11.4896 32.8415 13.3076 34.6595 13.3076 36.894C13.3076 39.1286 11.4896 40.9466 9.25503 40.9466C7.02046 40.9466 5.20249 39.1286 5.20249 36.894C5.20249 34.6595 7.02056 32.8415 9.25503 32.8415ZM9.25503 48.0469C6.98306 48.0469 4.82485 47.3655 2.98228 46.0716C3.16763 44.2918 4.67661 42.8998 6.50454 42.8998H12.0054C13.8334 42.8998 15.3423 44.2919 15.5277 46.0716C13.6852 47.3655 11.527 48.0469 9.25503 48.0469ZM47.0178 46.0716C45.1752 47.3655 43.0169 48.0469 40.7451 48.0469C38.4732 48.0469 36.315 47.3655 34.4724 46.0716C34.6578 44.2918 36.1667 42.8998 37.9947 42.8998H43.4956C45.3235 42.8998 46.8324 44.2919 47.0178 46.0716ZM40.7451 40.9466C38.5105 40.9466 36.6925 39.1286 36.6925 36.894C36.6925 34.6595 38.5105 32.8415 40.7451 32.8415C42.9796 32.8415 44.7976 34.6595 44.7976 36.894C44.7976 39.1286 42.9795 40.9466 40.7451 40.9466ZM43.0178 25C43.0178 27.0689 42.6718 29.0906 41.9887 31.0179C41.5874 30.933 41.1712 30.8884 40.745 30.8884C37.4334 30.8884 34.7393 33.5825 34.7393 36.894C34.7393 37.904 34.9899 38.8564 35.4322 39.6927C32.3758 41.8703 28.783 43.0178 25 43.0178C21.2188 43.0178 17.6247 41.87 14.5679 39.6926C15.0101 38.8564 15.2607 37.9039 15.2607 36.894C15.2607 33.5825 12.5666 30.8884 9.25503 30.8884C8.82876 30.8884 8.41274 30.933 8.01128 31.0179C7.32827 29.0906 6.98228 27.0689 6.98228 25C6.98228 22.9557 7.32007 20.9574 7.98716 19.0509C8.40571 19.0913 8.82866 19.1116 9.25503 19.1116C12.1286 19.1116 14.848 18.1864 17.1195 16.4361C17.3594 16.2513 17.5 15.9655 17.5 15.6626V15.5528C17.5 13.3228 16.1645 11.3987 14.2513 10.5385C17.3467 8.23545 21.1083 6.98223 25 6.98223C28.8898 6.98223 32.6533 8.23584 35.7487 10.5384C33.8355 11.3986 32.5 13.3227 32.5 15.5527V15.6625C32.5 15.9654 32.6406 16.2512 32.8805 16.436C35.152 18.1864 37.8714 19.1115 40.745 19.1115C41.1712 19.1115 41.5942 19.0912 42.0127 19.0508C42.6798 20.9578 43.0178 22.9572 43.0178 25ZM40.7451 17.1585C38.4731 17.1585 36.315 16.4771 34.4724 15.1831C34.6578 13.4033 36.1667 12.0113 37.9947 12.0113H43.4956C45.3236 12.0113 46.8325 13.4034 47.0178 15.1831C45.1752 16.4772 43.0169 17.1585 40.7451 17.1585Z" fill="#7899D4"/>
<path d="M24.3048 28.3875C24.0844 28.3875 23.869 28.3129 23.6947 28.1735L22.0094 26.8252C21.5882 26.4883 21.5199 25.8737 21.8569 25.4525C22.1937 25.0314 22.8084 24.963 23.2295 25.3L24.0977 25.9944L26.5356 22.473C26.8427 22.0297 27.4509 21.9192 27.8944 22.2261C28.3378 22.5331 28.4484 23.1414 28.1413 23.5849L25.1077 27.9667C24.9536 28.1893 24.7141 28.3379 24.4462 28.3771C24.399 28.3841 24.3518 28.3875 24.3048 28.3875Z" fill="#7899D4"/>
</svg>
