<svg width="50" height="50" viewBox="0 0 50 50" fill="none" xmlns="http://www.w3.org/2000/svg">
<g clip-path="url(#clip0_2601_31)">
<path d="M30.3791 19.621C29.9976 19.2396 29.3795 19.2396 28.9979 19.621L27.6171 21.0018C27.2357 21.3832 27.2357 22.0015 27.6171 22.383C27.9985 22.7643 28.6168 22.7643 28.9982 22.383L30.3791 21.0021C30.7604 20.6208 30.7604 20.0024 30.3791 19.621Z" fill="#7899D4"/>
<path d="M8.2813 33.4314C7.90005 33.0501 7.28159 33.0501 6.90024 33.4315L0.285998 40.0467C-0.0953489 40.4282 -0.0953489 41.0464 0.286096 41.4279C0.667443 41.8092 1.2858 41.8092 1.66715 41.4278L8.28139 34.8125C8.66274 34.4311 8.66274 33.8128 8.2813 33.4314Z" fill="#7899D4"/>
<path d="M8.756 41.7187C8.37475 41.3373 7.7563 41.3373 7.37495 41.7186L0.759728 48.3328C0.378284 48.7142 0.378284 49.3325 0.759631 49.7139C1.14078 50.0952 1.75924 50.0954 2.14068 49.714L8.7559 43.0997C9.13735 42.7184 9.13735 42.1 8.756 41.7187Z" fill="#7899D4"/>
<path d="M9.6633 26.5264C9.28205 26.145 8.66379 26.145 8.28224 26.5262L5.51956 29.2879C5.13811 29.6692 5.13801 30.2875 5.51926 30.669C5.90041 31.0502 6.51867 31.0506 6.90031 30.6692L9.663 27.9075C10.0444 27.5262 10.0445 26.9079 9.6633 26.5264Z" fill="#7899D4"/>
<path d="M16.5685 41.7187C16.1873 41.3373 15.5689 41.3373 15.1874 41.7186L8.57223 48.3328C8.19078 48.7142 8.19078 49.3325 8.57213 49.7139C8.95328 50.0952 9.57174 50.0954 9.95318 49.714L16.5684 43.0997C16.9498 42.7184 16.9498 42.1 16.5685 41.7187Z" fill="#7899D4"/>
<path d="M23.4737 40.3367C23.0921 39.9554 22.4738 39.9556 22.0925 40.3369L19.3308 43.0996C18.9495 43.4811 18.9496 44.0994 19.331 44.4807C19.7125 44.8619 20.3309 44.8619 20.7121 44.4805L23.4739 41.7178C23.8551 41.3363 23.855 40.718 23.4737 40.3367Z" fill="#7899D4"/>
<path d="M49.7137 0.286029C49.5219 0.0943301 49.2602 -0.00957598 48.9882 0.000677904C48.7674 0.00858805 43.51 0.219916 37.2605 2.4288C32.2527 4.19696 28.0786 6.7285 24.8541 9.9531C24.1316 10.6757 23.4284 11.4419 22.7557 12.2379C19.5674 10.3611 17.0125 10.9496 15.3974 11.8139C11.6786 13.8042 9.37671 19.2081 9.37671 23.0733C9.377 23.4682 9.61499 23.8244 9.97983 23.9754C10.1006 24.0255 10.2276 24.0498 10.3534 24.0498C10.6076 24.0498 10.8573 23.9505 11.0441 23.7638C13.0053 21.8026 15.4244 21.9252 16.2146 22.0292L16.5566 22.3711C15.8835 23.9727 15.3413 25.5653 14.9437 27.1142C14.8001 27.6747 14.8486 28.2679 15.062 28.8105C14.1217 29.2438 13.2146 29.88 12.4248 30.6699C9.91099 33.1837 9.40054 39.3101 9.38003 39.5696C9.35757 39.8545 9.46089 40.135 9.66294 40.337C9.84683 40.5208 10.0956 40.6231 10.3534 40.6231C10.379 40.6231 10.4046 40.6221 10.4303 40.62C10.6899 40.5996 16.8164 40.0892 19.3302 37.5754C20.1198 36.7859 20.7559 35.8788 21.1892 34.9388C21.7636 35.1647 22.3548 35.1925 22.8864 35.0563C24.4347 34.6587 26.0271 34.1167 27.6288 33.4436L27.9708 33.7856C28.0746 34.5759 28.1973 36.9949 26.2361 38.956C25.9569 39.2353 25.8734 39.6553 26.0245 40.0201C26.1756 40.3851 26.5317 40.623 26.9267 40.623C30.7919 40.623 36.1957 38.3211 38.1859 34.6023C39.0503 32.9873 39.6388 30.4325 37.762 27.2441C38.5576 26.5716 39.3239 25.8685 40.0468 25.1456C43.2714 21.921 45.8028 17.7469 47.571 12.7395C49.7799 6.48973 49.9912 1.23232 49.9991 1.01161C50.0089 0.740618 49.9054 0.477825 49.7137 0.286029ZM11.5601 20.9728C12.1667 18.037 13.9288 14.8154 16.3194 13.5359C17.9169 12.681 19.6631 12.7648 21.5198 13.7811C19.938 15.8614 18.5629 18.1026 17.4167 20.4693C17.4022 20.4603 17.2264 20.2393 16.8998 20.1657C16.7656 20.1353 14.1817 19.5795 11.5601 20.9728ZM17.9492 36.1943C16.6064 37.537 13.4565 38.2452 11.4656 38.5344C11.7548 36.5434 12.4631 33.3936 13.8058 32.0509C14.5578 31.299 15.4296 30.7288 16.306 30.4077L19.5923 33.6941C19.2712 34.5704 18.7012 35.4423 17.9492 36.1943ZM22.4013 33.1643C22.1187 33.2366 21.7913 33.1304 21.548 32.8874C20.2846 31.6241 19.7904 31.1298 19.6353 30.9748C19.3509 30.6905 18.6535 29.9931 17.1132 28.4527C16.8697 28.2086 16.7634 27.8814 16.8356 27.5993C17.1484 26.3811 17.5575 25.1313 18.0549 23.8695L26.1306 31.9451C24.8686 32.4427 23.619 32.8517 22.4013 33.1643ZM36.4642 33.6807C35.1847 36.0712 31.9632 37.8333 29.0275 38.4399C29.9635 36.6784 30.1698 34.4362 29.8278 33.0765C29.7484 32.7607 29.5424 32.6019 29.5309 32.5832C31.8974 31.437 34.1385 30.0619 36.2189 28.4802C37.2352 30.337 37.3189 32.0834 36.4642 33.6807ZM38.6659 23.7646C37.7859 24.6445 36.8384 25.4946 35.8495 26.2912C33.4724 28.2052 30.856 29.8265 28.0646 31.1171L18.8829 21.9357C20.1736 19.1441 21.7948 16.5277 23.7087 14.1508C24.506 13.1613 25.356 12.2136 26.2356 11.3342C29.1286 8.44099 32.8624 6.13846 37.3362 4.48104L45.519 12.6638C43.8618 17.1376 41.5593 20.8713 38.6659 23.7646ZM46.2217 10.6042L39.3959 3.77841C43.1147 2.62333 46.35 2.19081 47.9648 2.03534C47.8093 3.65048 47.3766 6.88572 46.2217 10.6042Z" fill="#7899D4"/>
<path d="M38.6652 11.3349C36.757 9.42684 33.668 9.42674 31.7597 11.3349C29.8565 13.2382 29.8564 16.3358 31.76 18.2406C33.6639 20.1433 36.7615 20.1441 38.6652 18.2404C40.5732 16.3324 40.5736 13.2432 38.6652 11.3349ZM37.2842 16.8592C36.1423 18.0012 34.2835 18.0012 33.141 16.8594C31.9989 15.7167 31.9989 13.8579 33.1408 12.716C34.2857 11.5712 36.1392 11.571 37.2842 12.716C38.429 13.8607 38.4292 15.7143 37.2842 16.8592Z" fill="#7899D4"/>
<path d="M26.2363 23.7647C25.8545 23.3829 25.2363 23.3829 24.8545 23.7647C24.4736 24.1456 24.4736 24.7637 24.8545 25.1456C25.2363 25.5264 25.8545 25.5264 26.2363 25.1456C26.6172 24.7637 26.6172 24.1456 26.2363 23.7647Z" fill="#7899D4"/>
</g>
<defs>
<clipPath id="clip0_2601_31">
<rect width="50" height="50" fill="white"/>
</clipPath>
</defs>
</svg>
