<svg width="52" height="52" viewBox="0 0 52 52" fill="none" xmlns="http://www.w3.org/2000/svg">
<g clip-path="url(#clip0_1847_1978)">
<path d="M26 0C11.664 0 0 11.663 0 26C0 40.337 11.664 52 26 52C40.336 52 52 40.337 52 26C52 11.663 40.336 0 26 0ZM26 50C12.767 50 2 39.233 2 26C2 12.767 12.767 2 26 2C39.233 2 50 12.767 50 26C50 39.233 39.233 50 26 50Z" fill="#DC5C5B"/>
<path d="M35.7073 16.293C35.3162 15.902 34.6842 15.902 34.2932 16.293L26.0003 24.586L17.7073 16.293C17.3163 15.902 16.6842 15.902 16.2932 16.293C15.9022 16.684 15.9022 17.316 16.2932 17.707L24.5863 26L16.2932 34.293C15.9022 34.684 15.9022 35.316 16.2932 35.707C16.4882 35.902 16.7443 36 17.0003 36C17.2563 36 17.5123 35.902 17.7073 35.707L26.0003 27.414L34.2932 35.707C34.4882 35.902 34.7442 36 35.0002 36C35.2563 36 35.5123 35.902 35.7073 35.707C36.0983 35.316 36.0983 34.684 35.7073 34.293L27.4143 26L35.7073 17.707C36.0983 17.316 36.0983 16.684 35.7073 16.293Z" fill="#DC5C5B"/>
</g>
<defs>
<clipPath id="clip0_1847_1978">
<rect width="52" height="52" fill="white"/>
</clipPath>
</defs>
</svg>
