<svg width="60" height="61" viewBox="0 0 60 61" fill="none" xmlns="http://www.w3.org/2000/svg">
<rect x="3.75" y="4.04834" width="52.5" height="52.5" fill="#FFCA28"/>
<path d="M35.625 47.7127L39.4904 45.155C39.7933 46.1067 41.7115 48.367 44.1346 48.367C46.5577 48.367 47.6827 47.0435 47.6827 46.1662C47.6827 43.7752 45.2085 42.9322 44.0201 42.5273C43.8263 42.4613 43.6668 42.4069 43.5577 42.3594C43.5018 42.335 43.4172 42.3027 43.3085 42.2612C41.9868 41.7562 37.1106 39.8932 37.1106 34.493C37.1106 28.5449 42.851 27.8608 44.149 27.8608C44.9983 27.8608 49.0817 27.9649 51.1154 31.7866L47.3654 34.4038C46.5433 32.7383 45.1773 32.1881 44.3365 32.1881C42.2596 32.1881 41.8269 33.7107 41.8269 34.4038C41.8269 36.3486 44.0834 37.2202 45.9888 37.9562C46.4872 38.1488 46.9617 38.3321 47.3654 38.5228C49.4423 39.5043 52.5 41.1103 52.5 46.1662C52.5 48.6985 50.376 52.7983 45.0288 52.7983C37.8462 52.7983 35.9423 48.486 35.625 47.7127Z" fill="#3E3E3E"/>
<path d="M16.875 48.2206L20.9038 45.6642C21.2195 46.6154 22.4461 48.3692 24.226 48.3692C26.0059 48.3692 26.9168 46.5411 26.9168 45.6642V28.4234H31.8716V45.6642C31.9518 48.0423 30.6329 52.7984 24.8123 52.7984C19.4606 52.7984 17.2358 49.6177 16.875 48.2206Z" fill="#3E3E3E"/>
</svg>
