<svg width="85" height="34" viewBox="0 0 85 34" fill="none" xmlns="http://www.w3.org/2000/svg">
<path d="M70.1297 14.5427C62.3176 7.51121 53.261 -0.266969 42.0321 0.168608C36.873 0.372255 32.0308 2.49923 27.8051 5.34463C23.0571 8.64803 18.6444 12.409 14.6303 16.5735C9.91813 21.2856 5.26254 26.0657 0.589981 30.8174C-0.959998 32.3674 1.46114 34.7999 3.00546 33.2329C6.99354 29.177 10.9703 25.121 14.9641 21.082C18.8124 16.9934 22.9734 13.2107 27.4091 9.76829C31.2445 6.93986 35.5493 4.43388 40.335 3.75505C44.7474 3.12149 49.2785 4.25851 53.244 6.1875C58.7085 8.84622 63.2566 12.9418 67.7312 16.9751C69.3434 18.4176 71.7702 16.0135 70.1297 14.5427ZM84.6848 28.4529C84.6615 27.6795 84.4581 26.9221 84.0908 26.241L83.033 23.6559L81.0022 18.6609L76.3635 7.23402C76.1381 6.84146 75.767 6.5536 75.3307 6.43287C74.8944 6.31215 74.4281 6.3683 74.0329 6.58914C73.649 6.82115 73.3686 7.19161 73.2497 7.62417C73.1308 8.05672 73.1823 8.51842 73.3937 8.91411L77.4893 18.9381L79.4522 23.7633L80.4365 26.1732L80.5779 26.4843L79.7181 26.2128C78.615 25.8677 77.5232 25.4887 76.3975 25.1549C74.3769 24.493 72.3201 23.9472 70.2372 23.5201C65.9789 22.675 61.6396 22.3088 57.2999 22.4283C55.0994 22.4906 55.1051 25.8903 57.2999 25.8224C63.5965 25.6653 69.8736 26.5855 75.8601 28.5434C77.4836 29.0355 79.0392 29.6182 80.6684 30.0368C81.377 30.2899 82.1289 30.3995 82.8802 30.3592C83.3537 30.2958 83.7911 30.072 84.1195 29.7251C84.4479 29.3782 84.6474 28.9291 84.6848 28.4529Z" fill="#FFFCE1"/>
</svg>
