<svg width="50" height="50" viewBox="0 0 50 50" fill="none" xmlns="http://www.w3.org/2000/svg">
<g clip-path="url(#clip0_874_2086)">
<path d="M26.2378 23.7646C25.856 23.3828 25.2378 23.3828 24.856 23.7646C24.4751 24.1455 24.4751 24.7637 24.856 25.1455C25.2378 25.5264 25.856 25.5264 26.2378 25.1455C26.6186 24.7637 26.6186 24.1455 26.2378 23.7646Z" fill="#7899D4"/>
<path d="M38.665 11.3349C36.7568 9.42682 33.6677 9.42672 31.7594 11.3349C29.8562 13.2381 29.8561 16.3358 31.7597 18.2406C33.6636 20.1433 36.7613 20.1441 38.665 18.2404C40.573 16.3324 40.5734 13.2432 38.665 11.3349ZM37.2839 16.8592C36.1421 18.0012 34.2833 18.0012 33.1408 16.8594C31.9987 15.7167 31.9986 13.8579 33.1406 12.716C34.2854 11.5712 36.1389 11.571 37.2839 12.716C38.4288 13.8607 38.429 15.7143 37.2839 16.8592Z" fill="#7899D4"/>
<path d="M49.712 0.286044C49.5202 0.0943453 49.2585 -0.00956072 48.9864 0.000693163C48.7656 0.0086033 43.5083 0.219931 37.2588 2.42881C32.251 4.19697 28.0769 6.72851 24.8524 9.95312C24.1299 10.6757 23.4267 11.4419 22.754 12.2379C19.5657 10.3611 17.0108 10.9496 15.3957 11.814C11.6769 13.8042 9.375 19.2081 9.375 23.0733C9.37529 23.4682 9.61328 23.8244 9.97812 23.9755C10.0989 24.0255 10.2259 24.0499 10.3517 24.0499C10.6059 24.0499 10.8556 23.9505 11.0424 23.7638C13.0036 21.8026 15.4226 21.9253 16.2129 22.0292L16.5549 22.3712C15.8818 23.9727 15.3396 25.5653 14.942 27.1142C14.7984 27.6748 14.8469 28.2679 15.0602 28.8105C14.12 29.2438 13.2129 29.88 12.423 30.6699C9.90928 33.1837 9.39883 39.3101 9.37832 39.5697C9.35586 39.8545 9.45918 40.135 9.66123 40.337C9.84512 40.5208 10.0938 40.6231 10.3517 40.6231C10.3772 40.6231 10.4029 40.6221 10.4286 40.62C10.6882 40.5996 16.8147 40.0892 19.3285 37.5754C20.118 36.7859 20.7542 35.8788 21.1875 34.9388C21.7619 35.1647 22.3531 35.1925 22.8847 35.0563C24.433 34.6587 26.0254 34.1167 27.6271 33.4436L27.9691 33.7856C28.0729 34.5759 28.1956 36.995 26.2344 38.956C25.9552 39.2353 25.8716 39.6553 26.0228 40.0201C26.1739 40.3851 26.5299 40.623 26.925 40.623C30.7902 40.623 36.194 38.3211 38.1842 34.6023C39.0486 32.9874 39.637 30.4325 37.7603 27.2441C38.5559 26.5716 39.3222 25.8685 40.0451 25.1457C43.2697 21.9211 45.8011 17.7469 47.5693 12.7395C49.7782 6.48974 49.9895 1.23233 49.9974 1.01163C50.0071 0.740633 49.9037 0.477841 49.712 0.286044ZM11.5584 20.9728C12.165 18.037 13.927 14.8154 16.3177 13.5359C17.9152 12.681 19.6614 12.7648 21.518 13.7811C19.9363 15.8614 18.5612 18.1026 17.415 20.4693C17.4005 20.4603 17.2247 20.2393 16.8981 20.1657C16.7639 20.1353 14.18 19.5796 11.5584 20.9728ZM17.9474 36.1943C16.6047 37.537 13.4548 38.2452 11.4639 38.5344C11.7531 36.5434 12.4614 33.3936 13.8041 32.0509C14.556 31.299 15.4279 30.7289 16.3043 30.4078L19.5906 33.6941C19.2695 34.5705 18.6995 35.4423 17.9474 36.1943ZM22.3996 33.1643C22.117 33.2367 21.7896 33.1304 21.5463 32.8874C20.2829 31.6241 19.7887 31.1298 19.6336 30.9749C19.3492 30.6905 18.6518 29.9931 17.1115 28.4527C16.868 28.2086 16.7617 27.8814 16.8339 27.5993C17.1467 26.3811 17.5557 25.1313 18.0532 23.8695L26.1289 31.9452C24.8669 32.4427 23.6173 32.8517 22.3996 33.1643ZM36.4624 33.6807C35.183 36.0712 31.9615 37.8333 29.0257 38.4399C29.9618 36.6785 30.1681 34.4362 29.8261 33.0765C29.7467 32.7607 29.5407 32.6019 29.5292 32.5832C31.8957 31.4371 34.1368 30.062 36.2172 28.4802C37.2335 30.3371 37.3172 32.0834 36.4624 33.6807ZM38.6642 23.7646C37.7842 24.6445 36.8367 25.4946 35.8478 26.2912C33.4707 28.2052 30.8543 29.8265 28.0629 31.1171L18.8812 21.9357C20.1719 19.1441 21.7931 16.5277 23.707 14.1509C24.5043 13.1613 25.3543 12.2137 26.2339 11.3342C29.1269 8.44101 32.8607 6.13847 37.3345 4.48106L45.5173 12.6639C43.8601 17.1376 41.5576 20.8714 38.6642 23.7646ZM46.2199 10.6042L39.3942 3.77842C43.113 2.62334 46.3483 2.19083 47.9631 2.03536C47.8075 3.65049 47.3749 6.88574 46.2199 10.6042Z" fill="#7899D4"/>
<path d="M23.4756 40.3367C23.0941 39.9553 22.4757 39.9555 22.0945 40.3369L19.3328 43.0996C18.9515 43.481 18.9516 44.0994 19.3329 44.4806C19.7145 44.8619 20.3328 44.8619 20.7141 44.4804L23.4758 41.7177C23.8571 41.3363 23.857 40.7179 23.4756 40.3367Z" fill="#7899D4"/>
<path d="M9.66427 26.5263C9.28302 26.1449 8.66476 26.1449 8.28322 26.5261L5.52053 29.2879C5.13909 29.6691 5.13899 30.2875 5.52024 30.6689C5.90139 31.0502 6.51965 31.0506 6.90129 30.6691L9.66398 27.9074C10.0454 27.5261 10.0455 26.9078 9.66427 26.5263Z" fill="#7899D4"/>
<path d="M16.5675 41.7186C16.1864 41.3373 15.5679 41.3373 15.1865 41.7185L8.57125 48.3328C8.18981 48.7141 8.18981 49.3325 8.57115 49.7138C8.95231 50.0952 9.57076 50.0954 9.95221 49.7139L16.5674 43.0997C16.9489 42.7183 16.9489 42.1 16.5675 41.7186Z" fill="#7899D4"/>
<path d="M8.75503 41.7186C8.37378 41.3373 7.75532 41.3373 7.37397 41.7185L0.758752 48.3328C0.377307 48.7141 0.377307 49.3325 0.758654 49.7138C1.13981 50.0952 1.75826 50.0954 2.13971 49.7139L8.75493 43.0997C9.13637 42.7183 9.13637 42.1 8.75503 41.7186Z" fill="#7899D4"/>
<path d="M8.2813 33.4314C7.90005 33.0502 7.28159 33.0502 6.90024 33.4315L0.285998 40.0468C-0.0953489 40.4282 -0.0953489 41.0465 0.286096 41.4279C0.667443 41.8092 1.2858 41.8092 1.66715 41.4278L8.28139 34.8126C8.66274 34.4311 8.66274 33.8129 8.2813 33.4314Z" fill="#7899D4"/>
<path d="M30.38 19.621C29.9986 19.2396 29.3804 19.2396 28.9989 19.621L27.618 21.0018C27.2367 21.3832 27.2367 22.0015 27.618 22.383C27.9995 22.7643 28.6177 22.7643 28.9992 22.383L30.38 21.0021C30.7614 20.6208 30.7614 20.0024 30.38 19.621Z" fill="#7899D4"/>
</g>
<defs>
<clipPath id="clip0_874_2086">
<rect width="50" height="50" fill="white"/>
</clipPath>
</defs>
</svg>
