<svg width="22" height="22" viewBox="0 0 22 22" fill="none" xmlns="http://www.w3.org/2000/svg">
<path d="M14.9709 12.2008C14.5415 11.9436 13.9827 11.6567 13.4771 11.864C13.0888 12.0231 12.8415 12.6301 12.5898 12.9405C12.4609 13.0996 12.3068 13.1248 12.1083 13.0447C10.6517 12.4645 9.53521 11.4917 8.73126 10.152C8.59526 9.94356 8.61939 9.77959 8.7839 9.58655C9.02684 9.30084 9.33175 8.97619 9.39756 8.59067C9.46337 8.20515 9.2824 7.75491 9.12281 7.41161C8.91936 6.9729 8.69177 6.34773 8.25251 6.09985C7.84834 5.87172 7.31694 5.99949 6.9572 6.29234C6.33641 6.79796 6.03699 7.58984 6.04577 8.37515C6.04796 8.59834 6.07592 8.82099 6.12802 9.03596C6.25306 9.5542 6.49271 10.0373 6.76197 10.4974C6.96488 10.844 7.18588 11.1807 7.42388 11.5043C8.20316 12.5627 9.17272 13.4824 10.2947 14.17C10.8557 14.5133 11.4595 14.815 12.0852 15.0217C12.7866 15.2537 13.4118 15.495 14.1697 15.3507C14.9627 15.1999 15.7447 14.7091 16.0595 13.9452C16.1527 13.7187 16.1993 13.467 16.1472 13.2279C16.0397 12.7338 15.3707 12.4399 14.9709 12.2008Z" fill="#7899D4"/>
<path d="M11.092 0.317383C5.33933 0.317383 0.659322 4.9974 0.659322 10.7501C0.659322 12.5093 1.11065 14.2434 1.9678 15.7898L0.453125 21.4399L6.13231 19.9187C7.65905 20.7468 9.36456 21.1828 11.0915 21.1828C16.8441 21.1828 21.5241 16.5027 21.5241 10.7501C21.5247 4.9974 16.8447 0.317383 11.092 0.317383ZM11.092 19.2107C9.57953 19.2107 8.0857 18.7972 6.77284 18.0147L6.41529 17.8013L3.24281 18.6514L4.08789 15.4964L3.86853 15.1361C3.0591 13.8068 2.63135 12.29 2.63135 10.7495C2.63135 6.08431 6.4268 2.28887 11.092 2.28887C15.7572 2.28887 19.5527 6.08431 19.5527 10.7495C19.5527 15.4147 15.7572 19.2107 11.092 19.2107Z" fill="#7899D4"/>
</svg>
