<svg width="40" height="41" viewBox="0 0 40 41" fill="none" xmlns="http://www.w3.org/2000/svg">
<g clip-path="url(#clip0_936_792)">
<path d="M9.34973 19.796L13.9121 21.5739L15.678 27.5037C15.791 27.8834 16.2357 28.0238 16.5309 27.7718L19.0741 25.6072C19.3406 25.3804 19.7203 25.369 19.9989 25.5802L24.5858 29.0574C24.9016 29.297 25.349 29.1163 25.4282 28.7179L28.7883 11.8418C28.8749 11.4065 28.4653 11.0434 28.0683 11.2037L9.34438 18.7456C8.88232 18.9316 8.88634 19.6148 9.34973 19.796ZM15.3934 20.6275L24.3098 14.8935C24.4701 14.7908 24.635 15.017 24.4974 15.1503L17.1387 22.2923C16.88 22.5438 16.7132 22.8802 16.6659 23.2454L16.4152 25.185C16.3821 25.4439 16.0336 25.4697 15.9652 25.219L15.0011 21.6821C14.8907 21.2787 15.0516 20.8478 15.3934 20.6275Z" fill="#7899D4"/>
<path d="M20 40.165C8.97177 40.165 0 31.1932 0 20.165C0 9.13679 8.97177 0.165039 20 0.165039C31.0282 0.165039 40 9.13679 40 20.165C40 31.1932 31.0277 40.165 20 40.165ZM20 1.70384C9.82013 1.70384 1.53825 9.98571 1.53825 20.1655C1.53825 30.3455 9.82013 38.6273 20 38.6273C30.1798 38.6273 38.4618 30.3455 38.4618 20.1655C38.4612 9.98571 30.1798 1.70384 20 1.70384Z" fill="#7899D4"/>
</g>
<defs>
<clipPath id="clip0_936_792">
<rect width="40" height="40" fill="white" transform="translate(0 0.165039)"/>
</clipPath>
</defs>
</svg>
