<svg width="50" height="50" viewBox="0 0 50 50" fill="none" xmlns="http://www.w3.org/2000/svg">
<g clip-path="url(#clip0_874_2144)">
<path d="M18.1423 38.5H16.2031C15.9399 38.5 15.7266 38.2867 15.7266 38.0234C15.7266 37.7602 15.9399 37.5469 16.2031 37.5469H18.1423C18.4055 37.5469 18.6188 37.7602 18.6188 38.0234C18.6188 38.2867 18.4055 38.5 18.1423 38.5Z" fill="#161414" stroke="#7899D4"/>
<path d="M7.37676 38.5H5.4375C5.17429 38.5 4.96094 38.2867 4.96094 38.0234C4.96094 37.7602 5.17429 37.5469 5.4375 37.5469H7.37676C7.63997 37.5469 7.85332 37.7602 7.85332 38.0234C7.85332 38.2867 7.63997 38.5 7.37676 38.5Z" fill="#161414" stroke="#7899D4"/>
<path d="M11.3613 38.192L11.3614 38.1921C11.4288 38.372 11.6133 38.5 11.8072 38.5C12.0328 38.5 12.2384 38.3267 12.2771 38.0989L12.2771 38.0989C12.3089 37.9114 12.2131 37.7081 12.0458 37.6122L12.0457 37.6121C11.8712 37.512 11.6437 37.5342 11.491 37.6668L11.3613 38.192ZM11.3613 38.192C11.2926 38.0086 11.3481 37.7911 11.491 37.6668L11.3613 38.192Z" fill="#161414" stroke="#7899D4"/>
<path d="M44.5633 17.604H31.8555C31.5923 17.604 31.3789 17.3907 31.3789 17.1274C31.3789 16.8642 31.5923 16.6509 31.8555 16.6509H44.5632C44.8264 16.6509 45.0397 16.8642 45.0397 17.1274C45.0397 17.3907 44.8264 17.604 44.5633 17.604Z" fill="#161414" stroke="#7899D4"/>
<path d="M44.5633 12.4531H31.8555C31.5923 12.4531 31.3789 12.2398 31.3789 11.9766C31.3789 11.7133 31.5923 11.5 31.8555 11.5H44.5632C44.8264 11.5 45.0397 11.7133 45.0397 11.9766C45.0397 12.2398 44.8264 12.4531 44.5633 12.4531Z" fill="#161414" stroke="#7899D4"/>
<path d="M44.5633 7.30225H31.8555C31.5923 7.30225 31.3789 7.0889 31.3789 6.82568C31.3789 6.56247 31.5923 6.34912 31.8555 6.34912H44.5632C44.8264 6.34912 45.0397 6.56247 45.0397 6.82568C45.0397 7.08893 44.8264 7.30225 44.5633 7.30225Z" fill="#161414" stroke="#7899D4"/>
<path d="M34.6379 23.8981L34.4915 23.7517H34.2844H27.3945C27.1313 23.7517 26.918 23.5383 26.918 23.2751V0.976562C26.918 0.713349 27.1313 0.5 27.3945 0.5H49.022C49.2852 0.5 49.4985 0.71335 49.4985 0.976562V23.2751C49.4985 23.5383 49.2852 23.7517 49.022 23.7517H42.1321H41.925L41.7786 23.8981L38.5453 27.1314C38.4522 27.2245 38.331 27.271 38.2083 27.271C38.0856 27.271 37.9645 27.2246 37.8713 27.1314L37.5178 27.485L37.8713 27.1314L34.6379 23.8981ZM27.8712 22.2985V22.7985H28.3712H34.689C34.8153 22.7985 34.9366 22.8488 35.0259 22.9381L35.3795 22.5846L35.0259 22.9381L37.8549 25.7669L38.2084 26.1205L38.562 25.7669L41.3908 22.9381C41.4801 22.8488 41.6013 22.7985 41.7277 22.7985H48.0454H48.5454V22.2985V1.95312V1.45312H48.0454H28.3712H27.8712V1.95312V22.2985Z" fill="#161414" stroke="#7899D4"/>
<path d="M35.8672 38.7293C35.604 38.7293 35.3906 38.516 35.3906 38.2528V37.3069C35.3906 37.0437 35.604 36.8303 35.8672 36.8303C36.1304 36.8303 36.3438 37.0437 36.3438 37.3069V38.2528C36.3438 38.516 36.1304 38.7293 35.8672 38.7293Z" fill="#161414" stroke="#7899D4"/>
<path d="M40.5547 38.7293C40.2915 38.7293 40.0781 38.516 40.0781 38.2528V37.3069C40.0781 37.0437 40.2915 36.8303 40.5547 36.8303C40.8179 36.8303 41.0312 37.0437 41.0312 37.3069V38.2528C41.0312 38.516 40.8179 38.7293 40.5547 38.7293Z" fill="#161414" stroke="#7899D4"/>
<path d="M40.4618 42.6573C40.4617 42.6573 40.4617 42.6574 40.4617 42.6574C40.3685 42.7505 40.2475 42.7969 40.1248 42.7969C40.002 42.7969 39.8809 42.7505 39.7879 42.6574L39.7878 42.6573L35.6063 43.0109C35.225 42.6295 35.225 42.0112 35.6063 41.6297C37.0426 40.1937 39.3793 40.1938 40.8153 41.6297C41.1967 42.0111 41.1967 42.6294 40.8153 43.0109L40.4618 42.6573ZM40.4618 42.6573C40.6479 42.4711 40.6478 42.1693 40.4618 41.9833C39.221 40.7426 37.2009 40.7425 35.9599 41.9832M40.4618 42.6573L35.9599 41.9832M35.9599 41.9832L35.6064 41.6298L35.9599 41.9833C35.7738 42.1695 35.7738 42.4712 35.9598 42.6573M35.9598 42.6573C35.9598 42.6573 35.9599 42.6573 35.9599 42.6573C35.9599 42.6573 35.9598 42.6573 35.9598 42.6573Z" fill="#161414" stroke="#7899D4"/>
<path d="M38.2093 49.5C32.716 49.5 28.2461 45.0302 28.2461 39.5368C28.2461 34.0434 32.716 29.5735 38.2093 29.5735C43.7027 29.5735 48.1726 34.0434 48.1726 39.5368C48.1726 45.0302 43.7026 49.5 38.2093 49.5ZM38.2093 30.5267C33.2407 30.5267 29.1992 34.5681 29.1992 39.5369C29.1992 44.5056 33.2407 48.5469 38.2093 48.5469C43.1779 48.5469 47.2194 44.5055 47.2194 39.5368C47.2194 34.568 43.1779 30.5267 38.2093 30.5267Z" fill="#161414" stroke="#7899D4"/>
<path d="M18.1453 33.3491H5.4375C5.17429 33.3491 4.96094 33.1358 4.96094 32.8726C4.96094 32.6093 5.17429 32.396 5.4375 32.396H18.1452C18.4084 32.396 18.6218 32.6093 18.6218 32.8726C18.6218 33.1358 18.4085 33.3491 18.1453 33.3491Z" fill="#161414" stroke="#7899D4"/>
<path d="M18.1453 43.6509H5.4375C5.17429 43.6509 4.96094 43.4375 4.96094 43.1743C4.96094 42.9111 5.17429 42.6978 5.4375 42.6978H18.1452C18.4084 42.6978 18.6218 42.9111 18.6218 43.1743C18.6218 43.4376 18.4085 43.6509 18.1453 43.6509Z" fill="#161414" stroke="#7899D4"/>
<path d="M7.86641 26.2483H8.07351L8.21996 26.1018L11.4533 22.8685C11.6392 22.6825 11.941 22.6824 12.1272 22.8685C12.1272 22.8686 12.1272 22.8686 12.1273 22.8686L15.3606 26.1018L15.5071 26.2483H15.7142H22.604C22.8672 26.2483 23.0806 26.4616 23.0806 26.7248V49.0233C23.0806 49.0233 23.0806 49.0233 23.0806 49.0234C23.0805 49.2866 22.8671 49.4999 22.6039 49.4999H0.976562C0.713349 49.4999 0.5 49.2866 0.5 49.0234V26.7248C0.5 26.4616 0.713349 26.2483 0.976562 26.2483H7.86641ZM1.45312 48.0468V48.5468H1.95312H21.6273H22.1273V48.0468V27.7014V27.2014H21.6273H15.3096C15.1832 27.2014 15.0619 27.1512 14.9726 27.0618L14.9726 27.0618L12.1437 24.233L11.7901 23.8795L11.4366 24.233L8.60777 27.0618C8.51841 27.1512 8.39723 27.2014 8.2708 27.2014H1.95312H1.45312V27.7014V48.0468Z" fill="#161414" stroke="#7899D4"/>
<path d="M9.44531 9.65586C9.1821 9.65586 8.96875 9.44251 8.96875 9.1793V8.2334C8.96875 7.97019 9.1821 7.75684 9.44531 7.75684C9.70853 7.75684 9.92188 7.97019 9.92188 8.2334V9.1793C9.92188 9.44251 9.70853 9.65586 9.44531 9.65586Z" fill="#161414" stroke="#7899D4"/>
<path d="M14.1328 9.65586C13.8696 9.65586 13.6562 9.44251 13.6562 9.1793V8.2334C13.6562 7.97019 13.8696 7.75684 14.1328 7.75684C14.396 7.75684 14.6094 7.97019 14.6094 8.2334V9.1793C14.6094 9.44251 14.396 9.65586 14.1328 9.65586Z" fill="#161414" stroke="#7899D4"/>
<path d="M9.538 13.5837C10.1582 14.2038 10.9724 14.5143 11.7889 14.5143C12.6054 14.5143 13.4196 14.2038 14.0399 13.5837C14.04 13.5837 14.04 13.5836 14.04 13.5836M9.538 13.5837L14.04 13.5836M9.538 13.5837C9.53799 13.5837 9.53799 13.5836 9.53798 13.5836C9.35194 13.3976 9.35188 13.0958 9.53805 12.9096C9.72402 12.7236 10.0257 12.7234 10.212 12.9096C10.212 12.9096 10.2121 12.9096 10.2121 12.9097L9.538 13.5837ZM14.04 13.5836C14.2261 13.3974 14.226 13.0957 14.04 12.9097M14.04 13.5836L14.04 12.9097M14.04 12.9097C13.8538 12.7235 13.552 12.7236 13.366 12.9096L14.04 12.9097Z" fill="#161414" stroke="#7899D4"/>
<path d="M11.7914 20.4265C6.29811 20.4265 1.82812 15.9566 1.82812 10.4632C1.82812 4.9698 6.29811 0.5 11.7914 0.5C17.2847 0.5 21.7547 4.9699 21.7547 10.4633C21.7547 15.9567 17.2847 20.4265 11.7914 20.4265ZM11.7914 1.45313C6.82279 1.45313 2.78125 5.49456 2.78125 10.4633C2.78125 15.432 6.82269 19.4734 11.7914 19.4734C16.7601 19.4734 20.8016 15.432 20.8016 10.4633C20.8016 5.49456 16.76 1.45313 11.7914 1.45313Z" fill="#161414" stroke="#7899D4"/>
</g>
<defs>
<clipPath id="clip0_874_2144">
<rect width="50" height="50" fill="white"/>
</clipPath>
</defs>
</svg>
