<svg width="40" height="40" viewBox="0 0 40 40" fill="none" xmlns="http://www.w3.org/2000/svg">
<path d="M20 1.125C11.375 1.125 4.375 7.875 4.375 16.1875C4.375 22.5 12.75 32.5 17.6875 37.875C18.3125 38.5625 19.125 38.875 20 38.875C20.875 38.875 21.6875 38.5 22.3125 37.875C27.25 32.5 35.625 22.5 35.625 16.1875C35.625 7.875 28.625 1.125 20 1.125ZM20.25 36C20.125 36.125 19.9375 36.125 19.75 36C13.6875 29.375 7.1875 20.75 7.1875 16.1875C7.1875 9.4375 12.9375 3.9375 20 3.9375C27.0625 3.9375 32.8125 9.4375 32.8125 16.1875C32.8125 20.75 26.3125 29.375 20.25 36Z" fill="#7899D4"/>
<path d="M20 9.8125C16.25 9.8125 13.1875 12.875 13.1875 16.625C13.1875 20.375 16.25 23.5 20 23.5C23.75 23.5 26.8125 20.4375 26.8125 16.6875C26.8125 12.9375 23.75 9.8125 20 9.8125ZM20 20.6875C17.75 20.6875 16 18.875 16 16.6875C16 14.5 17.8125 12.6875 20 12.6875C22.1875 12.6875 24 14.5 24 16.6875C24 18.875 22.25 20.6875 20 20.6875Z" fill="#7899D4"/>
</svg>
