<svg width="50" height="50" viewBox="0 0 50 50" fill="none" xmlns="http://www.w3.org/2000/svg">
<path fill-rule="evenodd" clip-rule="evenodd" d="M35.3763 41.1179C32.3856 43.0471 28.8236 44.1667 25 44.1667C21.1764 44.1667 17.6143 43.0471 14.6237 41.1179C16.4777 37.2508 20.4294 34.5833 25 34.5833C29.5709 34.5833 33.5225 37.2513 35.3763 41.1179ZM38.4282 38.6763C35.8166 33.9513 30.7837 30.75 25 30.75C19.2158 30.75 14.1832 33.9519 11.5717 38.6763C8.03009 35.1985 5.83333 30.3559 5.83333 25C5.83333 14.4145 14.4145 5.83333 25 5.83333C35.5854 5.83333 44.1667 14.4145 44.1667 25C44.1667 30.3559 41.9699 35.1987 38.4282 38.6763ZM48 25C48 37.7026 37.7026 48 25 48C12.2975 48 2 37.7026 2 25C2 12.2975 12.2975 2 25 2C37.7026 2 48 12.2975 48 25ZM25 25C28.1755 25 30.75 22.4255 30.75 19.25C30.75 16.0744 28.1755 13.5 25 13.5C21.8245 13.5 19.25 16.0744 19.25 19.25C19.25 22.4255 21.8245 25 25 25ZM25 28.8333C30.2928 28.8333 34.5833 24.5428 34.5833 19.25C34.5833 13.9573 30.2928 9.66667 25 9.66667C19.7073 9.66667 15.4167 13.9573 15.4167 19.25C15.4167 24.5428 19.7073 28.8333 25 28.8333Z" fill="#7899D4"/>
</svg>
