<svg width="46" height="46" viewBox="0 0 46 46" fill="none" xmlns="http://www.w3.org/2000/svg">
<path d="M12.1191 31.4086V14.485C12.1191 14.3687 12.1656 14.299 12.2819 14.299C13.9865 14.299 15.6917 14.206 17.3968 14.206C21.0158 14.1336 24.581 16.1808 24.581 20.0642C24.581 25.3023 19.9666 26.0851 15.6996 26.0851V31.3621C15.7334 31.5313 15.5791 31.5946 15.4439 31.5946H12.3051C12.1889 31.6411 12.1191 31.5714 12.1191 31.4086ZM15.6996 17.4838V23.0165C16.8132 23.1279 18.0601 23.0899 19.1173 22.7376C20.3186 22.372 20.9773 21.3918 20.9773 20.1572C21.0247 19.1154 20.3963 18.1348 19.4196 17.7628C18.3296 17.3591 16.862 17.2901 15.6996 17.4838Z" fill="#31A8FF"/>
<path d="M34.834 21.994C33.7991 21.4519 32.5774 21.2268 31.4163 21.2268C30.8159 21.2268 29.7656 21.2854 29.7656 22.1102C29.7656 22.876 31.1073 23.3139 31.6488 23.505C32.5323 23.8072 33.3925 24.2024 34.183 24.7138C35.2397 25.4028 35.8803 26.5149 35.8803 27.7824C35.9678 30.6699 32.9616 32.0241 30.4398 31.9668C29.1245 31.9668 27.7327 31.7962 26.5338 31.2229C26.4176 31.1532 26.3478 31.037 26.3478 30.8975V28.0381C26.3478 27.9504 26.4934 27.7945 26.5571 27.9219C27.7597 28.6344 29.1465 28.9417 30.5328 28.9912C31.1674 29.023 32.3463 28.9202 32.3463 28.0614C32.2751 27.2075 30.9887 26.8329 30.3236 26.6201C28.3756 25.9708 26.3246 24.6388 26.3246 22.3659C26.3246 19.5565 29.0448 18.2745 31.5093 18.2745C32.7648 18.2745 33.9265 18.3132 34.9735 18.8091C35.1393 18.8644 35.1595 19.0029 35.1595 19.1578V21.8312C35.1595 21.9981 34.9724 22.0862 34.834 21.994Z" fill="#31A8FF"/>
<path d="M23 45.7983C22.0933 45.7983 21.233 45.4496 20.6053 44.7987L1.49393 25.6899C0.16869 24.3648 0.16869 22.2261 1.49393 20.901L20.6053 1.79214C21.9305 0.467073 24.0695 0.467073 25.3947 1.79214L44.5061 20.901C45.8313 22.2261 45.8313 24.3648 44.5061 25.6899L25.3947 44.7987C24.767 45.4264 23.9067 45.7983 23 45.7983ZM21.2563 44.1478C22.2095 45.1009 23.7672 45.1009 24.7205 44.1478L43.8318 25.0389C44.7851 24.0858 44.7851 22.5283 43.8318 21.5752L24.7205 2.4663C23.7672 1.51318 22.2095 1.51318 21.2563 2.4663L2.14492 21.5752C1.19168 22.5283 1.19168 24.0858 2.14492 25.0389L21.2563 44.1478Z" fill="#31A8FF"/>
</svg>
