<svg width="24" height="24" viewBox="0 0 24 24" fill="none" xmlns="http://www.w3.org/2000/svg">
<path d="M12 24C5.38306 24 0 18.6169 0 12C0 5.38305 5.38306 0 12 0C18.6169 0 24 5.38305 24 12C24 18.6169 18.6166 24 12 24ZM12 0.92328C5.89208 0.92328 0.922948 5.8924 0.922948 12.0003C0.922948 18.1083 5.89208 23.0774 12 23.0774C18.1079 23.0774 23.0771 18.1083 23.0771 12.0003C23.0767 5.8924 18.1079 0.92328 12 0.92328Z" fill="#7899D4"/>
<path d="M18.8882 8.51282C18.8745 8.48799 18.8593 8.46407 18.8426 8.44119L14.6328 11.9152L18.8068 16.7305C18.9322 16.5639 19.0001 16.3611 19.0005 16.1526V8.96375C19.0006 8.8065 18.962 8.65164 18.8882 8.51282Z" fill="#7899D4"/>
<path d="M5.16279 8.44119C5.14608 8.46407 5.13086 8.48799 5.11721 8.51282C5.04166 8.65121 5.0014 8.80609 5 8.96375V16.1526C5.00035 16.3611 5.06833 16.5639 5.19372 16.7305L9.36767 11.9152L5.16279 8.44119Z" fill="#7899D4"/>
<path d="M12.0009 13.1003C12.2798 13.0996 12.5498 13.0017 12.7644 12.8235L18.4783 8.1026C18.3415 8.03379 18.1903 7.99863 18.0372 8.00004H5.9646C5.81095 8.00065 5.65968 8.03805 5.52344 8.10911L11.2374 12.83C11.453 13.0057 11.7228 13.1011 12.0009 13.1003Z" fill="#7899D4"/>
<path d="M13.0723 13.2093C12.7703 13.4598 12.3902 13.5968 11.9979 13.5968C11.6055 13.5968 11.2255 13.4598 10.9235 13.2093L9.74166 12.2326L5.57422 17.0349C5.69632 17.0887 5.82827 17.1164 5.96166 17.1163H18.0342C18.1676 17.1164 18.2995 17.0887 18.4216 17.0349L14.2542 12.2326L13.0723 13.2093Z" fill="#7899D4"/>
</svg>
