<svg width="40" height="41" viewBox="0 0 40 41" fill="none" xmlns="http://www.w3.org/2000/svg">
<path d="M38.0952 18.5952L21.9048 18.5952V2.40477C21.9048 1.35336 21.0534 0.5 20 0.5C18.9466 0.5 18.0952 1.35336 18.0952 2.40477V18.5952H1.90477C0.851406 18.5952 0 19.4486 0 20.5C0 21.5514 0.851406 22.4048 1.90477 22.4048H18.0952L18.0952 38.5952C18.0952 39.6466 18.9466 40.5 20 40.5C21.0534 40.5 21.9048 39.6466 21.9048 38.5952L21.9048 22.4048L38.0952 22.4048C39.1486 22.4048 40 21.5514 40 20.5C40 19.4486 39.1486 18.5952 38.0952 18.5952Z" fill="#7899D4"/>
</svg>
