<svg width="240" height="31" viewBox="0 0 240 31" fill="none" xmlns="http://www.w3.org/2000/svg">
<g filter="url(#filter0_i_874_11467)">
<path d="M0 7.95318V2.63061H11.957V25.1319H24.0721V21.686L31.6368 20.2265V30.8887H4.39226V7.95318H0ZM32.7933 14.6724V9.40209H43.6621V30.8887H36.4162V14.6724H32.7933ZM36.4162 6.56428V0.888672H43.6621V6.56428H36.4162ZM46.2661 14.6724V9.40209H49.889V2.51022H57.1349V9.40209H64.2358V14.6724H57.1349V24.4021L58.8739 25.6183H70.0325V30.8887H56.99L49.889 26.0238V14.6724H46.2661ZM67.6641 14.6724V9.40209H71.2871V2.51022H78.5329V9.40209H85.6345V14.6724H78.5329V24.4021L80.2722 25.6183H91.431V30.8887H78.388L71.2871 26.0238V14.6724H67.6641ZM94.6139 30.8887V2.51022H101.861V25.6183H105.483V30.8887H94.6139ZM105.478 14.6724V9.40209H134.751V20.1454L116.347 23.7941V25.6183H127.506V23.7941L134.751 22.7805V30.8887H109.102V14.6724H105.478ZM116.347 18.5643L127.506 16.4968V14.6724H116.347V18.5643Z" fill="#7899D4"/>
</g>
<g filter="url(#filter1_i_874_11467)">
<path d="M136.13 14.8995V9.43464H144.209L149.241 25.6263L155.03 9.43464H162.805L167.161 25.6263L172.675 9.43464H178.051L172.117 30.8887H162.805L158.516 14.8995L154.228 30.8887H144.918L139.729 14.8995H136.13ZM179.52 14.697V9.43464H209.187V20.1617L190.536 23.8048V25.6263H201.844V23.8048L209.187 22.7928V30.8887H183.193V14.697H179.52ZM190.536 18.5831L201.844 16.5185V14.697H190.536V18.5831ZM210.04 7.81561V2.55322H221.055V8.62502L240 11.8635V30.8887H221.936L220.467 28.8648L218.97 30.8887H213.712V7.81561H210.04ZM221.055 25.6263H232.657V15.7089L221.055 13.685V25.6263Z" fill="#FFFCE1"/>
</g>
<defs>
<filter id="filter0_i_874_11467" x="0" y="0.888672" width="136.751" height="36" filterUnits="userSpaceOnUse" color-interpolation-filters="sRGB">
<feFlood flood-opacity="0" result="BackgroundImageFix"/>
<feBlend mode="normal" in="SourceGraphic" in2="BackgroundImageFix" result="shape"/>
<feColorMatrix in="SourceAlpha" type="matrix" values="0 0 0 0 0 0 0 0 0 0 0 0 0 0 0 0 0 0 127 0" result="hardAlpha"/>
<feOffset dx="2" dy="6"/>
<feGaussianBlur stdDeviation="5"/>
<feComposite in2="hardAlpha" operator="arithmetic" k2="-1" k3="1"/>
<feColorMatrix type="matrix" values="0 0 0 0 0 0 0 0 0 0 0 0 0 0 0 0 0 0 0.15 0"/>
<feBlend mode="normal" in2="shape" result="effect1_innerShadow_874_11467"/>
</filter>
<filter id="filter1_i_874_11467" x="136.13" y="2.55322" width="105.87" height="34.3354" filterUnits="userSpaceOnUse" color-interpolation-filters="sRGB">
<feFlood flood-opacity="0" result="BackgroundImageFix"/>
<feBlend mode="normal" in="SourceGraphic" in2="BackgroundImageFix" result="shape"/>
<feColorMatrix in="SourceAlpha" type="matrix" values="0 0 0 0 0 0 0 0 0 0 0 0 0 0 0 0 0 0 127 0" result="hardAlpha"/>
<feOffset dx="2" dy="6"/>
<feGaussianBlur stdDeviation="5"/>
<feComposite in2="hardAlpha" operator="arithmetic" k2="-1" k3="1"/>
<feColorMatrix type="matrix" values="0 0 0 0 0 0 0 0 0 0 0 0 0 0 0 0 0 0 0.15 0"/>
<feBlend mode="normal" in2="shape" result="effect1_innerShadow_874_11467"/>
</filter>
</defs>
</svg>
