<?xml version="1.0" encoding="utf-8"?><svg viewBox="0 0 51 50" xmlns="http://www.w3.org/2000/svg" xmlns:xlink="http://www.w3.org/1999/xlink"><style>:root>svg{display:none}:root>svg:target{display:block}</style><svg viewBox="0 0 16 16" id="icon-arrow" xmlns="http://www.w3.org/2000/svg"><path d="M16 7H3.83l5.59-5.59L8 0 0 8l8 8 1.41-1.41L3.83 9H16V7Z"/></svg><svg viewBox="0 0 20 20" id="icon-close" xmlns="http://www.w3.org/2000/svg"><path d="M.553.553a1.89 1.89 0 0 0 0 2.673L7.328 10 .553 16.774a1.89 1.89 0 1 0 2.673 2.673L10 12.672l6.774 6.775a1.89 1.89 0 0 0 2.673-2.673L12.672 10l6.775-6.774A1.89 1.89 0 0 0 16.774.553L10 7.328 3.226.553a1.89 1.89 0 0 0-2.673 0Z"/></svg><svg viewBox="0 0 44 48" id="icon-feature-1" xmlns="http://www.w3.org/2000/svg"><path d="M40.202 11.2c.5.5 1.1.5 1.5.1.4-.4.4-1 0-1.4l-1.6-1.6c-.4-.4-1-.4-1.4 0-.4.4-.4 1 0 1.4l.1.1-1.6 1.6c-3.2-3.2-7.4-5.4-12.2-6V2h1.3c.6 0 1-.4 1-1s-.4-1-1-1h-8.5c-.6 0-1 .4-1 1s.4 1 1 1h1.2v3.4c-4.7.7-9 2.9-12.2 6.1l-1.7-1.7.1-.1c.4-.4.4-1 0-1.4-.4-.4-1-.4-1.4 0l-1.6 1.6c-.4.4-.4 1 0 1.4.4.4 1 .4 1.4 0l.1-.1 1.8 1.8c-3.1 3.7-4.9 8.5-4.9 13.6 0 11.8 9.6 21.4 21.4 21.4 11.8 0 21.4-9.6 21.4-21.4 0-5.2-1.9-9.9-4.9-13.7l1.7-1.7ZM21.002 2h2v3.2h-2V2Zm20.4 24.6c0 10.7-8.7 19.4-19.4 19.4s-19.4-8.7-19.4-19.4 8.7-19.4 19.4-19.4 19.4 8.7 19.4 19.4Z"/><path d="M22.002 12c-8 0-14.6 6.5-14.6 14.6 0 8 6.5 14.6 14.6 14.6s14.6-6.5 14.6-14.6c0-8-6.6-14.6-14.6-14.6Zm9.2 15.6h3.3c-.5 6.1-5.4 11-11.5 11.5v-3.3c0-.6-.4-1-1-1s-1 .4-1 1v3.3c-6.1-.5-11-5.4-11.5-11.5h3.3c.6 0 1-.4 1-1s-.4-1-1-1h-3.3c.5-6.1 5.4-11 11.5-11.5v3.3c0 .6.4 1 1 1s1-.4 1-1v-3.3c6.1.5 11 5.4 11.5 11.5h-3.3c-.6 0-1 .4-1 1s.5 1 1 1Z"/><path d="M23 26.2v-3.5c0-.6-.4-1-1-1s-1 .4-1 1v4c0 .3.1.5.3.7l3.2 3.2c.2.2.5.3.7.3.2 0 .5-.1.7-.3.4-.4.4-1 0-1.4l-2.9-3Z"/></svg><svg viewBox="0 0 51 50" id="icon-feature-2" xmlns="http://www.w3.org/2000/svg"><path d="M35.599 26.8c4.5-7.7-1.2-17.3-10-17.3s-14.5 9.5-9.9 17.4c0 0 2.6 3.8 3.9 6.3.3.7.5 1.4.5 2.1v6.4c0 1.2.8 2.3 1.8 2.7V46c0 1.7 1.3 3 3 3h1.4c1.7 0 3-1.3 3-3v-1.5c1.1-.4 1.8-1.5 1.8-2.7v-6.4c0-.7.2-1.4.5-2 1.3-2.7 3.9-6.5 4-6.6Zm-8.3 19.2c0 .6-.4 1-1 1h-1.4c-.6 0-1-.4-1-1v-1.3h3.4V46Zm1.9-4.3c0 .5-.4 1-1 1h-5.2c-.5 0-1-.4-1-1v-1.2h3.6c.6 0 1-.4 1-1s-.4-1-1-1h-3.6v-2.2h7.1v5.4h.1Zm.6-9.3c-.3.6-.5 1.2-.6 1.9h-7.3c-.1-.7-.3-1.4-.6-2-1.3-2.6-3.9-6.4-4-6.5-3.7-6.3.9-14.3 8.3-14.3 7.3 0 11.9 8 8.3 14.2-.1.2-2.8 4-4.1 6.7ZM25.598 6.2c.6 0 1-.4 1-1V2c0-.6-.4-1-1-1s-1 .4-1 1v3.2c0 .6.5 1 1 1ZM38.3 11l2.2-2.3c.4-.4.4-1 0-1.4-.4-.4-1-.4-1.4 0l-2.3 2.3c-.4.4-.4 1 0 1.4.4.4 1.1.4 1.5 0Zm4.098 10.3c-.6 0-1 .4-1 1s.4 1 1 1h3.2c.6 0 1-.4 1-1s-.4-1-1-1h-3.2Zm-33.8-.3h-3.2c-.6 0-1 .4-1 1s.4 1 1 1h3.2c.6 0 1-.4 1-1 0-.5-.5-1-1-1Zm5.699-11.6-2.3-2.3c-.4-.4-1-.4-1.4 0-.4.4-.4 1 0 1.4l2.3 2.3c.4.4 1 .4 1.4 0 .4-.4.4-1 0-1.4Z"/></svg><svg viewBox="0 0 50 50" id="icon-feature-3" xmlns="http://www.w3.org/2000/svg"><path d="M18.5 1C13.3 1 9 5.2 9 10.4s4.2 11.4 9.5 11.4S28 15.6 28 10.4c.1-5.2-4.2-9.4-9.5-9.4Zm0 18.8c-4 0-7.5-5.2-7.5-9.4C11 6.3 14.4 3 18.5 3S26 6.3 26 10.4c.1 4.2-3.4 9.4-7.5 9.4ZM1 48c0 .6.4 1 1 1h33.1c.6 0 1-.4 1-1v-2.2c.4 0 .8.1 1.2.1 6.5 0 11.7-5.3 11.7-11.7 0-6.4-5.3-11.7-11.7-11.7-2.3 0-4.5.7-6.3 1.9-1.2-.5-2.4-.8-3.7-.8H9.8C5 23.6 1 27.5 1 32.3V48Zm36.3-23.6c5.4 0 9.7 4.4 9.7 9.7 0 5.3-4.4 9.7-9.7 9.7-5.4 0-9.7-4.4-9.7-9.7 0-5.3 4.3-9.7 9.7-9.7Zm-13.8 1.1c-.2.2-1.4 3.2-4.9 3.2-3.5 0-4.7-3-4.9-3.2h9.8ZM19 30.7l2.8 8.7-3.2 3.9-3.2-3.9 2.8-8.7h.8ZM3 32.1c0-3.7 3-6.7 6.8-6.7h1.6c0 .5.2.6 1 1.9.9 1.4 2.2 2.4 3.7 2.9l-2.9 9c-.1.3 0 .7.2.9l4.3 5.3c.2.2.5.4.8.4.3 0 .6-.1.8-.4l4.3-5.3c.2-.3.3-.6.2-.9l-2.9-9c3.1-1.1 4-3.6 4.6-4.3.1-.2.1-.3.1-.5 1.2 0 2.1-.1 3.5.3-2.2 2.1-3.6 5.1-3.6 8.4 0 5.3 3.6 9.8 8.5 11.3V47H3V32.1Z"/><path d="m30.1 35 4.2 4.2c.2.2.5.3.7.3.2 0 .5-.1.7-.3l8.8-8.8c.4-.4.4-1 0-1.4-.4-.4-1-.4-1.4 0L35 37.1l-3.5-3.5c-.4-.4-1-.4-1.4 0-.4.4-.4 1 0 1.4Z"/></svg><svg viewBox="0 0 51 50" id="icon-feature-4" xmlns="http://www.w3.org/2000/svg"><path d="M26.5 31.5c2.2-.7 3.1-3 2.2-5-.6-1.3-1.9-2.1-3.3-2.1-2.2-.5-1.5-3.2.2-3.2h.2c.4 0 .8.2 1.1.6.4.4 1 .4 1.4.1.4-.4.4-1 .1-1.4-.5-.6-1.1-.9-1.8-1.1-.1-.4.4-2.3-1-2.3-.6 0-1 .4-1 1v1.4c-.5.2-.9.4-1.3.8-1.3 1.2-1.8 3.4-.2 5.1 1.6 1.8 3.2.5 3.9 2.1.5 1.1-.1 2.3-1.5 2.3-.5 0-.9-.2-1.2-.5-.4-.4-1-.4-1.4-.1-1 .9.4 2.1 1.7 2.5.1.4-.4 2.3 1 2.3 1.3-.1.8-2 .9-2.5Z"/><path d="M4 25.5c0-.6-.4-1-1-1s-1 .4-1 1C2 38.4 12.5 49 25.5 49S49 38.4 49 25.5 38.5 2 25.5 2C19.4 2 13.6 4.3 9.2 8.5V2c0-.5-.5-1-1-1-.6 0-1 .5-1 1l.1 9c0 .5.5 1 1 1l9-.1c.6 0 1-.5 1-1s-.5-1-1-1l-6.7.1c4-3.8 9.3-6 14.9-6C37.4 4 47 13.7 47 25.5S37.4 47 25.5 47 4 37.3 4 25.5Z"/><path d="M39.402 25.5c0-7.7-6.2-13.9-13.9-13.9s-13.9 6.2-13.9 13.9 6.2 13.9 13.9 13.9 13.9-6.3 13.9-13.9Zm-25.8 0c0-6.5 5.3-11.9 11.9-11.9 6.6 0 11.9 5.3 11.9 11.9 0 6.6-5.4 11.9-11.9 11.9s-11.9-5.4-11.9-11.9Z"/></svg><svg viewBox="0 0 24 24" id="icon-mail" xmlns="http://www.w3.org/2000/svg"><path d="M12 24C5.383 24 0 18.617 0 12S5.383 0 12 0s12 5.383 12 12-5.383 12-12 12ZM12 .923C5.892.923.923 5.893.923 12c0 6.108 4.97 11.077 11.077 11.077 6.108 0 11.077-4.969 11.077-11.077S18.107.923 12 .923Z"/><path d="M18.888 8.513a.672.672 0 0 0-.045-.072l-4.21 3.474 4.174 4.816a.964.964 0 0 0 .194-.578v-7.19a.96.96 0 0 0-.113-.45ZM5.163 8.441A.959.959 0 0 0 5 8.964v7.189c0 .208.068.41.194.578l4.174-4.816-4.205-3.474ZM12 13.1a1.2 1.2 0 0 0 .764-.277l5.714-4.72a.962.962 0 0 0-.44-.103H5.964a.962.962 0 0 0-.442.11l5.714 4.72c.216.176.486.271.764.27Z"/><path d="M13.072 13.21a1.683 1.683 0 0 1-2.148 0l-1.182-.977-4.168 4.802a.959.959 0 0 0 .388.081h12.072a.959.959 0 0 0 .388-.081l-4.168-4.802-1.182.976Z"/></svg><svg viewBox="0 0 18 18" id="icon-phone" xmlns="http://www.w3.org/2000/svg"><path d="M3.54 2c.06.89.21 1.76.45 2.59l-1.2 1.2c-.41-1.2-.67-2.47-.76-3.79h1.51Zm9.86 12.02c.85.24 1.72.39 2.6.45v1.49c-1.32-.09-2.59-.35-3.8-.75l1.2-1.19ZM4.5 0H1C.45 0 0 .45 0 1c0 9.39 7.61 17 17 17 .55 0 1-.45 1-1v-3.49c0-.55-.45-1-1-1-1.24 0-2.45-.2-3.57-.57a.84.84 0 0 0-.31-.05c-.26 0-.51.1-.71.29l-2.2 2.2a15.149 15.149 0 0 1-6.59-6.59l2.2-2.2c.28-.28.36-.67.25-1.02A11.36 11.36 0 0 1 5.5 1c0-.55-.45-1-1-1Z"/></svg><svg viewBox="0 0 14 20" id="icon-pin" xmlns="http://www.w3.org/2000/svg"><path d="M7 0C3.13 0 0 3.13 0 7c0 5.25 7 13 7 13s7-7.75 7-13c0-3.87-3.13-7-7-7ZM2 7c0-2.76 2.24-5 5-5s5 2.24 5 5c0 2.88-2.88 7.19-5 9.88C4.92 14.21 2 9.85 2 7Z"/><path d="M7 9.5a2.5 2.5 0 1 0 0-5 2.5 2.5 0 0 0 0 5Z"/></svg><svg viewBox="0 0 20 20" id="icon-search" xmlns="http://www.w3.org/2000/svg"><path fill-rule="evenodd" clip-rule="evenodd" d="M7.778 2.222a5.556 5.556 0 1 0 0 11.111 5.556 5.556 0 0 0 0-11.11ZM0 7.778a7.778 7.778 0 1 1 14.007 4.658l5.668 5.667a1.111 1.111 0 0 1-1.572 1.572l-5.667-5.668A7.778 7.778 0 0 1 0 7.777Z"/></svg><svg viewBox="0 0 24 25" id="icon-slider-arrow" xmlns="http://www.w3.org/2000/svg"><path d="m12 4.889-1.41 1.41 5.58 5.59H4v2h12.17l-5.58 5.59 1.41 1.41 8-8-8-8Z"/></svg><svg viewBox="0 0 16 15" id="icon-star" xmlns="http://www.w3.org/2000/svg"><path d="m7.461.987-1.785 3.62-3.995.582a.875.875 0 0 0-.484 1.493l2.89 2.816-.683 3.978a.874.874 0 0 0 1.268.921l3.574-1.878 3.573 1.879c.634.333 1.392-.203 1.269-.922l-.684-3.978 2.89-2.816a.875.875 0 0 0-.484-1.493l-3.994-.582L9.03.987a.876.876 0 0 0-1.569 0Z"/><path d="m7.461.987-1.785 3.62-3.995.582a.875.875 0 0 0-.484 1.493l2.89 2.816-.683 3.978a.874.874 0 0 0 1.268.921l3.574-1.878 3.573 1.879c.634.333 1.392-.203 1.269-.922l-.684-3.978 2.89-2.816a.875.875 0 0 0-.484-1.493l-3.994-.582L9.03.987a.876.876 0 0 0-1.569 0Z"/><path d="m7.461.987-1.785 3.62-3.995.582a.875.875 0 0 0-.484 1.493l2.89 2.816-.683 3.978a.874.874 0 0 0 1.268.921l3.574-1.878 3.573 1.879c.634.333 1.392-.203 1.269-.922l-.684-3.978 2.89-2.816a.875.875 0 0 0-.484-1.493l-3.994-.582L9.03.987a.876.876 0 0 0-1.569 0Z"/></svg><svg viewBox="0 0 24 24" id="icon-tg" xmlns="http://www.w3.org/2000/svg"><g clip-path="url(#ma)"><path d="m5.23 11.427 2.995 1.118 1.16 3.729a.353.353 0 0 0 .56.169l1.67-1.362a.498.498 0 0 1 .607-.016l3.011 2.186c.207.15.501.037.553-.213l2.206-10.612a.353.353 0 0 0-.472-.402L5.226 10.767a.353.353 0 0 0 .004.66Zm3.968.523 5.854-3.606c.105-.064.213.078.123.162l-4.831 4.491a.995.995 0 0 0-.31.6l-.165 1.219c-.022.163-.251.179-.296.021l-.633-2.224a.59.59 0 0 1 .258-.663Z"/><path d="M12 24C5.383 24 0 18.617 0 12S5.383 0 12 0s12 5.383 12 12-5.383 12-12 12ZM12 .923C5.892.923.923 5.893.923 12c0 6.108 4.97 11.077 11.077 11.077 6.108 0 11.077-4.969 11.077-11.077S18.107.923 12 .923Z"/></g><defs><clipPath id="ma"><path d="M0 0h24v24H0z"/></clipPath></defs></svg><svg viewBox="0 0 24 24" id="icon-whatsapp" xmlns="http://www.w3.org/2000/svg"><path d="M14.383 12.788c-.258-.155-.593-.327-.897-.203-.233.096-.381.46-.532.646-.078.096-.17.111-.289.063a4.062 4.062 0 0 1-2.026-1.736c-.082-.125-.067-.223.031-.339.146-.171.329-.366.369-.598.039-.23-.07-.5-.165-.707-.122-.263-.259-.638-.523-.787-.242-.137-.56-.06-.777.116-.372.303-.552.778-.547 1.25.002.133.019.267.05.396.075.31.219.6.38.877.122.207.255.41.397.604a6.137 6.137 0 0 0 1.723 1.6c.336.205.699.386 1.074.51.421.14.796.284 1.25.198.477-.09.946-.385 1.135-.844a.733.733 0 0 0 .052-.43c-.064-.297-.466-.473-.705-.616Z"/><path d="M12.055 5.657a6.267 6.267 0 0 0-6.26 6.26c0 1.056.271 2.096.786 3.024l-.91 3.39 3.408-.913c.916.497 1.94.759 2.976.759a6.267 6.267 0 0 0 6.26-6.26 6.266 6.266 0 0 0-6.26-6.26Zm0 11.336a5.065 5.065 0 0 1-2.591-.717l-.215-.128-1.903.51.507-1.893-.132-.216a5.062 5.062 0 0 1-.742-2.632c0-2.8 2.277-5.077 5.076-5.077 2.8 0 5.077 2.278 5.077 5.077s-2.278 5.076-5.077 5.076Z"/><path d="M12 24C5.383 24 0 18.617 0 12S5.383 0 12 0s12 5.383 12 12-5.383 12-12 12ZM12 .923C5.892.923.923 5.893.923 12c0 6.108 4.97 11.077 11.077 11.077 6.108 0 11.077-4.97 11.077-11.077C23.077 5.892 18.107.923 12 .923Z"/></svg><svg viewBox="0 0 48 50" id="icon-workflow-1" xmlns="http://www.w3.org/2000/svg"><path d="M23.306 28.388a.976.976 0 0 1-.61-.214l-1.685-1.349a.977.977 0 1 1 1.22-1.525l.868.694 2.438-3.52a.977.977 0 0 1 1.606 1.11l-3.034 4.383a.976.976 0 0 1-.803.42Z"/><path d="M47.992 15.663v-.11c0-2.516-1.7-4.643-4.012-5.292a5.988 5.988 0 0 0 1.772-4.255A6.012 6.012 0 0 0 39.747 0a6.013 6.013 0 0 0-5.762 7.702 19.957 19.957 0 0 0-9.983-2.673c-3.533 0-6.97.932-9.983 2.672A6.012 6.012 0 0 0 8.257 0 6.012 6.012 0 0 0 2.25 6.006c0 1.661.678 3.167 1.772 4.255a5.505 5.505 0 0 0-4.011 5.292v.11c0 .303.14.588.38.773a12.786 12.786 0 0 0 4.65 2.275A19.907 19.907 0 0 0 4.03 25c0 2.313.39 4.574 1.162 6.729a6.008 6.008 0 0 0-2.942 5.164c0 1.662.678 3.168 1.772 4.256A5.504 5.504 0 0 0 .011 46.44v.11c0 .303.14.589.38.774A12.776 12.776 0 0 0 8.257 50c2.873 0 5.593-.925 7.864-2.675a.977.977 0 0 0 .38-.774v-.11a5.47 5.47 0 0 0-1.242-3.476 19.82 19.82 0 0 0 8.743 2.006c3.078 0 6.042-.686 8.742-2.005a5.469 5.469 0 0 0-1.242 3.475v.11c0 .303.14.589.38.774A12.776 12.776 0 0 0 39.747 50c2.873 0 5.593-.925 7.864-2.675a.977.977 0 0 0 .38-.774v-.11c0-2.516-1.7-4.642-4.01-5.291a5.987 5.987 0 0 0 1.771-4.256 6.009 6.009 0 0 0-2.942-5.164A19.894 19.894 0 0 0 43.973 25c0-2.155-.34-4.267-1.011-6.29a12.785 12.785 0 0 0 4.65-2.274c.24-.185.38-.47.38-.773Zm-8.245-13.71a4.057 4.057 0 0 1 4.052 4.053 4.057 4.057 0 0 1-4.052 4.052 4.057 4.057 0 0 1-4.053-4.052 4.057 4.057 0 0 1 4.053-4.053Zm-31.49 0a4.057 4.057 0 0 1 4.052 4.053 4.057 4.057 0 0 1-4.052 4.052 4.057 4.057 0 0 1-4.053-4.052 4.057 4.057 0 0 1 4.053-4.053Zm-2.75 10.058h5.5a3.546 3.546 0 0 1 3.522 3.172 10.83 10.83 0 0 1-6.272 1.976c-2.272 0-4.43-.682-6.273-1.976a3.547 3.547 0 0 1 3.522-3.172Zm2.75 20.83a4.057 4.057 0 0 1 4.052 4.053 4.057 4.057 0 0 1-4.052 4.053 4.057 4.057 0 0 1-4.053-4.053 4.057 4.057 0 0 1 4.053-4.052Zm0 15.206c-2.272 0-4.43-.681-6.273-1.975A3.546 3.546 0 0 1 5.506 42.9h5.501a3.546 3.546 0 0 1 3.522 3.172 10.831 10.831 0 0 1-6.272 1.975Zm37.763-1.975a10.831 10.831 0 0 1-6.273 1.975c-2.272 0-4.43-.681-6.273-1.975a3.546 3.546 0 0 1 3.522-3.172h5.501a3.546 3.546 0 0 1 3.523 3.172Zm-6.273-5.125a4.057 4.057 0 0 1-4.053-4.053 4.057 4.057 0 0 1 4.053-4.052 4.057 4.057 0 0 1 4.052 4.052 4.057 4.057 0 0 1-4.052 4.053ZM42.02 25c0 2.069-.347 4.09-1.03 6.018a6.012 6.012 0 0 0-7.25 5.876 5.989 5.989 0 0 0 .694 2.799 17.84 17.84 0 0 1-10.432 3.325 17.846 17.846 0 0 1-10.432-3.325 5.97 5.97 0 0 0 .692-2.799 6.012 6.012 0 0 0-7.249-5.876A17.954 17.954 0 0 1 5.984 25c0-2.044.338-4.043 1.005-5.95.418.041.841.062 1.268.062 2.873 0 5.593-.926 7.864-2.676.24-.185.38-.47.38-.773v-.11a5.502 5.502 0 0 0-3.248-5.014 17.993 17.993 0 0 1 10.749-3.557 18 18 0 0 1 10.748 3.556 5.502 5.502 0 0 0-3.248 5.015v.11c0 .302.14.588.38.773a12.774 12.774 0 0 0 7.865 2.675c.426 0 .849-.02 1.267-.06A17.964 17.964 0 0 1 42.02 25Zm-2.273-7.841a10.83 10.83 0 0 1-6.273-1.976 3.546 3.546 0 0 1 3.522-3.172h5.501a3.546 3.546 0 0 1 3.523 3.172 10.83 10.83 0 0 1-6.273 1.976Z"/><path d="M24.002 35.272c-5.664 0-10.271-4.608-10.271-10.272 0-5.664 4.607-10.272 10.271-10.272 3.697 0 7.125 2 8.946 5.221a.977.977 0 0 1-1.7.962 8.34 8.34 0 0 0-7.246-4.23c-4.587 0-8.318 3.732-8.318 8.319 0 4.587 3.731 8.319 8.318 8.319a8.307 8.307 0 0 0 7.361-4.44.976.976 0 1 1 1.728.911 10.255 10.255 0 0 1-9.089 5.482Z"/><path d="M33.295 25.879a.986.986 0 0 1-.924-.663.984.984 0 0 1 .323-1.083.987.987 0 0 1 1.075-.084c.356.198.557.61.49 1.012a.988.988 0 0 1-.964.818Z"/></svg><svg viewBox="0 0 50 50" id="icon-workflow-2" xmlns="http://www.w3.org/2000/svg"><g clip-path="url(#pa)"><path d="M37.366 25.746a.987.987 0 0 1-.92-.648.984.984 0 0 1 .276-1.063.986.986 0 0 1 1.132-.111c.368.21.56.654.462 1.067a.986.986 0 0 1-.95.755Z"/><path d="m37.333 35.94-2.226-2.226a13.309 13.309 0 0 0 2.455-4.205.977.977 0 0 0-1.838-.66 11.36 11.36 0 0 1-2.5 4.033 5.689 5.689 0 0 0-3.902-3.666 6.177 6.177 0 0 0 1.873-4.435A6.202 6.202 0 0 0 25 18.586a6.202 6.202 0 0 0-6.195 6.195c0 1.737.719 3.309 1.874 4.435a5.688 5.688 0 0 0-3.903 3.667 11.303 11.303 0 0 1-3.165-7.882C13.61 18.72 18.72 13.61 25 13.61c4.663 0 8.808 2.793 10.56 7.115a.976.976 0 1 0 1.81-.734 13.323 13.323 0 0 0-2.275-3.719l2.222-2.221c.7.439 1.5.658 2.299.658a4.315 4.315 0 0 0 3.06-1.265 4.334 4.334 0 0 0 0-6.122 4.333 4.333 0 0 0-6.12 0 4.336 4.336 0 0 0-.617 5.345l-2.227 2.226c-.371-.32-.762-.62-1.17-.901a13.252 13.252 0 0 0-6.566-2.3V8.546a4.336 4.336 0 0 0 3.351-4.218A4.333 4.333 0 0 0 25 0a4.333 4.333 0 0 0-4.328 4.328 4.336 4.336 0 0 0 3.351 4.218v3.146a13.287 13.287 0 0 0-7.73 3.206l-2.233-2.231a4.336 4.336 0 0 0-.616-5.345 4.334 4.334 0 0 0-6.122 0 4.334 4.334 0 0 0 0 6.122 4.315 4.315 0 0 0 3.061 1.265c.8 0 1.599-.22 2.3-.658l2.227 2.228a13.289 13.289 0 0 0-3.216 7.732H8.543a4.336 4.336 0 0 0-4.215-3.34A4.333 4.333 0 0 0 0 25a4.333 4.333 0 0 0 4.328 4.328 4.335 4.335 0 0 0 4.22-3.364h3.143a13.216 13.216 0 0 0 3.2 7.751l-2.224 2.225a4.336 4.336 0 0 0-5.345.616 4.334 4.334 0 0 0 0 6.122 4.315 4.315 0 0 0 3.061 1.266 4.315 4.315 0 0 0 3.06-1.266 4.336 4.336 0 0 0 .608-5.36l2.223-2.223c.19.163.385.323.585.477l.003.003a13.2 13.2 0 0 0 7.162 2.734v3.145a4.336 4.336 0 0 0-3.352 4.218A4.333 4.333 0 0 0 25 50a4.333 4.333 0 0 0 4.328-4.328 4.336 4.336 0 0 0-3.351-4.218V38.31a13.2 13.2 0 0 0 7.161-2.734l.003-.002c.2-.154.395-.314.586-.478l2.222 2.223a4.336 4.336 0 0 0 .607 5.36 4.315 4.315 0 0 0 3.061 1.265 4.315 4.315 0 0 0 3.06-1.265 4.333 4.333 0 0 0 0-6.122 4.336 4.336 0 0 0-5.344-.616Zm.604-27.237a2.368 2.368 0 0 1 1.68-.694c.608 0 1.217.231 1.68.694a2.378 2.378 0 0 1 0 3.36 2.378 2.378 0 0 1-3.36 0 2.378 2.378 0 0 1 0-3.36ZM22.625 4.328A2.378 2.378 0 0 1 25 1.953a2.378 2.378 0 0 1 2.375 2.375A2.378 2.378 0 0 1 25 6.704a2.378 2.378 0 0 1-2.375-2.376ZM8.703 12.063a2.378 2.378 0 0 1 0-3.36 2.368 2.368 0 0 1 1.68-.694c.608 0 1.217.231 1.68.695a2.378 2.378 0 0 1 0 3.359 2.378 2.378 0 0 1-3.36 0ZM4.328 27.375A2.378 2.378 0 0 1 1.953 25a2.378 2.378 0 0 1 2.375-2.375A2.378 2.378 0 0 1 6.704 25a2.378 2.378 0 0 1-2.376 2.375ZM25 20.54a4.247 4.247 0 0 1 4.242 4.242A4.247 4.247 0 0 1 25 29.023a4.247 4.247 0 0 1-4.241-4.242A4.247 4.247 0 0 1 25 20.54ZM12.063 41.297a2.378 2.378 0 0 1-3.36 0 2.378 2.378 0 0 1 0-3.36 2.368 2.368 0 0 1 1.68-.694c.608 0 1.217.231 1.68.694a2.378 2.378 0 0 1 0 3.36Zm15.312 4.375A2.378 2.378 0 0 1 25 48.047a2.378 2.378 0 0 1-2.375-2.375A2.378 2.378 0 0 1 25 43.296a2.378 2.378 0 0 1 2.375 2.376ZM25 36.39c-2.372 0-4.625-.713-6.547-2.068a3.717 3.717 0 0 1 3.693-3.346h5.708c1.923 0 3.51 1.47 3.694 3.346A11.275 11.275 0 0 1 25 36.39Zm16.297 4.907a2.378 2.378 0 0 1-3.36 0 2.378 2.378 0 0 1 0-3.36 2.368 2.368 0 0 1 1.68-.694c.608 0 1.217.231 1.68.694a2.378 2.378 0 0 1 0 3.36Z"/><path d="M45.672 29.328A4.333 4.333 0 0 1 41.344 25a4.333 4.333 0 0 1 4.328-4.328A4.333 4.333 0 0 1 50.001 25a4.333 4.333 0 0 1-4.329 4.328Zm0-6.703A2.378 2.378 0 0 0 43.297 25a2.378 2.378 0 0 0 2.375 2.375A2.378 2.378 0 0 0 48.048 25a2.378 2.378 0 0 0-2.376-2.375Z"/></g><defs><clipPath id="pa"><path d="M0 0h50v50H0z"/></clipPath></defs></svg><svg viewBox="0 0 50 50" id="icon-workflow-3" xmlns="http://www.w3.org/2000/svg"><g clip-path="url(#qa)"><path d="M26.238 23.765a.977.977 0 1 0-1.382 1.38.977.977 0 0 0 1.382-1.38Zm12.427-12.43a4.88 4.88 0 0 0-6.906 0 4.89 4.89 0 0 0 0 6.906 4.89 4.89 0 0 0 6.906 0 4.88 4.88 0 0 0 0-6.906Zm-1.381 5.524a2.934 2.934 0 0 1-4.143 0 2.934 2.934 0 0 1 0-4.143 2.928 2.928 0 0 1 4.143 0 2.928 2.928 0 0 1 0 4.143Z"/><path d="M49.712.286a.973.973 0 0 0-.726-.285c-.22.008-5.478.219-11.727 2.428-5.008 1.768-9.182 4.3-12.407 7.524a37.168 37.168 0 0 0-2.098 2.285c-3.188-1.877-5.743-1.288-7.358-.424-3.72 1.99-6.021 7.394-6.021 11.26a.977.977 0 0 0 1.667.69c1.962-1.961 4.38-1.839 5.17-1.735l.343.342a34.332 34.332 0 0 0-1.613 4.743 2.765 2.765 0 0 0 .118 1.697 9.248 9.248 0 0 0-2.637 1.859c-2.514 2.514-3.024 8.64-3.045 8.9a.976.976 0 0 0 1.05 1.05c.26-.02 6.387-.53 8.9-3.045a9.25 9.25 0 0 0 1.86-2.636 2.758 2.758 0 0 0 1.697.117 34.36 34.36 0 0 0 4.742-1.612l.342.342c.104.79.227 3.209-1.735 5.17a.976.976 0 0 0 .691 1.667c3.865 0 9.269-2.302 11.26-6.02.864-1.616 1.452-4.17-.425-7.359a37.22 37.22 0 0 0 2.285-2.098c3.225-3.225 5.756-7.4 7.524-12.407 2.21-6.25 2.42-11.507 2.428-11.727a.977.977 0 0 0-.285-.726ZM11.558 20.973c.607-2.936 2.369-6.158 4.76-7.437 1.597-.855 3.343-.771 5.2.245a39.49 39.49 0 0 0-4.103 6.688c-.014-.009-.19-.23-.517-.303-.134-.03-2.718-.586-5.34.807Zm6.39 15.221c-1.343 1.343-4.493 2.051-6.484 2.34.29-1.99.997-5.14 2.34-6.483.752-.752 1.624-1.322 2.5-1.643l3.287 3.286c-.322.877-.892 1.748-1.644 2.5Zm4.452-3.03c-.283.073-.61-.034-.854-.277l-1.912-1.912-2.523-2.522c-.243-.244-.35-.572-.277-.854a31.7 31.7 0 0 1 1.22-3.73l8.075 8.076a31.697 31.697 0 0 1-3.73 1.22Zm14.062.517c-1.279 2.39-4.5 4.152-7.436 4.759.936-1.761 1.142-4.004.8-5.363-.08-.316-.285-.475-.297-.494a39.487 39.487 0 0 0 6.688-4.103c1.017 1.857 1.1 3.603.245 5.2Zm2.202-9.916c-.88.88-1.827 1.73-2.816 2.526a37.52 37.52 0 0 1-7.785 4.826l-9.182-9.181a37.513 37.513 0 0 1 4.826-7.785 35.437 35.437 0 0 1 2.527-2.817c2.893-2.893 6.627-5.196 11.1-6.853l8.183 8.183c-1.657 4.474-3.96 8.207-6.853 11.1Zm7.556-13.16-6.826-6.827a43.904 43.904 0 0 1 8.57-1.743 43.914 43.914 0 0 1-1.744 8.57Z"/><path d="M23.476 40.337a.977.977 0 0 0-1.381 0L19.332 43.1a.977.977 0 1 0 1.381 1.38l2.762-2.762a.977.977 0 0 0 0-1.381ZM9.664 26.526a.977.977 0 0 0-1.38 0L5.52 29.288a.977.977 0 1 0 1.38 1.381l2.763-2.762a.977.977 0 0 0 0-1.38Zm6.903 15.193a.977.977 0 0 0-1.38 0L8.57 48.332a.976.976 0 1 0 1.381 1.38l6.615-6.613a.976.976 0 0 0 0-1.381Zm-7.812 0a.977.977 0 0 0-1.381 0L.759 48.332a.976.976 0 1 0 1.38 1.38L8.756 43.1a.977.977 0 0 0 0-1.381Zm-.474-8.288a.977.977 0 0 0-1.38 0L.285 40.047a.977.977 0 1 0 1.381 1.38l6.614-6.614a.977.977 0 0 0 0-1.382Zm22.099-13.81a.977.977 0 0 0-1.381 0l-1.381 1.38a.977.977 0 0 0 1.381 1.382l1.381-1.38a.977.977 0 0 0 0-1.382Z"/></g><defs><clipPath id="qa"><path d="M0 0h50v50H0z"/></clipPath></defs></svg><svg viewBox="0 0 50 50" id="icon-workflow-4" xmlns="http://www.w3.org/2000/svg"><g clip-path="url(#ra)"><path d="M46.207 34.408h-1.061v-5.169c0-.7-.258-1.342-.682-1.835a2.798 2.798 0 0 0 .682-1.833v-5.169h1.061c2.092 0 3.793-1.7 3.793-3.789 0-2.09-1.701-3.79-3.793-3.79h-1.061V7.656a2.811 2.811 0 0 0-2.81-2.807h-5.175V3.79A3.797 3.797 0 0 0 33.367 0a3.795 3.795 0 0 0-3.793 3.79v1.058H24.4c-.71 0-1.359.265-1.854.701a2.798 2.798 0 0 0-1.81-.662h-5.177v-1.06A3.795 3.795 0 0 0 11.767.038a3.795 3.795 0 0 0-3.793 3.79v1.059H2.797a2.807 2.807 0 0 0-2.79 2.482A.979.979 0 0 0 0 7.48v18.34c0 .038.002.076.006.113a2.8 2.8 0 0 0 .661 1.508 2.802 2.802 0 0 0-.66 1.51.982.982 0 0 0-.007.113v18.34a.98.98 0 0 0 .006.113A2.807 2.807 0 0 0 2.796 50h17.938c.712 0 1.362-.266 1.858-.703.49.414 1.122.665 1.807.665h4.544a.977.977 0 0 0 0-1.953h-4.544a.859.859 0 0 1-.856-.832v-5.153h1.062c2.091 0 3.793-1.7 3.793-3.789 0-2.09-1.702-3.79-3.793-3.79h-1.062v-5.207c0-.473.384-.858.856-.858h5.176v1.057c0 2.09 1.701 3.79 3.793 3.79 2.091 0 3.792-1.7 3.792-3.79V28.38h5.177a.86.86 0 0 1 .856.86v6.144c0 .54.437.977.976.977h2.038a1.84 1.84 0 0 1 1.84 1.836 1.84 1.84 0 0 1-1.84 1.836H44.17a.977.977 0 0 0-.976.977v6.145c0 .47-.384.854-.856.854h-4.565a.977.977 0 1 0 0 1.953h4.565a2.812 2.812 0 0 0 2.809-2.807v-5.169h1.061c2.092 0 3.793-1.7 3.793-3.789 0-2.09-1.701-3.79-3.793-3.79ZM1.953 7.548a.854.854 0 0 1 .844-.708H8.95a.976.976 0 0 0 .976-.977V3.827a1.84 1.84 0 0 1 3.68 0v2.036c0 .54.436.977.976.977h6.152c.468 0 .85.377.856.842v6.157c0 .539.437.976.977.976h2.038a1.84 1.84 0 0 1 1.84 1.836 1.84 1.84 0 0 1-1.84 1.837h-2.038a.977.977 0 0 0-.977.976v6.145a.857.857 0 0 1-.856.856h-6.153a.977.977 0 0 0-.976.977v2.034a1.84 1.84 0 0 1-3.68 0v-2.034a.977.977 0 0 0-.976-.977H2.797a.855.855 0 0 1-.844-.71V7.548Zm22.652 28.851a1.84 1.84 0 0 1 1.84 1.836 1.84 1.84 0 0 1-1.84 1.837h-2.038a.977.977 0 0 0-.977.976v6.145a.856.856 0 0 1-.856.854H2.797a.854.854 0 0 1-.844-.708V29.132a.856.856 0 0 1 .844-.713h5.176v1.056c0 2.09 1.701 3.79 3.793 3.79 2.09 0 3.792-1.7 3.792-3.79V28.42h5.176c.468 0 .85.379.856.847v6.157c0 .54.437.976.977.976h2.038Zm18.588-16.973v6.145a.857.857 0 0 1-.856.856h-6.153a.977.977 0 0 0-.977.977v2.033a1.84 1.84 0 0 1-3.679 0v-2.033a.977.977 0 0 0-.976-.977h-6.153a.86.86 0 0 1-.855-.834v-5.152h1.061c2.091 0 3.793-1.7 3.793-3.79s-1.702-3.789-3.793-3.789h-1.061V7.655c0-.47.383-.853.855-.853h6.153c.54 0 .976-.438.976-.977V3.789a1.84 1.84 0 0 1 3.68 0v2.036c0 .54.437.977.976.977h6.153c.471 0 .856.383.856.853V13.8c0 .54.437.977.976.977h2.038a1.84 1.84 0 0 1 1.84 1.836 1.84 1.84 0 0 1-1.84 1.836H44.17a.976.976 0 0 0-.976.977Z"/><path d="M33.377 49.962a.985.985 0 0 1-.919-.648.985.985 0 0 1 .3-1.084.985.985 0 0 1 1.134-.074.985.985 0 0 1 .438 1.042.987.987 0 0 1-.953.764Z"/></g><defs><clipPath id="ra"><path d="M0 0h50v50H0z"/></clipPath></defs></svg><svg viewBox="0 0 50 50" id="icon-workflow-5" xmlns="http://www.w3.org/2000/svg"><path d="M49.025 37.402a.984.984 0 0 1-.907-.618.984.984 0 0 1 .263-1.092.985.985 0 0 1 1.132-.112c.358.207.55.63.47 1.036a.986.986 0 0 1-.958.786Z"/><path d="M48.63 39.917a.977.977 0 0 0-1.249.589 11.36 11.36 0 0 1-2.5 4.032 5.689 5.689 0 0 0-3.901-3.666 6.177 6.177 0 0 0 1.873-4.434 6.202 6.202 0 0 0-6.195-6.195 6.202 6.202 0 0 0-6.195 6.195c0 1.736.718 3.308 1.873 4.434a5.689 5.689 0 0 0-3.902 3.668 11.303 11.303 0 0 1-3.166-7.883c0-6.28 5.11-11.39 11.39-11.39 4.663 0 8.809 2.792 10.56 7.114a.976.976 0 1 0 1.81-.733 13.335 13.335 0 0 0-4.828-6 13.296 13.296 0 0 0-2.981-1.535v-6.357a5.773 5.773 0 0 0 4.787-5.681 5.77 5.77 0 0 0-5.764-5.764 5.773 5.773 0 0 0-5.68 4.787h-8.065C25.427 4.806 19.935 0 13.343 0 5.986 0 0 5.986 0 13.344a13.26 13.26 0 0 0 5.21 10.578 13.3 13.3 0 0 0 3.57 1.968v6.354a5.773 5.773 0 0 0-4.787 5.68 5.77 5.77 0 0 0 5.764 5.765 5.773 5.773 0 0 0 5.681-4.788h8.063c.552 3.29 2.313 6.246 5.018 8.33l.006.005A13.219 13.219 0 0 0 36.658 50c2.972 0 5.785-.956 8.135-2.766l.003-.003a13.337 13.337 0 0 0 4.423-6.065.976.976 0 0 0-.589-1.25ZM40.242 8.264c2.101 0 3.81 1.71 3.81 3.811s-1.709 3.81-3.81 3.81a3.815 3.815 0 0 1-3.81-3.81 3.814 3.814 0 0 1 3.81-3.81Zm-38.289 5.08c0-6.281 5.11-11.39 11.39-11.39s11.39 5.109 11.39 11.39c0 2.982-1.137 5.775-3.166 7.883a5.689 5.689 0 0 0-3.903-3.668 6.177 6.177 0 0 0 1.874-4.435 6.202 6.202 0 0 0-6.195-6.195 6.202 6.202 0 0 0-6.195 6.195c0 1.737.718 3.31 1.873 4.435a5.689 5.689 0 0 0-3.902 3.668 11.304 11.304 0 0 1-3.166-7.883Zm11.39 4.022A4.247 4.247 0 0 1 9.1 13.124a4.247 4.247 0 0 1 4.242-4.241 4.247 4.247 0 0 1 4.242 4.241 4.247 4.247 0 0 1-4.242 4.242Zm-2.854 1.953h5.708c1.923 0 3.51 1.47 3.693 3.346a11.275 11.275 0 0 1-6.547 2.069 11.27 11.27 0 0 1-6.548-2.07 3.717 3.717 0 0 1 3.694-3.345Zm-.731 22.417a3.815 3.815 0 0 1-3.81-3.811c0-2.101 1.709-3.81 3.81-3.81s3.81 1.709 3.81 3.81-1.709 3.81-3.81 3.81Zm5.681-4.788a5.78 5.78 0 0 0-4.704-4.704v-5.81c.85.168 1.722.253 2.608.253 2.97 0 5.783-.956 8.132-2.764l.006-.005a13.26 13.26 0 0 0 5.201-10.866h7.879a5.78 5.78 0 0 0 4.704 4.704v5.812a13.417 13.417 0 0 0-2.607-.255c-7.357 0-13.343 5.986-13.343 13.344 0 .098.001.195.003.291H15.44Zm21.219-4.752a4.247 4.247 0 0 1 4.242 4.242 4.247 4.247 0 0 1-4.242 4.242 4.246 4.246 0 0 1-4.242-4.242 4.247 4.247 0 0 1 4.242-4.242Zm0 15.85c-2.372 0-4.626-.713-6.548-2.068a3.717 3.717 0 0 1 3.694-3.346h5.708c1.923 0 3.51 1.47 3.694 3.346a11.275 11.275 0 0 1-6.548 2.069Z"/></svg><svg viewBox="0 0 50 50" id="icon-workflow-6" xmlns="http://www.w3.org/2000/svg"><g clip-path="url(#ta)"><path d="M18.142 38.5h-1.939a.476.476 0 1 1 0-.953h1.94a.476.476 0 1 1 0 .953Zm-10.765 0h-1.94a.477.477 0 1 1 0-.953h1.94a.476.476 0 1 1 0 .953Zm3.984-.308c.068.18.252.308.446.308a.487.487 0 0 0 .47-.401.483.483 0 0 0-.231-.487.487.487 0 0 0-.555.055l-.13.525Zm0 0a.485.485 0 0 1 .13-.525l-.13.525Zm33.202-20.588H31.855a.477.477 0 1 1 0-.953h12.708a.476.476 0 0 1 0 .953Zm0-5.151H31.855a.477.477 0 1 1 0-.953h12.708a.476.476 0 0 1 0 .953Zm0-5.151H31.855a.477.477 0 1 1 0-.953h12.708a.476.476 0 0 1 0 .953Z"/><path d="m34.638 23.898-.146-.146h-7.098a.477.477 0 0 1-.476-.477V.977c0-.264.213-.477.477-.477h21.627c.263 0 .477.213.477.477v22.298a.477.477 0 0 1-.477.477h-7.097l-.146.146-3.234 3.233a.474.474 0 0 1-.674 0l-.353.354.353-.354-3.233-3.233Zm-6.767-1.6v.5h6.818c.126 0 .248.05.337.14l.353-.353-.353.353 2.829 2.829.353.354.354-.354 2.829-2.829c.09-.09.21-.14.337-.14h6.817V1.454H27.871V22.3Zm7.996 16.432a.477.477 0 0 1-.476-.477v-.946a.477.477 0 0 1 .953 0v.946a.477.477 0 0 1-.477.476Zm4.688 0a.477.477 0 0 1-.477-.477v-.946a.477.477 0 0 1 .953 0v.946a.476.476 0 0 1-.476.476Zm-.093 3.927a.474.474 0 0 1-.674 0l-4.182.354a.977.977 0 0 1 0-1.381 3.688 3.688 0 0 1 5.21 0c.38.381.38 1 0 1.38l-.354-.353Zm0 0a.477.477 0 0 0 0-.674 3.188 3.188 0 0 0-4.502 0m4.502.674-4.502-.674m0 0-.354-.353.354.353a.477.477 0 0 0 0 .674m0 0Z"/><path d="M38.21 49.5c-5.494 0-9.964-4.47-9.964-9.963 0-5.494 4.47-9.963 9.963-9.963 5.494 0 9.964 4.47 9.964 9.963 0 5.493-4.47 9.963-9.964 9.963Zm0-18.973c-4.97 0-9.01 4.041-9.01 9.01 0 4.969 4.04 9.01 9.01 9.01 4.968 0 9.01-4.041 9.01-9.01 0-4.969-4.042-9.01-9.01-9.01ZM18.145 33.35H5.438a.476.476 0 1 1 0-.954h12.707a.477.477 0 0 1 0 .953Zm0 10.3H5.438a.477.477 0 0 1 0-.952h12.707a.477.477 0 1 1 0 .953Z"/><path d="M7.866 26.248h.208l.146-.146 3.233-3.233a.477.477 0 0 1 .674 0l3.234 3.233.146.146h7.097c.263 0 .477.214.477.477v22.298a.477.477 0 0 1-.477.477H.977a.476.476 0 0 1-.477-.477V26.725c0-.263.213-.477.477-.477h6.89ZM1.453 48.047v.5h20.674V27.2H15.31a.476.476 0 0 1-.337-.14l-2.83-2.828-.353-.354-.353.354-2.83 2.829a.472.472 0 0 1-.336.14H1.453v20.845ZM9.445 9.656a.477.477 0 0 1-.476-.477v-.946a.477.477 0 1 1 .953 0v.946a.477.477 0 0 1-.477.477Zm4.688 0a.477.477 0 0 1-.477-.477v-.946a.477.477 0 0 1 .953 0v.946a.477.477 0 0 1-.476.477Zm-4.595 3.928c.62.62 1.434.93 2.25.93.817 0 1.632-.31 2.252-.93m-4.502 0h4.502m-4.502 0a.477.477 0 1 1 .674-.674l-.674.674Zm4.502 0a.477.477 0 0 0 0-.674m0 .674v-.674m0 0a.477.477 0 0 0-.674 0h.674Z"/><path d="M11.791 20.427c-5.493 0-9.963-4.47-9.963-9.964C1.828 4.97 6.298.5 11.791.5c5.494 0 9.964 4.47 9.964 9.963 0 5.494-4.47 9.964-9.964 9.964Zm0-18.974c-4.968 0-9.01 4.042-9.01 9.01 0 4.969 4.042 9.01 9.01 9.01 4.97 0 9.01-4.041 9.01-9.01 0-4.968-4.041-9.01-9.01-9.01Z"/></g><defs><clipPath id="ta"><path d="M0 0h50v50H0z"/></clipPath></defs></svg><svg viewBox="0 0 14 14" id="icon-zoom-in" xmlns="http://www.w3.org/2000/svg"><path d="M14 8H8v6H6V8H0V6h6V0h2v6h6v2Z"/></svg><svg viewBox="0 0 14 2" id="icon-zoom-out" xmlns="http://www.w3.org/2000/svg"><path d="M14 2H0V0h14v2Z"/></svg></svg>