<svg xmlns="http://www.w3.org/2000/svg" xmlns:xlink="http://www.w3.org/1999/xlink"><defs>
        <lineargradient id="a" x1="8.19" y1="-9.044" x2="11.039" y2="22.113" gradientunits="userSpaceOnUse">
            <stop stop-color="#80FF00"/>
            <stop offset="1" stop-color="#67891A"/>
        </lineargradient>
    
        <clippath id="a">
            <path transform="translate(0 .165)" d="M0 0h40v40H0z"/>
        </clippath>
    
        <clippath id="a">
            <path d="M0 0h50v50H0z"/>
        </clippath>
    
        <clippath id="a">
            <path d="M0 0h50v50H0z"/>
        </clippath>
    
        <clippath id="a">
            <path d="M0 0h50v50H0z"/>
        </clippath>
    
        <clippath id="a">
            <path d="M0 0h50v50H0z"/>
        </clippath>
    </defs><symbol id="icon-arrow">
    <path d="M16 7H3.83l5.59-5.59L8 0 0 8l8 8 1.41-1.41L3.83 9H16V7Z"/>
</symbol><symbol id="icon-calendar-simple">
    <path d="M12.813 22.875h-1.938c-.375 0-.625.25-.625.625v1.875c0 .375.25.625.625.625h1.938c.374 0 .624-.25.624-.625V23.5c0-.313-.312-.625-.624-.625ZM20.938 22.875H19c-.375 0-.625.25-.625.625v1.875c0 .375.25.625.625.625h1.938c.375 0 .625-.25.625-.625V23.5a.626.626 0 0 0-.625-.625ZM29.125 22.875h-1.938c-.375 0-.625.25-.625.625v1.875c0 .375.25.625.625.625h1.938c.375 0 .625-.25.625-.625V23.5a.626.626 0 0 0-.625-.625ZM12.813 30.938h-1.938c-.375 0-.625.25-.625.625v1.875c0 .374.25.624.625.624h1.938c.374 0 .624-.25.624-.624v-1.876c0-.312-.312-.625-.624-.625ZM20.938 30.938H19c-.375 0-.625.25-.625.625v1.875c0 .374.25.624.625.624h1.938c.375 0 .625-.25.625-.624v-1.876a.626.626 0 0 0-.625-.625ZM29.125 30.938h-1.938c-.375 0-.625.25-.625.625v1.875c0 .374.25.624.625.624h1.938c.375 0 .625-.25.625-.624v-1.876a.626.626 0 0 0-.625-.625Z"/>
    <path d="M35 9.625H21.437V8.437a3.811 3.811 0 0 0 2.438-3.562c0-2.125-1.75-3.813-3.875-3.813s-3.875 1.688-3.875 3.813c0 1.625 1 3 2.438 3.563v1.187H5c-2.125 0-3.938 1.75-3.938 3.938V35c0 2.125 1.75 3.938 3.938 3.938h30c2.125 0 3.938-1.75 3.938-3.938V13.5c0-2.125-1.813-3.875-3.938-3.875Zm-15-5.75c.563 0 1.063.438 1.063 1 0 .563-.438 1-1.063 1s-1.063-.438-1.063-1c0-.563.5-1 1.063-1ZM5 12.438h30c.625 0 1.125.5 1.125 1.124v3.876H3.937v-3.875c0-.688.438-1.126 1.063-1.126Zm30 23.687H5A1.12 1.12 0 0 1 3.875 35V20.187h32.188V35c.062.625-.438 1.125-1.063 1.125Z"/>
</symbol><symbol id="icon-close">
    <path d="M.553.553a1.89 1.89 0 0 0 0 2.673L7.328 10 .553 16.774a1.89 1.89 0 1 0 2.673 2.673L10 12.672l6.774 6.775a1.89 1.89 0 0 0 2.673-2.673L12.672 10l6.775-6.774A1.89 1.89 0 0 0 16.774.553L10 7.328 3.226.553a1.89 1.89 0 0 0-2.673 0Z"/>
    
</symbol><symbol id="icon-feature-1">
    <path d="M43.2 12.2c.5.5 1.1.5 1.5.1.4-.4.4-1 0-1.4l-1.6-1.6c-.4-.4-1-.4-1.4 0-.4.4-.4 1 0 1.4l.1.1-1.6 1.6C37 9.2 32.8 7 28 6.4V3h1.3c.6 0 1-.4 1-1s-.4-1-1-1h-8.5c-.6 0-1 .4-1 1s.4 1 1 1H22v3.4c-4.7.7-9 2.9-12.2 6.1l-1.7-1.7.1-.1c.4-.4.4-1 0-1.4-.4-.4-1-.4-1.4 0l-1.6 1.6c-.4.4-.4 1 0 1.4.4.4 1 .4 1.4 0l.1-.1L8.5 14c-3.1 3.7-4.9 8.5-4.9 13.6C3.6 39.4 13.2 49 25 49c11.8 0 21.4-9.6 21.4-21.4 0-5.2-1.9-9.9-4.9-13.7l1.7-1.7ZM24 3h2v3.2h-2V3Zm20.4 24.6C44.4 38.3 35.7 47 25 47S5.6 38.3 5.6 27.6 14.3 8.2 25 8.2s19.4 8.7 19.4 19.4Z"/>
    <path d="M25 13c-8 0-14.6 6.5-14.6 14.6 0 8 6.5 14.6 14.6 14.6s14.6-6.5 14.6-14.6C39.6 19.6 33 13 25 13Zm9.2 15.6h3.3c-.5 6.1-5.4 11-11.5 11.5v-3.3c0-.6-.4-1-1-1s-1 .4-1 1v3.3c-6.1-.5-11-5.4-11.5-11.5h3.3c.6 0 1-.4 1-1s-.4-1-1-1h-3.3c.5-6.1 5.4-11 11.5-11.5v3.3c0 .6.4 1 1 1s1-.4 1-1v-3.3c6.1.5 11 5.4 11.5 11.5h-3.3c-.6 0-1 .4-1 1s.5 1 1 1Z"/>
    <path d="M26 27.2v-3.5c0-.6-.4-1-1-1s-1 .4-1 1v4c0 .3.1.5.3.7l3.2 3.2c.2.2.5.3.7.3.2 0 .5-.1.7-.3.4-.4.4-1 0-1.4l-2.9-3Z"/>
</symbol><symbol id="icon-feature-2">
    <path d="M35.1 26.8c4.5-7.7-1.2-17.3-10-17.3S10.6 19 15.2 26.9c0 0 2.6 3.8 3.9 6.3.3.7.5 1.4.5 2.1v6.4c0 1.2.8 2.3 1.8 2.7V46c0 1.7 1.3 3 3 3h1.4c1.7 0 3-1.3 3-3v-1.5c1.1-.4 1.8-1.5 1.8-2.7v-6.4c0-.7.2-1.4.5-2 1.3-2.7 3.9-6.5 4-6.6ZM26.8 46c0 .6-.4 1-1 1h-1.4c-.6 0-1-.4-1-1v-1.3h3.4V46Zm1.9-4.3c0 .5-.4 1-1 1h-5.2c-.5 0-1-.4-1-1v-1.2h3.6c.6 0 1-.4 1-1s-.4-1-1-1h-3.6v-2.2h7.1v5.4h.1Zm.6-9.3c-.3.6-.5 1.2-.6 1.9h-7.3c-.1-.7-.3-1.4-.6-2-1.3-2.6-3.9-6.4-4-6.5-3.7-6.3.9-14.3 8.3-14.3 7.3 0 11.9 8 8.3 14.2-.1.2-2.8 4-4.1 6.7ZM25.1 6.2c.6 0 1-.4 1-1V2c0-.6-.4-1-1-1s-1 .4-1 1v3.2c0 .6.5 1 1 1ZM37.8 11 40 8.7c.4-.4.4-1 0-1.4-.4-.4-1-.4-1.4 0l-2.3 2.3c-.4.4-.4 1 0 1.4.4.4 1.1.4 1.5 0ZM41.9 21.3c-.6 0-1 .4-1 1s.4 1 1 1h3.2c.6 0 1-.4 1-1s-.4-1-1-1h-3.2ZM8.1 21H4.9c-.6 0-1 .4-1 1s.4 1 1 1h3.2c.6 0 1-.4 1-1 0-.5-.5-1-1-1ZM13.8 9.4l-2.3-2.3c-.4-.4-1-.4-1.4 0-.4.4-.4 1 0 1.4l2.3 2.3c.4.4 1 .4 1.4 0 .4-.4.4-1 0-1.4Z"/>
</symbol><symbol id="icon-feature-3">
    <path d="M18.5 1C13.3 1 9 5.2 9 10.4s4.2 11.4 9.5 11.4S28 15.6 28 10.4c.1-5.2-4.2-9.4-9.5-9.4Zm0 18.8c-4 0-7.5-5.2-7.5-9.4C11 6.3 14.4 3 18.5 3S26 6.3 26 10.4c.1 4.2-3.4 9.4-7.5 9.4ZM30.1 35l4.2 4.2c.2.2.5.3.7.3.2 0 .5-.1.7-.3l8.8-8.8c.4-.4.4-1 0-1.4-.4-.4-1-.4-1.4 0L35 37.1l-3.5-3.5c-.4-.4-1-.4-1.4 0-.4.4-.4 1 0 1.4Z"/>
    <path d="M1 48c0 .6.4 1 1 1h33.1c.6 0 1-.4 1-1v-2.2c.4 0 .8.1 1.2.1 6.5 0 11.7-5.3 11.7-11.7 0-6.4-5.3-11.7-11.7-11.7-2.3 0-4.5.7-6.3 1.9-1.2-.5-2.4-.8-3.7-.8H9.8C5 23.6 1 27.5 1 32.3V48Zm36.3-23.6c5.4 0 9.7 4.4 9.7 9.7 0 5.3-4.4 9.7-9.7 9.7-5.4 0-9.7-4.4-9.7-9.7 0-5.3 4.3-9.7 9.7-9.7Zm-13.8 1.1c-.2.2-1.4 3.2-4.9 3.2-3.5 0-4.7-3-4.9-3.2h9.8ZM19 30.7l2.8 8.7-3.2 3.9-3.2-3.9 2.8-8.7h.8ZM3 32.1c0-3.7 3-6.7 6.8-6.7h1.6c0 .5.2.6 1 1.9.9 1.4 2.2 2.4 3.7 2.9l-2.9 9c-.1.3 0 .7.2.9l4.3 5.3c.2.2.5.4.8.4.3 0 .6-.1.8-.4l4.3-5.3c.2-.3.3-.6.2-.9l-2.9-9c3.1-1.1 4-3.6 4.6-4.3.1-.2.1-.3.1-.5 1.2 0 2.1-.1 3.5.3-2.2 2.1-3.6 5.1-3.6 8.4 0 5.3 3.6 9.8 8.5 11.3V47H3V32.1Z"/>
</symbol><symbol id="icon-feature-4">
    <path d="M26 31.5c2.2-.7 3.1-3 2.2-5-.6-1.3-1.9-2.1-3.3-2.1-2.2-.5-1.5-3.2.2-3.2h.2c.4 0 .8.2 1.1.6.4.4 1 .4 1.4.1.4-.4.4-1 .1-1.4-.5-.6-1.1-.9-1.8-1.1-.1-.4.4-2.3-1-2.3-.6 0-1 .4-1 1v1.4c-.5.2-.9.4-1.3.8-1.3 1.2-1.8 3.4-.2 5.1 1.6 1.8 3.2.5 3.9 2.1.5 1.1-.1 2.3-1.5 2.3-.5 0-.9-.2-1.2-.5-.4-.4-1-.4-1.4-.1-1 .9.4 2.1 1.7 2.5.1.4-.4 2.3 1 2.3 1.3-.1.8-2 .9-2.5Z"/>
    <path d="M3.5 25.5c0-.6-.4-1-1-1s-1 .4-1 1C1.5 38.4 12 49 25 49s23.5-10.6 23.5-23.5S38 2 25 2C18.9 2 13.1 4.3 8.7 8.5V2c0-.5-.5-1-1-1-.6 0-1 .5-1 1l.1 9c0 .5.5 1 1 1l9-.1c.6 0 1-.5 1-1s-.5-1-1-1l-6.7.1c4-3.8 9.3-6 14.9-6 11.9 0 21.5 9.7 21.5 21.5S36.9 47 25 47 3.5 37.3 3.5 25.5Z"/>
    <path d="M38.9 25.5c0-7.7-6.2-13.9-13.9-13.9s-13.9 6.2-13.9 13.9S17.3 39.4 25 39.4s13.9-6.3 13.9-13.9Zm-25.8 0c0-6.5 5.3-11.9 11.9-11.9 6.6 0 11.9 5.3 11.9 11.9 0 6.6-5.4 11.9-11.9 11.9S13.1 32 13.1 25.5Z"/>
</symbol><symbol id="icon-mail-simple">
    <path d="M35 6.165H5c-2.125 0-3.938 1.75-3.938 3.937v20.25c0 2.125 1.75 3.938 3.938 3.938h30c2.125 0 3.938-1.75 3.938-3.938V10.04c0-2.125-1.813-3.875-3.938-3.875Zm0 2.813h.188L20 18.728 4.812 8.977H35Zm0 22.375H5a1.12 1.12 0 0 1-1.125-1.126v-18.5L18.5 21.102c.438.313.938.438 1.438.438s1-.125 1.437-.438L36 11.727V30.29c.125.625-.375 1.063-1 1.063Z"/>
</symbol><symbol id="icon-mail">
    <path fill-rule="evenodd" clip-rule="evenodd" d="M20 2c0-1.1-.9-2-2-2H2C.9 0 0 .9 0 2v12c0 1.1.9 2 2 2h16c1.1 0 2-.9 2-2V2Zm-2 0-8 5-8-5h16Zm0 12H2V4l8 5 8-5v10Z"/>
</symbol><symbol id="icon-phone-simple">
    <path d="M30.375 38.228c-5.063 0-12.25-3.625-18.875-9.875-9-8.625-12.812-18.25-8.812-22.5.187-.188.437-.375.687-.5l5.063-2.875c1.312-.75 2.937-.375 3.812.875l3.688 5.25c.437.625.624 1.375.437 2.125-.125.687-.563 1.312-1.188 1.75L13 13.915c1.688 2.438 6.25 8.5 13.5 12.813.063.062.125 0 .125 0l1.563-2.125c.875-1.188 2.562-1.5 3.875-.688l5.5 3.5c1.312.813 1.687 2.5.874 3.813l-3 4.812c-.187.25-.374.5-.562.688-1.125 1-2.688 1.5-4.5 1.5ZM9.875 4.915 4.75 7.79c-2.375 2.563.563 10.75 8.75 18.5 8.313 7.875 16.875 10.688 19.625 8.313l3-4.813-5.5-3.5H30.5l-1.563 2.125c-.875 1.188-2.562 1.5-3.812.75-7.813-4.687-12.688-11.187-14.438-13.75a2.736 2.736 0 0 1-.437-2.062 2.505 2.505 0 0 1 1.188-1.75l2.187-1.438L10 4.978c-.062 0-.125-.063-.125-.063Z"/>
</symbol><symbol id="icon-phone">
    <path d="M3.54 2c.06.89.21 1.76.45 2.59l-1.2 1.2c-.41-1.2-.67-2.47-.76-3.79h1.51Zm9.86 12.02c.85.24 1.72.39 2.6.45v1.49c-1.32-.09-2.59-.35-3.8-.75l1.2-1.19ZM4.5 0H1C.45 0 0 .45 0 1c0 9.39 7.61 17 17 17 .55 0 1-.45 1-1v-3.49c0-.55-.45-1-1-1-1.24 0-2.45-.2-3.57-.57a.84.84 0 0 0-.31-.05c-.26 0-.51.1-.71.29l-2.2 2.2a15.149 15.149 0 0 1-6.59-6.59l2.2-2.2c.28-.28.36-.67.25-1.02A11.36 11.36 0 0 1 5.5 1c0-.55-.45-1-1-1Z"/>
</symbol><symbol id="icon-pin-simple">
    <path d="M20 1.125c-8.625 0-15.625 6.75-15.625 15.063 0 6.312 8.375 16.312 13.313 21.687.625.688 1.437 1 2.312 1 .875 0 1.688-.375 2.313-1C27.25 32.5 35.624 22.5 35.624 16.187c0-8.312-7-15.062-15.625-15.062ZM20.25 36c-.125.125-.313.125-.5 0-6.063-6.625-12.563-15.25-12.563-19.813 0-6.75 5.75-12.25 12.813-12.25 7.063 0 12.813 5.5 12.813 12.25 0 4.563-6.5 13.188-12.563 19.813Z"/>
    <path d="M20 9.813c-3.75 0-6.813 3.062-6.813 6.812 0 3.75 3.063 6.875 6.813 6.875 3.75 0 6.813-3.063 6.813-6.813 0-3.75-3.063-6.875-6.813-6.875Zm0 10.874c-2.25 0-4-1.812-4-4 0-2.187 1.813-4 4-4 2.188 0 4 1.813 4 4 0 2.188-1.75 4-4 4Z"/>
</symbol><symbol id="icon-pin">
    <path d="M7 0C3.13 0 0 3.13 0 7c0 5.25 7 13 7 13s7-7.75 7-13c0-3.87-3.13-7-7-7ZM2 7c0-2.76 2.24-5 5-5s5 2.24 5 5c0 2.88-2.88 7.19-5 9.88C4.92 14.21 2 9.85 2 7Z"/>
    <path d="M7 9.5a2.5 2.5 0 1 0 0-5 2.5 2.5 0 0 0 0 5Z"/>
</symbol><symbol id="icon-search">
    <path fill-rule="evenodd" clip-rule="evenodd" d="M7.778 2.222a5.556 5.556 0 1 0 0 11.111 5.556 5.556 0 0 0 0-11.11ZM0 7.778a7.778 7.778 0 1 1 14.007 4.658l5.668 5.667a1.111 1.111 0 0 1-1.572 1.572l-5.667-5.668A7.778 7.778 0 0 1 0 7.777Z"/>
</symbol><symbol id="icon-services">
    <path d="M70.13 14.543C62.318 7.51 53.26-.267 42.032.169c-5.159.203-10.001 2.33-14.227 5.176A88.498 88.498 0 0 0 14.63 16.574C9.918 21.285 5.263 26.066.59 30.816c-1.55 1.55.871 3.983 2.415 2.416 3.989-4.056 7.965-8.112 11.96-12.151A108.14 108.14 0 0 1 27.408 9.768c3.835-2.828 8.14-5.334 12.926-6.013 4.412-.634 8.944.504 12.909 2.433 5.465 2.658 10.013 6.754 14.487 10.787 1.612 1.443 4.04-.962 2.399-2.432Zm14.555 13.91a4.976 4.976 0 0 0-.594-2.212l-1.058-2.585-2.03-4.995-4.64-11.427a1.72 1.72 0 0 0-2.33-.645 1.752 1.752 0 0 0-.64 2.325l4.096 10.024 1.963 4.825.984 2.41.142.311-.86-.271c-1.103-.345-2.195-.724-3.32-1.058a55.786 55.786 0 0 0-6.16-1.635A58.226 58.226 0 0 0 57.3 22.428c-2.2.063-2.195 3.462 0 3.394a55.273 55.273 0 0 1 18.56 2.721c1.624.492 3.18 1.075 4.808 1.494.709.253 1.46.363 2.212.322a2.088 2.088 0 0 0 1.805-1.906Z"/>
</symbol><symbol id="icon-slider-arrow">
    <path d="M16 7.889H3.83l5.59-5.59L8 .889l-8 8 8 8 1.41-1.41-5.58-5.59H16v-2Z"/>
</symbol><symbol id="icon-slider-next-arrow">
    <path d="m8 .889-1.41 1.41 5.58 5.59H0v2h12.17l-5.58 5.59L8 16.889l8-8-8-8Z"/>
</symbol><symbol id="icon-slider-prev-arrow">
    <path d="M16 7.889H3.83l5.59-5.59L8 .889l-8 8 8 8 1.41-1.41-5.58-5.59H16v-2Z"/>
</symbol><symbol id="icon-social-mail">
    <path d="M33.842 17A16.842 16.842 0 1 1 .157 17a16.842 16.842 0 0 1 33.685 0Zm-20.699.539L5.07 11.585v11.129l8.073-5.175Zm-5.987-6.507 7.88 5.81a3.545 3.545 0 0 0 3.882 0l7.88-5.81H7.156Zm19.01 11.945-6.863-4.402a5.357 5.357 0 0 1-4.652 0l-6.87 4.402h18.385Zm2.718-11.39-8.073 5.952 8.073 5.179v-11.13Z"/>
</symbol><symbol id="icon-social-phone">
    <path d="M17 .158a16.842 16.842 0 1 1 0 33.684A16.842 16.842 0 0 1 17 .158Zm-2.341 13.64-4.373-7.57-.463.267a3.895 3.895 0 0 0-1.65 4.358 25.75 25.75 0 0 0 3.349 9.41 25.787 25.787 0 0 0 6.434 7.569 3.91 3.91 0 0 0 4.654.802l.464-.268-4.37-7.57-.466.267a3.41 3.41 0 0 0-1.221 1.207 26.268 26.268 0 0 1-4.48-7.752 3.402 3.402 0 0 0 1.657-.453l.465-.267Zm6.139 5.787-.638.369 4.373 7.568.64-.368a.973.973 0 0 0 .353-1.325l-3.402-5.89a.973.973 0 0 0-1.326-.354ZM12.383 5.017l-.638.368 4.373 7.569.638-.369a.973.973 0 0 0 .353-1.326L13.707 5.37a.972.972 0 0 0-1.324-.354Z"/>
</symbol><symbol id="icon-social-tg">
    <path d="M16.5 0C7.385 0 0 7.386 0 16.5S7.386 33 16.5 33C25.616 33 33 25.614 33 16.5S25.614 0 16.5 0Zm8.104 11.304-2.708 12.761c-.2.905-.739 1.125-1.49.699l-4.125-3.04-1.99 1.916c-.22.219-.405.405-.831.405l.292-4.198 7.645-6.907c.333-.292-.074-.458-.513-.166l-9.448 5.948-4.072-1.271c-.884-.28-.905-.885.187-1.31l15.908-6.136c.739-.266 1.384.18 1.144 1.298l.001.001Z"/>
</symbol><symbol id="icon-star">
    <path d="m7.461.987-1.785 3.62-3.995.582a.875.875 0 0 0-.484 1.493l2.89 2.816-.683 3.978a.874.874 0 0 0 1.268.921l3.574-1.878 3.573 1.879c.634.333 1.392-.203 1.269-.922l-.684-3.978 2.89-2.816a.875.875 0 0 0-.484-1.493l-3.994-.582L9.03.987a.876.876 0 0 0-1.569 0Z"/>
    <path d="m7.461.987-1.785 3.62-3.995.582a.875.875 0 0 0-.484 1.493l2.89 2.816-.683 3.978a.874.874 0 0 0 1.268.921l3.574-1.878 3.573 1.879c.634.333 1.392-.203 1.269-.922l-.684-3.978 2.89-2.816a.875.875 0 0 0-.484-1.493l-3.994-.582L9.03.987a.876.876 0 0 0-1.569 0Z"/>
    <path d="m7.461.987-1.785 3.62-3.995.582a.875.875 0 0 0-.484 1.493l2.89 2.816-.683 3.978a.874.874 0 0 0 1.268.921l3.574-1.878 3.573 1.879c.634.333 1.392-.203 1.269-.922l-.684-3.978 2.89-2.816a.875.875 0 0 0-.484-1.493l-3.994-.582L9.03.987a.876.876 0 0 0-1.569 0Z"/>
</symbol><symbol id="icon-tg-simple">
    <g clip-path="url(#a)">
        <path d="m9.35 19.796 4.562 1.778 1.766 5.93c.113.38.558.52.853.268l2.543-2.165A.733.733 0 0 1 20 25.58l4.587 3.477c.316.24.763.06.842-.34l3.36-16.875c.087-.436-.323-.799-.72-.638L9.344 18.746c-.462.186-.458.869.006 1.05Zm6.043.832 8.917-5.735c.16-.102.325.124.187.257l-7.358 7.142a1.618 1.618 0 0 0-.473.953l-.25 1.94a.229.229 0 0 1-.45.034L15 21.682a.957.957 0 0 1 .392-1.054Z"/>
        <path d="M20 40.165c-11.028 0-20-8.972-20-20s8.972-20 20-20 20 8.972 20 20-8.972 20-20 20Zm0-38.461c-10.18 0-18.462 8.282-18.462 18.462S9.82 38.627 20 38.627s18.462-8.282 18.462-18.462S30.18 1.705 20 1.705Z"/>
    </g>
    
</symbol><symbol id="icon-tg">
    <path d="m.35 9.52 4.562 1.777 1.766 5.93c.113.38.558.52.853.268l2.543-2.164a.733.733 0 0 1 .925-.027l4.587 3.477c.316.24.763.059.842-.34l3.36-16.876c.087-.435-.323-.798-.72-.638L.344 8.47c-.462.186-.458.87.006 1.05Zm6.043.831 8.917-5.734c.16-.103.325.124.187.257L8.14 12.016a1.618 1.618 0 0 0-.473.953l-.25 1.94a.229.229 0 0 1-.45.034L6 11.406a.957.957 0 0 1 .392-1.055Z"/>
</symbol><symbol id="icon-user">
    <path fill-rule="evenodd" clip-rule="evenodd" d="M35.376 41.118A19.078 19.078 0 0 1 25 44.167c-3.824 0-7.386-1.12-10.376-3.05A11.502 11.502 0 0 1 25 34.584c4.57 0 8.523 2.668 10.376 6.535Zm3.052-2.442C35.817 33.951 30.784 30.75 25 30.75c-5.784 0-10.817 3.202-13.428 7.926A19.108 19.108 0 0 1 5.833 25C5.833 14.415 14.415 5.833 25 5.833S44.167 14.415 44.167 25a19.108 19.108 0 0 1-5.739 13.676ZM48 25c0 12.703-10.297 23-23 23S2 37.703 2 25 12.297 2 25 2s23 10.297 23 23Zm-23 0a5.75 5.75 0 1 0 0-11.5A5.75 5.75 0 0 0 25 25Zm0 3.833a9.583 9.583 0 0 0 9.583-9.583A9.583 9.583 0 1 0 25 28.833Z"/>
</symbol><symbol id="icon-whatsapp-simple">
    <path d="M23.97 21.477c-.428-.257-.987-.544-1.493-.337-.388.16-.636.767-.887 1.077-.13.159-.283.184-.482.104-1.456-.58-2.573-1.553-3.377-2.893-.136-.208-.112-.372.053-.565.243-.286.548-.61.614-.996.065-.386-.116-.836-.275-1.179-.204-.439-.431-1.064-.87-1.312-.405-.228-.936-.1-1.296.193-.62.505-.92 1.297-.911 2.082.002.224.03.446.082.661.125.519.365 1.002.634 1.462.203.346.424.683.662 1.007a10.229 10.229 0 0 0 2.87 2.665 8.703 8.703 0 0 0 1.791.852c.702.232 1.327.473 2.085.33.793-.152 1.575-.643 1.89-1.406a1.22 1.22 0 0 0 .087-.718c-.107-.494-.776-.788-1.176-1.027Z"/>
    <path d="M20.092 9.594c-5.753 0-10.433 4.68-10.433 10.432a10.4 10.4 0 0 0 1.309 5.04l-1.515 5.65 5.68-1.52a10.41 10.41 0 0 0 4.959 1.263c5.752 0 10.432-4.68 10.432-10.433 0-5.752-4.68-10.432-10.432-10.432Zm0 18.893a8.443 8.443 0 0 1-4.32-1.196l-.357-.213-3.172.85.845-3.155-.22-.36a8.436 8.436 0 0 1-1.237-4.387c0-4.665 3.796-8.46 8.461-8.46 4.665 0 8.46 3.795 8.46 8.46 0 4.665-3.795 8.461-8.46 8.461Z"/>
    <path d="M20 40.165c-11.028 0-20-8.972-20-20s8.972-20 20-20 20 8.972 20 20-8.972 20-20 20Zm0-38.461c-10.18 0-18.462 8.282-18.462 18.462S9.82 38.626 20 38.626s18.462-8.281 18.462-18.46C38.462 9.986 30.18 1.704 20 1.704Z"/>
</symbol><symbol id="icon-whatsapp">
    <path d="M14.97 12.2c-.429-.256-.987-.543-1.493-.336-.388.16-.636.766-.887 1.076-.13.16-.283.185-.482.105-1.456-.58-2.573-1.553-3.377-2.893-.136-.208-.112-.372.053-.565.243-.286.548-.61.614-.996.065-.386-.116-.836-.275-1.18-.204-.438-.431-1.063-.87-1.311-.405-.228-.936-.1-1.296.192-.62.506-.92 1.298-.911 2.083.002.223.03.446.082.661.125.518.365 1.001.634 1.461.203.347.424.684.662 1.007a10.227 10.227 0 0 0 2.87 2.666 8.698 8.698 0 0 0 1.791.852c.702.232 1.327.473 2.085.329.793-.151 1.575-.642 1.89-1.406.093-.226.14-.478.087-.717-.107-.494-.776-.788-1.176-1.027Z"/>
    <path d="M11.092.317C5.339.317.659 4.997.659 10.75c0 1.76.452 3.493 1.309 5.04L.453 21.44l5.68-1.521a10.408 10.408 0 0 0 4.958 1.264c5.753 0 10.433-4.68 10.433-10.433S16.844.317 11.092.317Zm0 18.894a8.444 8.444 0 0 1-4.32-1.196l-.357-.214-3.172.85.845-3.155-.22-.36a8.436 8.436 0 0 1-1.237-4.386c0-4.666 3.796-8.461 8.461-8.461 4.665 0 8.46 3.795 8.46 8.46 0 4.666-3.795 8.462-8.46 8.462Z"/>
</symbol><symbol id="icon-workflow-1">
    <path d="M34.295 25.879a.986.986 0 0 1-.924-.663.984.984 0 0 1 .323-1.083.987.987 0 0 1 1.075-.084c.356.198.557.61.49 1.012a.988.988 0 0 1-.964.818Z"/>
    <path d="M25 35.272c-5.664 0-10.272-4.608-10.272-10.272 0-5.664 4.608-10.272 10.272-10.272 3.696 0 7.124 2 8.946 5.221a.977.977 0 0 1-1.7.962A8.34 8.34 0 0 0 25 16.681c-4.587 0-8.319 3.732-8.319 8.319 0 4.587 3.732 8.319 8.319 8.319a8.306 8.306 0 0 0 7.361-4.44.976.976 0 1 1 1.727.911A10.255 10.255 0 0 1 25 35.272Z"/>
    <path d="M48.99 15.663v-.11c0-2.516-1.7-4.643-4.012-5.292a5.988 5.988 0 0 0 1.773-4.255A6.012 6.012 0 0 0 40.745 0a6.013 6.013 0 0 0-5.762 7.702A19.957 19.957 0 0 0 25 5.029c-3.533 0-6.97.932-9.983 2.672A6.012 6.012 0 0 0 9.255 0a6.012 6.012 0 0 0-6.006 6.006c0 1.661.679 3.167 1.773 4.255a5.505 5.505 0 0 0-4.012 5.292v.11c0 .303.14.588.38.773a12.786 12.786 0 0 0 4.65 2.275A19.907 19.907 0 0 0 5.03 25c0 2.313.39 4.574 1.162 6.729a6.008 6.008 0 0 0-2.943 5.164c0 1.662.679 3.168 1.773 4.256a5.504 5.504 0 0 0-4.012 5.291v.11c0 .303.14.589.38.774A12.776 12.776 0 0 0 9.255 50c2.873 0 5.593-.925 7.864-2.675.24-.185.381-.471.381-.774v-.11a5.47 5.47 0 0 0-1.242-3.476A19.82 19.82 0 0 0 25 44.971c3.078 0 6.042-.686 8.742-2.005A5.47 5.47 0 0 0 32.5 46.44v.11c0 .303.14.589.38.774A12.776 12.776 0 0 0 40.745 50c2.874 0 5.593-.925 7.865-2.675.24-.185.38-.471.38-.774v-.11c0-2.516-1.7-4.642-4.012-5.291a5.987 5.987 0 0 0 1.773-4.256 6.008 6.008 0 0 0-2.943-5.164A19.892 19.892 0 0 0 44.971 25c0-2.155-.34-4.267-1.01-6.29a12.785 12.785 0 0 0 4.649-2.274c.24-.185.38-.47.38-.773Zm-8.245-13.71a4.057 4.057 0 0 1 4.053 4.053 4.057 4.057 0 0 1-4.053 4.052 4.057 4.057 0 0 1-4.053-4.052 4.057 4.057 0 0 1 4.053-4.053Zm-31.49 0a4.057 4.057 0 0 1 4.053 4.053 4.057 4.057 0 0 1-4.053 4.052 4.057 4.057 0 0 1-4.053-4.052 4.057 4.057 0 0 1 4.053-4.053Zm-2.75 10.058h5.5a3.546 3.546 0 0 1 3.523 3.172 10.83 10.83 0 0 1-6.273 1.976c-2.272 0-4.43-.682-6.273-1.976a3.547 3.547 0 0 1 3.523-3.172Zm2.75 20.83a4.057 4.057 0 0 1 4.053 4.053 4.057 4.057 0 0 1-4.053 4.053 4.057 4.057 0 0 1-4.053-4.053 4.057 4.057 0 0 1 4.053-4.052Zm0 15.206c-2.272 0-4.43-.681-6.273-1.975A3.546 3.546 0 0 1 6.505 42.9h5.5a3.546 3.546 0 0 1 3.523 3.172 10.831 10.831 0 0 1-6.273 1.975Zm37.763-1.975a10.832 10.832 0 0 1-6.273 1.975c-2.272 0-4.43-.681-6.273-1.975a3.546 3.546 0 0 1 3.523-3.172h5.5a3.546 3.546 0 0 1 3.523 3.172Zm-6.273-5.125a4.057 4.057 0 0 1-4.052-4.053 4.057 4.057 0 0 1 4.052-4.052 4.057 4.057 0 0 1 4.053 4.052 4.057 4.057 0 0 1-4.053 4.053ZM43.018 25c0 2.069-.346 4.09-1.03 6.018a6.012 6.012 0 0 0-7.25 5.876c.001 1.01.252 1.962.694 2.799A17.84 17.84 0 0 1 25 43.018a17.846 17.846 0 0 1-10.432-3.325 5.97 5.97 0 0 0 .693-2.799 6.012 6.012 0 0 0-7.25-5.876A17.954 17.954 0 0 1 6.982 25c0-2.044.338-4.043 1.005-5.95.419.041.842.062 1.268.062 2.874 0 5.593-.926 7.864-2.676.24-.185.381-.47.381-.773v-.11a5.502 5.502 0 0 0-3.249-5.014A17.992 17.992 0 0 1 25 6.982a18 18 0 0 1 10.749 3.556 5.502 5.502 0 0 0-3.249 5.015v.11c0 .302.14.588.38.773a12.774 12.774 0 0 0 7.865 2.675c.426 0 .85-.02 1.268-.06A17.962 17.962 0 0 1 43.018 25Zm-2.273-7.841a10.83 10.83 0 0 1-6.273-1.976 3.546 3.546 0 0 1 3.523-3.172h5.5a3.546 3.546 0 0 1 3.523 3.172 10.83 10.83 0 0 1-6.273 1.976Z"/>
    <path d="M24.305 28.387a.977.977 0 0 1-.61-.213l-1.686-1.349a.977.977 0 1 1 1.22-1.525l.869.694 2.438-3.521a.977.977 0 0 1 1.605 1.112l-3.033 4.382a.976.976 0 0 1-.803.42Z"/>
</symbol><symbol id="icon-workflow-2">
    <g clip-path="url(#a)">
        <path d="M37.366 25.746a.987.987 0 0 1-.92-.648.984.984 0 0 1 .276-1.063.986.986 0 0 1 1.132-.111c.368.21.56.654.462 1.067a.986.986 0 0 1-.95.755Z"/>
        <path d="m37.333 35.94-2.226-2.226a13.309 13.309 0 0 0 2.455-4.205.977.977 0 0 0-1.838-.66 11.36 11.36 0 0 1-2.5 4.033 5.689 5.689 0 0 0-3.902-3.666 6.177 6.177 0 0 0 1.873-4.435A6.202 6.202 0 0 0 25 18.586a6.202 6.202 0 0 0-6.195 6.195c0 1.737.719 3.309 1.874 4.435a5.688 5.688 0 0 0-3.903 3.667 11.303 11.303 0 0 1-3.165-7.882C13.61 18.72 18.72 13.61 25 13.61c4.663 0 8.808 2.793 10.56 7.115a.976.976 0 1 0 1.81-.734 13.323 13.323 0 0 0-2.275-3.719l2.222-2.221c.7.439 1.5.658 2.299.658a4.315 4.315 0 0 0 3.06-1.265 4.334 4.334 0 0 0 0-6.122 4.334 4.334 0 0 0-6.12 0 4.336 4.336 0 0 0-.617 5.345l-2.227 2.226c-.371-.32-.762-.62-1.17-.901a13.252 13.252 0 0 0-6.566-2.3V8.546a4.336 4.336 0 0 0 3.351-4.218A4.333 4.333 0 0 0 25 0a4.333 4.333 0 0 0-4.328 4.328 4.336 4.336 0 0 0 3.351 4.218v3.146a13.287 13.287 0 0 0-7.73 3.206l-2.233-2.231a4.336 4.336 0 0 0-.616-5.345 4.334 4.334 0 0 0-6.122 0 4.334 4.334 0 0 0 0 6.122 4.315 4.315 0 0 0 3.061 1.265c.8 0 1.599-.22 2.3-.658l2.227 2.228a13.289 13.289 0 0 0-3.216 7.732H8.543a4.336 4.336 0 0 0-4.215-3.34A4.333 4.333 0 0 0 0 25a4.333 4.333 0 0 0 4.328 4.328c2.056 0 3.781-1.44 4.22-3.364h3.143a13.216 13.216 0 0 0 3.2 7.751l-2.224 2.225a4.336 4.336 0 0 0-5.345.616 4.334 4.334 0 0 0 0 6.122 4.315 4.315 0 0 0 3.061 1.266 4.315 4.315 0 0 0 3.06-1.266 4.336 4.336 0 0 0 .608-5.36l2.223-2.223c.19.163.385.323.585.477l.003.003a13.2 13.2 0 0 0 7.162 2.734v3.145a4.336 4.336 0 0 0-3.352 4.218A4.333 4.333 0 0 0 25 50a4.333 4.333 0 0 0 4.328-4.328 4.336 4.336 0 0 0-3.351-4.218V38.31a13.2 13.2 0 0 0 7.161-2.734l.003-.002c.2-.154.395-.314.586-.478l2.222 2.223a4.336 4.336 0 0 0 .607 5.36 4.315 4.315 0 0 0 3.061 1.265 4.315 4.315 0 0 0 3.06-1.265 4.334 4.334 0 0 0 0-6.122 4.336 4.336 0 0 0-5.344-.616Zm.604-27.237a2.368 2.368 0 0 1 1.68-.694c.608 0 1.217.231 1.68.694a2.378 2.378 0 0 1 0 3.36 2.378 2.378 0 0 1-3.36 0 2.378 2.378 0 0 1 0-3.36ZM22.625 4.328A2.378 2.378 0 0 1 25 1.953a2.378 2.378 0 0 1 2.375 2.375A2.378 2.378 0 0 1 25 6.704a2.378 2.378 0 0 1-2.375-2.376ZM8.703 12.063a2.378 2.378 0 0 1 0-3.36 2.368 2.368 0 0 1 1.68-.694c.608 0 1.217.231 1.68.695a2.378 2.378 0 0 1 0 3.359 2.378 2.378 0 0 1-3.36 0ZM4.328 27.375A2.378 2.378 0 0 1 1.953 25a2.378 2.378 0 0 1 2.375-2.375A2.378 2.378 0 0 1 6.704 25a2.378 2.378 0 0 1-2.376 2.375ZM25 20.54a4.247 4.247 0 0 1 4.242 4.242A4.247 4.247 0 0 1 25 29.023a4.247 4.247 0 0 1-4.241-4.242A4.247 4.247 0 0 1 25 20.54ZM12.063 41.297a2.378 2.378 0 0 1-3.36 0 2.378 2.378 0 0 1 0-3.36 2.368 2.368 0 0 1 1.68-.694c.608 0 1.217.231 1.68.694a2.378 2.378 0 0 1 0 3.36Zm15.312 4.375A2.378 2.378 0 0 1 25 48.047a2.378 2.378 0 0 1-2.375-2.375A2.378 2.378 0 0 1 25 43.296a2.378 2.378 0 0 1 2.375 2.376ZM25 36.39c-2.372 0-4.625-.713-6.547-2.068a3.717 3.717 0 0 1 3.693-3.346h5.708c1.923 0 3.51 1.47 3.694 3.346A11.275 11.275 0 0 1 25 36.39Zm16.297 4.907a2.378 2.378 0 0 1-3.36 0 2.378 2.378 0 0 1 0-3.36 2.368 2.368 0 0 1 1.68-.694c.608 0 1.217.231 1.68.694a2.378 2.378 0 0 1 0 3.36Z"/>
        <path d="M45.672 29.328A4.333 4.333 0 0 1 41.343 25a4.333 4.333 0 0 1 4.329-4.328A4.333 4.333 0 0 1 50 25a4.333 4.333 0 0 1-4.328 4.328Zm0-6.703A2.378 2.378 0 0 0 43.296 25a2.378 2.378 0 0 0 2.376 2.375A2.378 2.378 0 0 0 48.047 25a2.378 2.378 0 0 0-2.375-2.375Z"/>
    </g>
    
</symbol><symbol id="icon-workflow-3">
    <g clip-path="url(#a)">
        <path d="M30.38 19.621a.977.977 0 0 0-1.382 0l-1.38 1.38a.977.977 0 0 0 1.38 1.382l1.381-1.38a.977.977 0 0 0 0-1.382ZM8.281 33.431a.977.977 0 0 0-1.38 0L.285 40.047a.977.977 0 0 0 1.381 1.38l6.614-6.614a.977.977 0 0 0 0-1.382ZM8.756 41.719a.977.977 0 0 0-1.381 0L.76 48.333a.977.977 0 1 0 1.38 1.381L8.757 43.1a.976.976 0 0 0 0-1.381ZM9.663 26.526a.977.977 0 0 0-1.38 0L5.52 29.288a.977.977 0 0 0 1.38 1.381l2.763-2.762a.977.977 0 0 0 0-1.38ZM16.569 41.719a.977.977 0 0 0-1.382 0l-6.615 6.614a.977.977 0 1 0 1.381 1.381l6.615-6.614a.977.977 0 0 0 0-1.381ZM23.474 40.337a.977.977 0 0 0-1.381 0L19.33 43.1a.977.977 0 0 0 1.381 1.38l2.762-2.762a.977.977 0 0 0 0-1.381Z"/>
        <path d="M49.714.286a.973.973 0 0 0-.726-.285c-.22.008-5.478.219-11.727 2.428-5.008 1.768-9.182 4.3-12.407 7.524a37.174 37.174 0 0 0-2.098 2.285c-3.189-1.877-5.744-1.288-7.359-.424-3.718 1.99-6.02 7.394-6.02 11.26a.977.977 0 0 0 1.667.69c1.961-1.961 4.38-1.839 5.17-1.735l.343.342a34.337 34.337 0 0 0-1.613 4.743 2.764 2.764 0 0 0 .118 1.697 9.245 9.245 0 0 0-2.637 1.859C9.91 33.184 9.4 39.31 9.38 39.57a.977.977 0 0 0 1.05 1.05c.26-.02 6.386-.53 8.9-3.045a9.247 9.247 0 0 0 1.86-2.636 2.758 2.758 0 0 0 1.696.117 34.36 34.36 0 0 0 4.743-1.612l.342.342c.104.79.226 3.209-1.735 5.17a.977.977 0 0 0 .69 1.667c3.866 0 9.27-2.302 11.26-6.02.864-1.616 1.453-4.17-.424-7.359a37.19 37.19 0 0 0 2.285-2.098c3.224-3.225 5.756-7.4 7.524-12.407 2.209-6.25 2.42-11.507 2.428-11.727a.977.977 0 0 0-.285-.726ZM11.56 20.973c.607-2.936 2.369-6.158 4.76-7.437 1.597-.855 3.343-.771 5.2.245a39.483 39.483 0 0 0-4.103 6.688c-.015-.009-.19-.23-.517-.303-.134-.03-2.718-.587-5.34.807Zm6.39 15.221c-1.344 1.343-4.493 2.051-6.484 2.34.289-1.99.997-5.14 2.34-6.483.752-.752 1.624-1.322 2.5-1.643l3.286 3.286c-.32.876-.89 1.748-1.643 2.5Zm4.451-3.03c-.282.073-.61-.034-.853-.277l-1.913-1.912-2.522-2.522c-.243-.244-.35-.572-.277-.854a31.72 31.72 0 0 1 1.219-3.73l8.076 8.076a31.68 31.68 0 0 1-3.73 1.22Zm14.063.517c-1.28 2.39-4.5 4.152-7.436 4.759.936-1.762 1.142-4.004.8-5.363-.08-.316-.286-.475-.297-.494a39.5 39.5 0 0 0 6.688-4.103c1.016 1.857 1.1 3.603.245 5.2Zm2.202-9.916c-.88.88-1.828 1.73-2.816 2.526a37.52 37.52 0 0 1-7.785 4.826l-9.182-9.181a37.517 37.517 0 0 1 4.826-7.785 35.435 35.435 0 0 1 2.527-2.817c2.893-2.893 6.626-5.196 11.1-6.853l8.183 8.183c-1.657 4.474-3.96 8.207-6.853 11.1Zm7.556-13.16-6.826-6.827a43.905 43.905 0 0 1 8.569-1.743 43.912 43.912 0 0 1-1.743 8.57Z"/>
        <path d="M38.665 11.335a4.88 4.88 0 0 0-6.905 0 4.89 4.89 0 0 0 0 6.906 4.89 4.89 0 0 0 6.905 0 4.88 4.88 0 0 0 0-6.906Zm-1.38 5.524a2.934 2.934 0 0 1-4.144 0 2.934 2.934 0 0 1 0-4.143 2.929 2.929 0 0 1 4.143 0 2.928 2.928 0 0 1 0 4.143ZM26.236 23.765a.977.977 0 1 0-1.381 1.38.977.977 0 0 0 1.381-1.38Z"/>
    </g>
    
</symbol><symbol id="icon-workflow-4">
    <g clip-path="url(#a)">
        <path d="M33.375 49.962a.985.985 0 0 1-.919-.648.985.985 0 0 1 .3-1.083.984.984 0 0 1 1.134-.075.984.984 0 0 1 .438 1.042.987.987 0 0 1-.953.764Z"/>
        <path d="M46.207 34.408h-1.061v-5.169c0-.7-.258-1.342-.682-1.835a2.798 2.798 0 0 0 .682-1.833v-5.169h1.061c2.092 0 3.793-1.7 3.793-3.789 0-2.09-1.701-3.79-3.793-3.79h-1.061V7.656a2.811 2.811 0 0 0-2.81-2.807h-5.175V3.79C37.16 1.7 35.459 0 33.367 0a3.795 3.795 0 0 0-3.793 3.79v1.058H24.4c-.71 0-1.359.265-1.854.701a2.798 2.798 0 0 0-1.81-.662h-5.177v-1.06c0-2.089-1.701-3.789-3.792-3.789a3.795 3.795 0 0 0-3.793 3.79v1.059H2.797a2.807 2.807 0 0 0-2.79 2.482A.979.979 0 0 0 0 7.48v18.34c0 .038.002.076.006.113.067.577.306 1.096.661 1.508a2.802 2.802 0 0 0-.66 1.51.982.982 0 0 0-.007.113v18.34a.98.98 0 0 0 .006.113A2.807 2.807 0 0 0 2.796 50h17.938c.712 0 1.362-.266 1.858-.703.49.414 1.122.665 1.807.665h4.544a.977.977 0 0 0 0-1.953h-4.544a.859.859 0 0 1-.856-.832v-5.153h1.062c2.091 0 3.793-1.7 3.793-3.789 0-2.09-1.702-3.79-3.793-3.79h-1.062v-5.207c0-.473.384-.858.856-.858h5.176v1.057c0 2.09 1.701 3.79 3.793 3.79 2.091 0 3.792-1.7 3.792-3.79V28.38h5.177c.471 0 .856.386.856.86v6.144c0 .54.437.977.976.977h2.038a1.84 1.84 0 0 1 1.84 1.836 1.84 1.84 0 0 1-1.84 1.836H44.17a.977.977 0 0 0-.976.977v6.145c0 .47-.384.854-.856.854h-4.565a.977.977 0 1 0 0 1.953h4.565c1.548 0 2.809-1.26 2.809-2.807v-5.169h1.061c2.092 0 3.793-1.7 3.793-3.789 0-2.09-1.701-3.79-3.793-3.79ZM1.953 7.548a.854.854 0 0 1 .844-.708H8.95c.539 0 .976-.437.976-.977V3.827a1.84 1.84 0 0 1 3.68 0v2.036c0 .54.436.977.976.977h6.152c.468 0 .85.377.856.842v6.157c0 .539.437.976.977.976h2.038a1.84 1.84 0 0 1 1.84 1.836 1.84 1.84 0 0 1-1.84 1.837h-2.038a.977.977 0 0 0-.977.976v6.145a.857.857 0 0 1-.856.856h-6.153a.977.977 0 0 0-.976.977v2.034a1.84 1.84 0 0 1-3.68 0v-2.034a.977.977 0 0 0-.976-.977H2.797a.855.855 0 0 1-.844-.71V7.548Zm22.652 28.851a1.84 1.84 0 0 1 1.84 1.836 1.84 1.84 0 0 1-1.84 1.837h-2.038a.977.977 0 0 0-.977.976v6.145c0 .471-.384.854-.856.854H2.797a.854.854 0 0 1-.844-.708V29.132a.856.856 0 0 1 .844-.713h5.176v1.056c0 2.09 1.701 3.79 3.793 3.79 2.09 0 3.792-1.7 3.792-3.79V28.42h5.176c.468 0 .85.379.856.847v6.157c0 .54.437.976.977.976h2.038Zm18.588-16.973v6.145a.857.857 0 0 1-.856.856h-6.153a.977.977 0 0 0-.977.977v2.033a1.84 1.84 0 0 1-3.679 0v-2.033a.977.977 0 0 0-.976-.977h-6.153a.86.86 0 0 1-.855-.834v-5.152h1.061c2.091 0 3.793-1.7 3.793-3.79s-1.702-3.789-3.793-3.789h-1.061V7.655c0-.47.383-.853.855-.853h6.153c.54 0 .976-.438.976-.977V3.789a1.84 1.84 0 0 1 3.68 0v2.036c0 .54.437.977.976.977h6.153c.471 0 .856.383.856.853V13.8c0 .54.437.977.976.977h2.038a1.84 1.84 0 0 1 1.84 1.836 1.84 1.84 0 0 1-1.84 1.836H44.17a.976.976 0 0 0-.976.977Z"/>
    </g>
    
</symbol><symbol id="icon-workflow-5">
    <g clip-path="url(#a)">
        <path d="M49.024 37.402a.985.985 0 0 1-.907-.618.984.984 0 0 1 .263-1.092.985.985 0 0 1 1.132-.112c.358.207.55.63.47 1.036a.986.986 0 0 1-.958.786Z"/>
        <path d="M48.63 39.917a.977.977 0 0 0-1.248.589 11.36 11.36 0 0 1-2.5 4.032 5.689 5.689 0 0 0-3.902-3.666 6.177 6.177 0 0 0 1.873-4.434 6.202 6.202 0 0 0-6.195-6.195 6.202 6.202 0 0 0-6.194 6.195c0 1.736.718 3.308 1.873 4.434a5.689 5.689 0 0 0-3.903 3.668 11.303 11.303 0 0 1-3.165-7.883c0-6.28 5.11-11.39 11.39-11.39 4.663 0 8.808 2.792 10.56 7.114a.976.976 0 1 0 1.81-.733 13.335 13.335 0 0 0-4.828-6 13.295 13.295 0 0 0-2.982-1.535v-6.357a5.773 5.773 0 0 0 4.787-5.681 5.77 5.77 0 0 0-5.763-5.764 5.773 5.773 0 0 0-5.681 4.787h-8.065C25.427 4.806 19.936 0 13.343 0 5.986 0 0 5.986 0 13.344a13.26 13.26 0 0 0 5.21 10.578 13.3 13.3 0 0 0 3.572 1.968v6.354a5.773 5.773 0 0 0-4.787 5.68 5.77 5.77 0 0 0 5.763 5.765A5.773 5.773 0 0 0 15.44 38.9h8.062c.553 3.29 2.314 6.246 5.018 8.33l.006.005A13.219 13.219 0 0 0 36.658 50c2.973 0 5.786-.956 8.136-2.766l.003-.003a13.337 13.337 0 0 0 4.423-6.065.977.977 0 0 0-.59-1.25ZM40.243 8.264c2.102 0 3.811 1.71 3.811 3.811s-1.71 3.81-3.81 3.81a3.815 3.815 0 0 1-3.811-3.81c0-2.101 1.71-3.81 3.81-3.81Zm-38.288 5.08c0-6.281 5.11-11.39 11.39-11.39s11.389 5.109 11.389 11.39c0 2.982-1.137 5.775-3.166 7.883a5.689 5.689 0 0 0-3.902-3.668 6.177 6.177 0 0 0 1.873-4.435 6.202 6.202 0 0 0-6.195-6.195 6.202 6.202 0 0 0-6.195 6.195c0 1.737.719 3.31 1.874 4.435a5.689 5.689 0 0 0-3.903 3.668 11.304 11.304 0 0 1-3.165-7.883Zm11.39 4.022a4.247 4.247 0 0 1-4.242-4.242 4.247 4.247 0 0 1 4.241-4.241 4.247 4.247 0 0 1 4.242 4.241 4.247 4.247 0 0 1-4.242 4.242ZM10.49 19.32h5.707c1.923 0 3.51 1.47 3.694 3.346a11.275 11.275 0 0 1-6.548 2.069c-2.372 0-4.625-.714-6.547-2.07a3.717 3.717 0 0 1 3.693-3.345Zm-.732 22.417a3.815 3.815 0 0 1-3.81-3.811c0-2.101 1.71-3.81 3.81-3.81 2.102 0 3.811 1.709 3.811 3.81s-1.71 3.81-3.81 3.81Zm5.682-4.788a5.78 5.78 0 0 0-4.705-4.704v-5.81c.85.168 1.722.253 2.608.253a13.218 13.218 0 0 0 8.138-2.769 13.26 13.26 0 0 0 5.202-10.866h7.878a5.78 5.78 0 0 0 4.705 4.704v5.812a13.417 13.417 0 0 0-2.608-.255c-7.357 0-13.343 5.986-13.343 13.344 0 .098.002.195.004.291h-7.88Zm21.218-4.752a4.247 4.247 0 0 1 4.242 4.242 4.247 4.247 0 0 1-4.242 4.242 4.246 4.246 0 0 1-4.241-4.242 4.247 4.247 0 0 1 4.241-4.242Zm0 15.85c-2.372 0-4.625-.713-6.547-2.068a3.717 3.717 0 0 1 3.693-3.346h5.708c1.923 0 3.51 1.47 3.694 3.346a11.275 11.275 0 0 1-6.548 2.069Z"/>
    </g>
    
</symbol><symbol id="icon-workflow-6">
    <path d="M49.219 18.575v-5.9l-2.913-.747a12.486 12.486 0 0 0-.88-2.128l1.532-2.586-4.173-4.173L40.2 4.573a12.423 12.423 0 0 0-2.128-.88L37.325.782h-5.9l-.747 2.914c-.738.228-1.451.523-2.128.88l-2.586-1.533-.862.864h-11.82v-.781A2.347 2.347 0 0 0 10.936.781H7.813a2.347 2.347 0 0 0-2.344 2.344v.781H.78V49.22H36.72v-18.75h.606l.746-2.914a12.483 12.483 0 0 0 2.128-.88l2.586 1.533 4.173-4.173-1.532-2.586c.356-.676.651-1.389.88-2.128l2.913-.746Zm-37.5 5.644h-1.563v-12.5h1.563v12.5Zm-4.688-12.5h1.563v12.5H7.03v-12.5Zm4.01 14.062L9.375 28.28 7.709 25.78h3.332Zm.678-15.625H7.03V8.594h4.688v1.562Zm-2.344 20.94 2.502-3.752h1.404v6.25H5.47v-6.25h1.404l2.502 3.752ZM7.812 2.344h3.125c.432 0 .782.35.782.781v3.906H7.03V3.125c0-.431.35-.781.782-.781Zm27.344 45.312H2.344V5.47h3.125v19.768l.363.544H3.906v9.375h10.938v-9.375h-1.926l.363-.544V5.469H23.54l-1.746 1.746L23.325 9.8a12.426 12.426 0 0 0-.88 2.128l-2.914.746v5.9l2.914.747c.228.738.523 1.451.88 2.128l-1.533 2.586 4.173 4.173 2.586-1.532c.676.356 1.389.651 2.128.88l.746 2.912h3.731v17.187Zm9.887-29.625-.119.44a10.86 10.86 0 0 1-1.075 2.602l-.228.396 1.374 2.319-2.457 2.457-2.32-1.374-.395.228a10.86 10.86 0 0 1-2.602 1.075l-.44.119-.669 2.613h-3.474l-.668-2.613-.44-.119a10.862 10.862 0 0 1-2.603-1.075l-.395-.228-2.319 1.374-2.457-2.457 1.374-2.32-.228-.395a10.855 10.855 0 0 1-1.075-2.602l-.12-.44-2.613-.668v-3.475l2.613-.668.119-.44c.247-.918.608-1.793 1.075-2.603l.228-.395-1.374-2.319 2.457-2.458 2.32 1.375.395-.228c.809-.467 1.684-.829 2.602-1.075l.44-.12.669-2.613h3.474l.669 2.613.44.119a10.86 10.86 0 0 1 2.602 1.075l.395.228 2.319-1.374 2.458 2.458L43.62 9.78l.228.396c.467.809.829 1.684 1.075 2.602l.12.44 2.613.668v3.475l-2.613.67Z"/>
    <path d="M34.375 6.25c-5.17 0-9.375 4.206-9.375 9.375C25 20.795 29.206 25 34.375 25c5.17 0 9.375-4.206 9.375-9.375 0-5.17-4.206-9.375-9.375-9.375Zm0 17.188c-4.308 0-7.813-3.505-7.813-7.813s3.505-7.813 7.813-7.813 7.813 3.505 7.813 7.813-3.505 7.813-7.813 7.813Z"/>
    <path d="M34.375 9.375a6.257 6.257 0 0 0-6.25 6.25 6.257 6.257 0 0 0 6.25 6.25 6.257 6.257 0 0 0 6.25-6.25 6.257 6.257 0 0 0-6.25-6.25Zm0 10.938a4.692 4.692 0 0 1-4.688-4.688 4.692 4.692 0 0 1 4.688-4.688 4.692 4.692 0 0 1 4.688 4.688 4.692 4.692 0 0 1-4.688 4.688ZM15.073 35.385l-1.334 1.334H3.906v9.375h10.938v-8.27l1.333-1.334-1.104-1.105Zm-1.792 9.146H5.47v-6.25h6.708l-3.583 3.583-1.01-1.01-1.105 1.105 2.115 2.114 4.687-4.687v5.145ZM33.594 44.531H32.03v1.563h1.563V44.53ZM30.469 44.531H16.406v1.563H30.47V44.53ZM33.594 41.406H16.406v1.563h17.188v-1.563ZM33.594 38.281H16.406v1.563h17.188V38.28ZM30.469 33.594H16.406v1.562H30.47v-1.562ZM30.469 30.469H16.406v1.562H30.47V30.47ZM22.656 27.344h-6.25v1.562h6.25v-1.562Z"/>
</symbol><symbol id="icon-zoom-in">
    <path d="M14 8H8v6H6V8H0V6h6V0h2v6h6v2Z"/>
</symbol><symbol id="icon-zoom-out">
    <path d="M14 2H0V0h14v2Z"/>
</symbol></svg>